Moderustic-Bold.ufo
<glyph name="quotedbl" format="2">
  <advance width="409"/>
  <unicode hex="0022"/>
  <outline>
    <contour>
      <point x="45" y="546" type="line"/>
      <point x="163" y="546" type="line"/>
      <point x="178" y="803" type="line"/>
      <point x="30" y="803" type="line"/>
    </contour>
    <contour>
      <point x="246" y="546" type="line"/>
      <point x="364" y="546" type="line"/>
      <point x="379" y="803" type="line"/>
      <point x="231" y="803" type="line"/>
    </contour>
  </outline>
</glyph>
<glyph name="numbersign" format="2">
  <advance width="830"/>
  <unicode hex="0023"/>
  <outline>
    <contour>
      <point x="95" y="0" type="line"/>
      <point x="263" y="0" type="line"/>
      <point x="304" y="200" type="line"/>
      <point x="460" y="200" type="line"/>
      <point x="419" y="0" type="line"/>
      <point x="587" y="0" type="line"/>
      <point x="628" y="200" type="line"/>
      <point x="755" y="200" type="line"/>
      <point x="755" y="280" type="line"/>
      <point x="644" y="280" type="line"/>
      <point x="673" y="420" type="line"/>
      <point x="802" y="420" type="line"/>
      <point x="802" y="500" type="line"/>
      <point x="689" y="500" type="line"/>
      <point x="730" y="700" type="line"/>
      <point x="562" y="700" type="line"/>
      <point x="521" y="500" type="line"/>
      <point x="365" y="500" type="line"/>
      <point x="406" y="700" type="line"/>
      <point x="238" y="700" type="line"/>
      <point x="198" y="500" type="line"/>
      <point x="74" y="500" type="line"/>
      <point x="74" y="420" type="line"/>
      <point x="181" y="420" type="line"/>
      <point x="152" y="280" type="line"/>
      <point x="28" y="280" type="line"/>
      <point x="28" y="200" type="line"/>
      <point x="136" y="200" type="line"/>
    </contour>
    <contour>
      <point x="320" y="280" type="line"/>
      <point x="349" y="420" type="line"/>
      <point x="505" y="420" type="line"/>
      <point x="476" y="280" type="line"/>
    </contour>
  </outline>
</glyph>
<glyph name="ampersand" format="2">
  <advance width="664"/>
  <unicode hex="0026"/>
  <outline>
    <contour>
      <point x="294" y="419" type="line"/>
      <point x="253" y="457"/>
      <point x="243" y="493"/>
      <point x="243" y="526" type="curve" smooth="yes"/>
      <point x="243" y="568"/>
      <point x="260" y="590"/>
      <point x="291" y="590" type="curve" smooth="yes"/>
      <point x="321" y="590"/>
      <point x="344" y="569"/>
      <point x="344" y="531" type="curve" smooth="yes"/>
      <point x="344" y="462"/>
      <point x="281" y="428"/>
      <point x="226" y="395" type="curve"/>
    </contour>
    <contour>
      <point x="353" y="359" type="line"/>
      <point x="460" y="409"/>
      <point x="500" y="464"/>
      <point x="500" y="541" type="curve" smooth="yes"/>
      <point x="500" y="653"/>
      <point x="417" y="720"/>
      <point x="292" y="720" type="curve" smooth="yes"/>
      <point x="171" y="720"/>
      <point x="87" y="657"/>
      <point x="87" y="557" type="curve" smooth="yes"/>
      <point x="87" y="493"/>
      <point x="121" y="424"/>
      <point x="175" y="377" type="curve"/>
      <point x="83" y="343"/>
      <point x="27" y="274"/>
      <point x="27" y="182" type="curve" smooth="yes"/>
      <point x="27" y="59"/>
      <point x="126" y="-20"/>
      <point x="275" y="-20" type="curve" smooth="yes"/>
      <point x="468" y="-20"/>
      <point x="579" y="114"/>
      <point x="642" y="206" type="curve"/>
      <point x="547" y="301" type="line"/>
      <point x="467" y="178"/>
      <point x="386" y="110"/>
      <point x="296" y="110" type="curve" smooth="yes"/>
      <point x="237" y="110"/>
      <point x="192" y="139"/>
      <point x="192" y="196" type="curve" smooth="yes"/>
      <point x="192" y="240"/>
      <point x="219" y="288"/>
      <point x="246" y="305" type="curve"/>
      <point x="494" y="0" type="line"/>
      <point x="657" y="0" type="line"/>
    </contour>
  </outline>
</glyph>
<glyph name="quotesingle" format="2">
  <advance width="204"/>
  <unicode hex="0027"/>
  <outline>
    <contour>
      <point x="43" y="546" type="line"/>
      <point x="161" y="546" type="line"/>
      <point x="176" y="803" type="line"/>
      <point x="28" y="803" type="line"/>
    </contour>
  </outline>
</glyph>
<glyph name="parenleft" format="2">
  <advance width="391"/>
  <unicode hex="0028"/>
  <outline>
    <contour>
      <point x="365" y="-135" type="line"/>
      <point x="278" y="-103"/>
      <point x="214" y="78"/>
      <point x="214" y="291" type="curve" smooth="yes"/>
      <point x="214" y="489"/>
      <point x="273" y="648"/>
      <point x="365" y="697" type="curve"/>
      <point x="365" y="777" type="line"/>
      <point x="170" y="741"/>
      <point x="50" y="564"/>
      <point x="50" y="310" type="curve" smooth="yes"/>
      <point x="50" y="26"/>
      <point x="182" y="-194"/>
      <point x="365" y="-215" type="curve"/>
    </contour>
  </outline>
</glyph>
<glyph name="comma" format="2">
  <advance width="262"/>
  <unicode hex="002C"/>
  <outline>
    <contour>
      <point x="41" y="72" type="curve" smooth="yes"/>
      <point x="41" y="21"/>
      <point x="79" y="-20"/>
      <point x="135" y="-20" type="curve"/>
      <point x="128" y="-52"/>
      <point x="86" y="-106"/>
      <point x="45" y="-137" type="curve"/>
      <point x="55" y="-178" type="line"/>
      <point x="166" y="-111"/>
      <point x="221" y="-35"/>
      <point x="221" y="50" type="curve" smooth="yes"/>
      <point x="221" y="121"/>
      <point x="182" y="160"/>
      <point x="131" y="160" type="curve" smooth="yes"/>
      <point x="79" y="160"/>
      <point x="41" y="121"/>
    </contour>
  </outline>
</glyph>
<glyph name="period" format="2">
  <advance width="262"/>
  <unicode hex="002E"/>
  <outline>
    <contour>
      <point x="131" y="-20" type="curve" smooth="yes"/>
      <point x="182" y="-20"/>
      <point x="221" y="21"/>
      <point x="221" y="71" type="curve" smooth="yes"/>
      <point x="221" y="121"/>
      <point x="182" y="160"/>
      <point x="131" y="160" type="curve" smooth="yes"/>
      <point x="79" y="160"/>
      <point x="41" y="121"/>
      <point x="41" y="71" type="curve" smooth="yes"/>
      <point x="41" y="21"/>
      <point x="79" y="-20"/>
    </contour>
  </outline>
</glyph>
<glyph name="zero" format="2">
  <advance width="627"/>
  <unicode hex="0030"/>
  <outline>
    <contour>
      <point x="40" y="348" type="curve" smooth="yes"/>
      <point x="40" y="111"/>
      <point x="134.654" y="-19"/>
      <point x="315.991" y="-19" type="curve" smooth="yes"/>
      <point x="494.339" y="-19"/>
      <point x="587" y="104"/>
      <point x="587" y="350" type="curve" smooth="yes"/>
      <point x="587" y="595"/>
      <point x="495.335" y="720"/>
      <point x="319.976" y="720" type="curve" smooth="yes"/>
      <point x="138.639" y="720"/>
      <point x="40" y="590"/>
    </contour>
    <contour>
      <point x="205" y="346" type="curve" smooth="yes"/>
      <point x="205" y="518"/>
      <point x="243.353" y="590"/>
      <point x="312.995" y="590" type="curve" smooth="yes"/>
      <point x="382.637" y="590"/>
      <point x="422" y="517"/>
      <point x="422" y="349" type="curve" smooth="yes"/>
      <point x="422" y="172"/>
      <point x="378.6" y="111"/>
      <point x="311.986" y="111" type="curve" smooth="yes"/>
      <point x="243.353" y="111"/>
      <point x="205" y="174"/>
    </contour>
  </outline>
</glyph>
<glyph name="two" format="2">
  <advance width="632"/>
  <unicode hex="0032"/>
  <outline>
    <contour>
      <point x="57" y="105" type="line"/>
      <point x="450" y="197"/>
      <point x="571" y="285"/>
      <point x="571" y="467" type="curve" smooth="yes"/>
      <point x="571" y="629"/>
      <point x="476" y="720"/>
      <point x="311" y="720" type="curve" smooth="yes"/>
      <point x="178" y="720"/>
      <point x="104" y="665"/>
      <point x="66" y="628" type="curve"/>
      <point x="164" y="530" type="line"/>
      <point x="216" y="568"/>
      <point x="248" y="589"/>
      <point x="302" y="589" type="curve" smooth="yes"/>
      <point x="362" y="589"/>
      <point x="406" y="558"/>
      <point x="406" y="469" type="curve" smooth="yes"/>
      <point x="406" y="374"/>
      <point x="355" y="295"/>
      <point x="57" y="235" type="curve"/>
    </contour>
    <contour>
      <point x="57" y="0" type="line"/>
      <point x="571" y="0" type="line"/>
      <point x="571" y="130" type="line"/>
      <point x="57" y="130" type="line"/>
    </contour>
  </outline>
</glyph>
<glyph name="three" format="2">
  <advance width="578"/>
  <unicode hex="0033"/>
  <outline>
    <contour>
      <point x="24" y="84" type="line"/>
      <point x="87" y="17"/>
      <point x="173" y="-19"/>
      <point x="290" y="-19" type="curve" smooth="yes"/>
      <point x="473" y="-19"/>
      <point x="542" y="69"/>
      <point x="542" y="182" type="curve" smooth="yes"/>
      <point x="542" y="325"/>
      <point x="430" y="388"/>
      <point x="192" y="368" type="curve"/>
      <point x="192" y="288" type="line"/>
      <point x="321" y="288"/>
      <point x="377" y="263"/>
      <point x="377" y="195" type="curve" smooth="yes"/>
      <point x="377" y="139"/>
      <point x="338" y="111"/>
      <point x="274" y="111" type="curve" smooth="yes"/>
      <point x="217" y="111"/>
      <point x="173" y="133"/>
      <point x="122" y="182" type="curve"/>
    </contour>
    <contour>
      <point x="192" y="361" type="line"/>
      <point x="439" y="351"/>
      <point x="520" y="430"/>
      <point x="520" y="533" type="curve" smooth="yes"/>
      <point x="520" y="629"/>
      <point x="449" y="720"/>
      <point x="286" y="720" type="curve" smooth="yes"/>
      <point x="155" y="720"/>
      <point x="80" y="665"/>
      <point x="42" y="628" type="curve"/>
      <point x="140" y="530" type="line"/>
      <point x="193" y="568"/>
      <point x="225" y="589"/>
      <point x="280" y="589" type="curve" smooth="yes"/>
      <point x="330" y="589"/>
      <point x="355" y="568"/>
      <point x="355" y="524" type="curve" smooth="yes"/>
      <point x="355" y="480"/>
      <point x="328" y="439"/>
      <point x="192" y="439" type="curve"/>
    </contour>
  </outline>
</glyph>
<glyph name="B" format="2">
  <advance width="634"/>
  <unicode hex="0042"/>
  <anchor x="308" y="719" name="top"/>
  <anchor x="328" y="-20" name="bottom"/>
  <outline>
    <contour>
      <point x="68" y="0" type="line"/>
      <point x="356" y="0" type="line" smooth="yes"/>
      <point x="518" y="0"/>
      <point x="604" y="98"/>
      <point x="604" y="206" type="curve" smooth="yes"/>
      <point x="604" y="329"/>
      <point x="494" y="372"/>
      <point x="365" y="372" type="curve"/>
      <point x="493" y="372"/>
      <point x="558" y="426"/>
      <point x="558" y="518" type="curve" smooth="yes"/>
      <point x="558" y="614"/>
      <point x="487" y="700"/>
      <point x="316" y="700" type="curve" smooth="yes"/>
      <point x="68" y="700" type="line"/>
    </contour>
    <contour>
      <point x="310" y="305" type="line" smooth="yes"/>
      <point x="397" y="305"/>
      <point x="437" y="282"/>
      <point x="437" y="219" type="curve" smooth="yes"/>
      <point x="437" y="159"/>
      <point x="401" y="130"/>
      <point x="325" y="130" type="curve" smooth="yes"/>
      <point x="234" y="130" type="line"/>
      <point x="234" y="570" type="line"/>
      <point x="288" y="570" type="line" smooth="yes"/>
      <point x="367" y="570"/>
      <point x="391" y="542"/>
      <point x="391" y="505" type="curve" smooth="yes"/>
      <point x="391" y="464"/>
      <point x="362" y="431"/>
      <point x="306" y="431" type="curve" smooth="yes"/>
      <point x="100" y="431" type="line"/>
      <point x="100" y="305" type="line"/>
    </contour>
  </outline>
</glyph>
<glyph name="D" format="2">
  <advance width="742"/>
  <unicode hex="0044"/>
  <anchor x="328" y="719" name="top"/>
  <anchor x="328" y="-20" name="bottom"/>
  <outline>
    <contour>
      <point x="233" y="130" type="line"/>
      <point x="233" y="570" type="line"/>
      <point x="329" y="570" type="line" smooth="yes"/>
      <point x="457" y="570"/>
      <point x="536" y="481"/>
      <point x="536" y="352" type="curve" smooth="yes"/>
      <point x="536" y="218"/>
      <point x="451" y="130"/>
      <point x="329" y="130" type="curve" smooth="yes"/>
    </contour>
    <contour>
      <point x="68" y="0" type="line"/>
      <point x="350" y="0" type="line" smooth="yes"/>
      <point x="561" y="0"/>
      <point x="704" y="141"/>
      <point x="704" y="350" type="curve" smooth="yes"/>
      <point x="704" y="558"/>
      <point x="560" y="700"/>
      <point x="350" y="700" type="curve" smooth="yes"/>
      <point x="68" y="700" type="line"/>
    </contour>
  </outline>
</glyph>
<glyph name="F" format="2">
  <advance width="510"/>
  <unicode hex="0046"/>
  <anchor x="260" y="719" name="top"/>
  <anchor x="271" y="-20" name="bottom"/>
  <outline>
    <contour>
      <point x="58" y="0" type="line"/>
      <point x="224" y="0" type="line" name="ab01"/>
      <point x="224" y="280" type="line" name="dv01"/>
      <point x="454" y="280" type="line"/>
      <point x="454" y="410" type="line"/>
      <point x="224" y="410" type="line" name="dv02"/>
      <point x="224" y="570" type="line" name="sv01"/>
      <point x="485" y="570" type="line"/>
      <point x="485" y="700" type="line" name="at01"/>
      <point x="58" y="700" type="line" name="dh01"/>
    </contour>
  </outline>
</glyph>
<glyph name="K" format="2">
  <advance width="670"/>
  <unicode hex="004B"/>
  <anchor x="335" y="-20" name="bottom"/>
  <anchor x="335" y="719" name="top"/>
  <outline>
    <contour>
      <point x="223" y="0" type="line"/>
      <point x="223" y="700" type="line" name="av02"/>
      <point x="57" y="700" type="line"/>
      <point x="57" y="0" type="line" name="av01"/>
    </contour>
    <contour>
      <point x="307" y="287" type="line"/>
      <point x="466" y="0" type="line"/>
      <point x="658" y="0" type="line"/>
      <point x="446" y="367" type="line"/>
      <point x="654" y="700" type="line"/>
      <point x="480" y="700" type="line"/>
      <point x="319" y="421" type="line"/>
      <point x="116" y="421" type="line"/>
      <point x="105" y="287" type="line"/>
    </contour>
  </outline>
</glyph>
<glyph name="N" format="2">
  <advance width="752"/>
  <unicode hex="004E"/>
  <anchor x="376" y="719" name="top"/>
  <anchor x="376" y="-20" name="bottom"/>
  <outline>
    <contour>
      <point x="233" y="0" type="line"/>
      <point x="233" y="439" type="line"/>
      <point x="529" y="0" type="line"/>
      <point x="685" y="0" type="line"/>
      <point x="685" y="700" type="line"/>
      <point x="519" y="700" type="line"/>
      <point x="519" y="261" type="line"/>
      <point x="223" y="700" type="line"/>
      <point x="67" y="700" type="line"/>
      <point x="67" y="0" type="line"/>
    </contour>
  </outline>
</glyph>
<glyph name="T" format="2">
  <advance width="648"/>
  <unicode hex="0054"/>
  <anchor x="324" y="719" name="top"/>
  <anchor x="324" y="-20" name="bottom"/>
  <outline>
    <contour>
      <point x="241" y="0" type="line"/>
      <point x="407" y="0" type="line"/>
      <point x="407" y="570" type="line"/>
      <point x="627" y="570" type="line"/>
      <point x="627" y="700" type="line"/>
      <point x="21" y="700" type="line"/>
      <point x="21" y="570" type="line"/>
      <point x="241" y="570" type="line"/>
    </contour>
  </outline>
</glyph>
<glyph name="bracketleft" format="2">
  <advance width="420"/>
  <unicode hex="005B"/>
  <outline>
    <contour>
      <point x="72" y="-217" type="line"/>
      <point x="387" y="-217" type="line"/>
      <point x="387" y="-117" type="line"/>
      <point x="222" y="-117" type="line"/>
      <point x="222" y="678" type="line"/>
      <point x="387" y="678" type="line"/>
      <point x="387" y="778" type="line"/>
      <point x="72" y="778" type="line"/>
    </contour>
  </outline>
</glyph>
<glyph name="bracketright" format="2">
  <advance width="418"/>
  <unicode hex="005D"/>
  <outline>
    <contour>
      <point x="35" y="-217" type="line"/>
      <point x="351" y="-217" type="line"/>
      <point x="351" y="778" type="line"/>
      <point x="35" y="778" type="line"/>
      <point x="35" y="678" type="line"/>
      <point x="199" y="678" type="line"/>
      <point x="199" y="-117" type="line"/>
      <point x="35" y="-117" type="line"/>
    </contour>
  </outline>
</glyph>
<glyph name="a" format="2">
  <advance width="606"/>
  <unicode hex="0061"/>
  <anchor x="300" y="520" name="top"/>
  <anchor x="294" y="-20" name="bottom"/>
  <anchor x="555" y="-3" name="ogonek"/>
  <outline>
    <contour>
      <point x="397" y="0" type="line" name="ab01"/>
      <point x="562" y="0" type="line" name="sh01"/>
      <point x="562" y="500" type="line" name="av01"/>
      <point x="397" y="500" type="line"/>
    </contour>
    <contour>
      <point x="235" y="-20" type="curve" smooth="yes" name="dv01"/>
      <point x="359" y="-20"/>
      <point x="433" y="90"/>
      <point x="433" y="257" type="curve" smooth="yes"/>
      <point x="433" y="421"/>
      <point x="361" y="520"/>
      <point x="232" y="520" type="curve" smooth="yes" name="at01"/>
      <point x="97" y="520"/>
      <point x="20" y="411"/>
      <point x="20" y="259" type="curve" smooth="yes"/>
      <point x="20" y="99"/>
      <point x="106" y="-20"/>
    </contour>
    <contour>
      <point x="294.517" y="106" type="curve" smooth="yes" name="dv02"/>
      <point x="231.218" y="106"/>
      <point x="185" y="168"/>
      <point x="185" y="256" type="curve" smooth="yes"/>
      <point x="185" y="341"/>
      <point x="227.199" y="393"/>
      <point x="290.498" y="393" type="curve" smooth="yes" name="sv01"/>
      <point x="355.806" y="393"/>
      <point x="397" y="337"/>
      <point x="397" y="251" type="curve" smooth="yes"/>
      <point x="397" y="166"/>
      <point x="356.81" y="106"/>
    </contour>
  </outline>
</glyph>
<glyph name="c" format="2">
  <advance width="563"/>
  <unicode hex="0063"/>
  <anchor x="303" y="520" name="top"/>
  <anchor x="303" y="-20" name="bottom"/>
  <outline>
    <contour>
      <point x="436" y="158" type="line"/>
      <point x="409" y="123"/>
      <point x="359" y="104"/>
      <point x="308" y="104" type="curve" smooth="yes"/>
      <point x="229" y="104"/>
      <point x="194" y="155"/>
      <point x="194" y="254" type="curve" smooth="yes"/>
      <point x="194" y="349"/>
      <point x="233" y="396"/>
      <point x="307" y="396" type="curve" smooth="yes"/>
      <point x="354" y="396"/>
      <point x="405" y="377"/>
      <point x="432" y="342" type="curve"/>
      <point x="517" y="427" type="line"/>
      <point x="467" y="488"/>
      <point x="392" y="520"/>
      <point x="293" y="520" type="curve" smooth="yes"/>
      <point x="140" y="520"/>
      <point x="29" y="429"/>
      <point x="29" y="255" type="curve" smooth="yes"/>
      <point x="29" y="89"/>
      <point x="130" y="-20"/>
      <point x="291" y="-20" type="curve" smooth="yes"/>
      <point x="393" y="-20"/>
      <point x="471" y="12"/>
      <point x="521" y="73" type="curve"/>
    </contour>
  </outline>
</glyph>
<glyph name="d" format="2">
  <advance width="635"/>
  <unicode hex="0064"/>
  <anchor x="295" y="-20" name="bottom"/>
  <anchor x="288" y="750" name="top"/>
  <anchor x="620" y="750" name="topright"/>
  <outline>
    <contour>
      <point x="416" y="0" type="line"/>
      <point x="581" y="0" type="line"/>
      <point x="581" y="750" type="line"/>
      <point x="416" y="750" type="line"/>
    </contour>
    <contour>
      <point x="268" y="-20" type="curve" smooth="yes"/>
      <point x="377" y="-20"/>
      <point x="448" y="90"/>
      <point x="448" y="255" type="curve" smooth="yes"/>
      <point x="448" y="421"/>
      <point x="379" y="520"/>
      <point x="262" y="520" type="curve" smooth="yes"/>
      <point x="123" y="520"/>
      <point x="49" y="411"/>
      <point x="49" y="255" type="curve" smooth="yes"/>
      <point x="49" y="99"/>
      <point x="132" y="-20"/>
    </contour>
    <contour>
      <point x="318.517" y="106" type="curve" smooth="yes"/>
      <point x="255.204" y="106"/>
      <point x="214" y="165"/>
      <point x="214" y="256" type="curve" smooth="yes"/>
      <point x="214" y="344"/>
      <point x="252.189" y="393"/>
      <point x="319.522" y="393" type="curve" smooth="yes"/>
      <point x="376.806" y="393"/>
      <point x="416" y="337"/>
      <point x="416" y="257" type="curve" smooth="yes"/>
      <point x="416" y="166"/>
      <point x="377.811" y="106"/>
    </contour>
  </outline>
</glyph>
<glyph name="e" format="2">
  <advance width="570"/>
  <unicode hex="0065"/>
  <anchor x="271" y="520" name="top"/>
  <anchor x="271" y="-20" name="bottom"/>
  <anchor x="397" y="-3" name="ogonek"/>
  <outline>
    <contour>
      <point x="193" y="316" type="line" name="sv02"/>
      <point x="199" y="366.041"/>
      <point x="235.09" y="397"/>
      <point x="290.829" y="397" type="curve" smooth="yes" name="sv01"/>
      <point x="340.513" y="397"/>
      <point x="382.965" y="372.043"/>
      <point x="388" y="316" type="curve" name="dv04"/>
    </contour>
    <contour>
      <point x="437" y="158" type="line"/>
      <point x="409.294" y="123"/>
      <point x="362.09" y="103"/>
      <point x="305.427" y="103" type="curve" smooth="yes" name="dv02"/>
      <point x="230.517" y="103"/>
      <point x="194.565" y="138"/>
      <point x="191" y="212" type="curve" name="sv04"/>
      <point x="553" y="212" type="line" name="dv03"/>
      <point x="573.595" y="407.026"/>
      <point x="466.306" y="520"/>
      <point x="287" y="520" type="curve" smooth="yes" name="at01"/>
      <point x="133.803" y="520"/>
      <point x="23" y="420"/>
      <point x="23" y="254" type="curve" smooth="yes" name="sv03"/>
      <point x="23" y="85"/>
      <point x="139.662" y="-20"/>
      <point x="304.361" y="-20" type="curve" smooth="yes" name="dv01"/>
      <point x="394.554" y="-20"/>
      <point x="472.982" y="12"/>
      <point x="522" y="73" type="curve"/>
    </contour>
  </outline>
</glyph>
<glyph name="k" format="2">
  <advance width="574"/>
  <unicode hex="006B"/>
  <anchor x="277" y="-20" name="bottom"/>
  <anchor x="126" y="750" name="top"/>
  <outline>
    <contour>
      <point x="45" y="0" type="line"/>
      <point x="210" y="0" type="line" name="ab02"/>
      <point x="210" y="750" type="line" name="ab01"/>
      <point x="45" y="750" type="line" name="sh01"/>
    </contour>
    <contour>
      <point x="100" y="199" type="line"/>
      <point x="286" y="199" type="line" name="iv01"/>
      <point x="379" y="0" type="line" name="ab02"/>
      <point x="567" y="0" type="line"/>
      <point x="426" y="265" type="line"/>
      <point x="551" y="500" type="line" name="av02"/>
      <point x="378" y="500" type="line"/>
      <point x="290" y="319" type="line" name="iv02"/>
      <point x="99" y="319" type="line"/>
    </contour>
  </outline>
</glyph>
<glyph name="n" format="2">
  <advance width="606"/>
  <unicode hex="006E"/>
  <anchor x="304" y="520" name="top"/>
  <anchor x="304" y="-20" name="bottom"/>
  <outline>
    <contour>
      <point x="396" y="0" type="line" name="ab01"/>
      <point x="561" y="0" type="line"/>
      <point x="561" y="304" type="line" smooth="yes"/>
      <point x="561" y="448"/>
      <point x="501.049" y="520"/>
      <point x="388.026" y="520" type="curve" smooth="yes" name="at01"/>
      <point x="280.9" y="520"/>
      <point x="218" y="428"/>
      <point x="201" y="350" type="curve"/>
      <point x="203" y="278" type="line"/>
      <point x="215" y="217" type="line" name="iv01"/>
      <point x="215" y="312"/>
      <point x="249.845" y="396"/>
      <point x="324.374" y="396" type="curve" smooth="yes" name="sv01"/>
      <point x="368.898" y="396"/>
      <point x="396" y="367"/>
      <point x="396" y="272" type="curve" smooth="yes"/>
    </contour>
    <contour>
      <point x="50" y="0" type="line" name="ab01"/>
      <point x="215" y="0" type="line" name="sh01"/>
      <point x="215" y="500" type="line" name="av01"/>
      <point x="50" y="500" type="line"/>
    </contour>
  </outline>
</glyph>
<glyph name="p" format="2">
  <advance width="635"/>
  <unicode hex="0070"/>
  <anchor x="371" y="-20" name="bottom"/>
  <anchor x="362" y="520" name="top"/>
  <outline>
    <contour>
      <point x="63" y="-200" type="line"/>
      <point x="228" y="-200" type="line"/>
      <point x="228" y="500" type="line"/>
      <point x="63" y="500" type="line"/>
    </contour>
    <contour>
      <point x="374" y="-20" type="curve" smooth="yes"/>
      <point x="511" y="-20"/>
      <point x="595" y="99"/>
      <point x="595" y="255" type="curve" smooth="yes"/>
      <point x="595" y="411"/>
      <point x="520" y="520"/>
      <point x="381" y="520" type="curve" smooth="yes"/>
      <point x="263" y="520"/>
      <point x="193" y="421"/>
      <point x="193" y="255" type="curve" smooth="yes"/>
      <point x="193" y="90"/>
      <point x="265" y="-20"/>
    </contour>
    <contour>
      <point x="325" y="106" type="curve" smooth="yes"/>
      <point x="266" y="106"/>
      <point x="228" y="166"/>
      <point x="228" y="257" type="curve" smooth="yes"/>
      <point x="228" y="337"/>
      <point x="267" y="393"/>
      <point x="324" y="393" type="curve" smooth="yes"/>
      <point x="392" y="393"/>
      <point x="430" y="341"/>
      <point x="430" y="256" type="curve" smooth="yes"/>
      <point x="430" y="164"/>
      <point x="390" y="106"/>
    </contour>
  </outline>
</glyph>
<glyph name="q" format="2">
  <advance width="635"/>
  <unicode hex="0071"/>
  <anchor x="290" y="-20" name="bottom"/>
  <anchor x="291" y="520" name="top"/>
  <outline>
    <contour>
      <point x="416" y="-200" type="line"/>
      <point x="581" y="-200" type="line"/>
      <point x="581" y="500" type="line"/>
      <point x="416" y="500" type="line"/>
    </contour>
    <contour>
      <point x="448" y="255" type="curve" smooth="yes"/>
      <point x="448" y="421"/>
      <point x="379.086" y="520"/>
      <point x="262.233" y="520" type="curve" smooth="yes"/>
      <point x="123.407" y="520"/>
      <point x="49.5" y="411"/>
      <point x="49.5" y="255" type="curve" smooth="yes"/>
      <point x="49.5" y="99"/>
      <point x="132.396" y="-20"/>
      <point x="268.226" y="-20" type="curve" smooth="yes"/>
      <point x="377.089" y="-20"/>
      <point x="448" y="90"/>
    </contour>
    <contour>
      <point x="214.5" y="256" type="curve" smooth="yes"/>
      <point x="214.5" y="346"/>
      <point x="250.59" y="393"/>
      <point x="319.761" y="393" type="curve" smooth="yes"/>
      <point x="376.903" y="393"/>
      <point x="416" y="337"/>
      <point x="416" y="257" type="curve" smooth="yes"/>
      <point x="416" y="166"/>
      <point x="377.905" y="106"/>
      <point x="318.759" y="106" type="curve" smooth="yes"/>
      <point x="252.595" y="106"/>
      <point x="214.5" y="161"/>
    </contour>
  </outline>
</glyph>
<glyph name="r" format="2">
  <advance width="422"/>
  <unicode hex="0072"/>
  <anchor x="235" y="520" name="top"/>
  <anchor x="142" y="-20" name="bottom"/>
  <outline>
    <contour>
      <point x="64" y="0" type="line"/>
      <point x="229" y="0" type="line"/>
      <point x="229" y="209" type="line" smooth="yes"/>
      <point x="229" y="338"/>
      <point x="288" y="397"/>
      <point x="405" y="397" type="curve"/>
      <point x="405" y="520" type="line"/>
      <point x="322" y="519"/>
      <point x="274" y="486"/>
      <point x="229" y="400" type="curve"/>
      <point x="229" y="500" type="line"/>
      <point x="64" y="500" type="line"/>
    </contour>
  </outline>
</glyph>
<glyph name="t" format="2">
  <advance width="365"/>
  <unicode hex="0074"/>
  <anchor x="175" y="630" name="top"/>
  <anchor x="220" y="-20" name="bottom"/>
  <anchor x="283" y="700" name="topright"/>
  <outline>
    <contour>
      <point x="19" y="377" type="line"/>
      <point x="348" y="377" type="line"/>
      <point x="348" y="500" type="line"/>
      <point x="19" y="500" type="line"/>
    </contour>
    <contour>
      <point x="339" y="121" type="line"/>
      <point x="321.526" y="111"/>
      <point x="302.961" y="105"/>
      <point x="288.763" y="105" type="curve" smooth="yes"/>
      <point x="262.553" y="105"/>
      <point x="256" y="127"/>
      <point x="256" y="191" type="curve" smooth="yes"/>
      <point x="256" y="620" type="line"/>
      <point x="91" y="620" type="line"/>
      <point x="91" y="132" type="line" smooth="yes"/>
      <point x="91" y="35"/>
      <point x="146.39" y="-21"/>
      <point x="257.169" y="-21" type="curve" smooth="yes"/>
      <point x="304.353" y="-21"/>
      <point x="329.996" y="-11"/>
      <point x="370" y="6" type="curve"/>
    </contour>
  </outline>
</glyph>
<glyph name="v" format="2">
  <advance width="550"/>
  <unicode hex="0076"/>
  <anchor x="275" y="520" name="top"/>
  <anchor x="275" y="-20" name="bottom"/>
  <outline>
    <contour>
      <point x="275" y="215" type="line"/>
      <point x="181" y="500" type="line"/>
      <point x="5" y="500" type="line"/>
      <point x="197" y="0" type="line"/>
      <point x="353" y="0" type="line"/>
      <point x="545" y="500" type="line"/>
      <point x="369" y="500" type="line"/>
    </contour>
  </outline>
</glyph>
<glyph name="x" format="2">
  <advance width="574"/>
  <unicode hex="0078"/>
  <anchor x="287" y="520" name="top"/>
  <anchor x="287" y="-20" name="bottom"/>
  <outline>
    <contour>
      <point x="22" y="0" type="line" name="ab01"/>
      <point x="203" y="0" type="line"/>
      <point x="287" y="170" type="line" name="iv01"/>
      <point x="371" y="0" type="line" name="ab02"/>
      <point x="554" y="0" type="line"/>
      <point x="402.491" y="261.985" type="line"/>
      <point x="392.497" y="236.012" type="line"/>
      <point x="545" y="500" type="line" name="av02"/>
      <point x="366" y="500" type="line"/>
      <point x="271.199" y="303.63" type="line" name="iv02"/>
      <point x="304.801" y="303.63" type="line"/>
      <point x="210" y="500" type="line"/>
      <point x="31" y="500" type="line" name="av01"/>
      <point x="183.503" y="236.012" type="line"/>
      <point x="173.509" y="261.985" type="line"/>
    </contour>
  </outline>
</glyph>
<glyph name="z" format="2">
  <advance width="473"/>
  <unicode hex="007A"/>
  <anchor x="241" y="520" name="top"/>
  <anchor x="241" y="-20" name="bottom"/>
  <outline>
    <contour>
      <point x="21" y="0" type="line" name="ab01"/>
      <point x="452" y="0" type="line"/>
      <point x="452" y="120" type="line" name="sv01"/>
      <point x="204" y="120" type="line"/>
      <point x="452" y="389.71" type="line"/>
      <point x="452" y="500" type="line"/>
      <point x="41" y="500" type="line" name="dv02"/>
      <point x="41" y="380" type="line" name="dv01"/>
      <point x="269" y="380" type="line"/>
      <point x="21" y="110.29" type="line"/>
    </contour>
  </outline>
</glyph>
<glyph name="braceright" format="2">
  <advance width="366"/>
  <unicode hex="007D"/>
  <outline>
    <contour>
      <point x="52" y="-336" type="line"/>
      <point x="188" y="-268.35"/>
      <point x="244" y="-174.229"/>
      <point x="244" y="-75.205" type="curve" smooth="yes"/>
      <point x="244" y="165" type="line" smooth="yes"/>
      <point x="244" y="236"/>
      <point x="302" y="272"/>
      <point x="344" y="282" type="curve"/>
      <point x="344" y="299" type="line"/>
      <point x="282" y="310"/>
      <point x="244" y="372"/>
      <point x="244" y="422" type="curve" smooth="yes"/>
      <point x="244" y="604.027" type="line" smooth="yes"/>
      <point x="244" y="700.154"/>
      <point x="188" y="803.439"/>
      <point x="52" y="874" type="curve"/>
      <point x="34" y="826" type="line"/>
      <point x="86" y="794.199"/>
      <point x="108" y="732.649"/>
      <point x="108" y="609.548" type="curve" smooth="yes"/>
      <point x="108" y="429" type="line" smooth="yes"/>
      <point x="108" y="365"/>
      <point x="130" y="315"/>
      <point x="224" y="289" type="curve"/>
      <point x="127" y="261"/>
      <point x="108" y="203"/>
      <point x="108" y="139" type="curve" smooth="yes"/>
      <point x="108" y="-82.805" type="line" smooth="yes"/>
      <point x="108" y="-202.014"/>
      <point x="86" y="-257.709"/>
      <point x="34" y="-288" type="curve"/>
    </contour>
  </outline>
</glyph>
<glyph name="yen" format="2">
  <advance width="662"/>
  <unicode hex="00A5"/>
  <outline>
    <contour>
      <point x="130" y="97" type="line"/>
      <point x="533" y="97" type="line"/>
      <point x="533" y="172" type="line"/>
      <point x="130" y="172" type="line"/>
    </contour>
    <contour>
      <point x="130" y="228" type="line"/>
      <point x="533" y="228" type="line"/>
      <point x="533" y="303" type="line"/>
      <point x="130" y="303" type="line"/>
    </contour>
    <contour>
      <point x="248" y="0" type="line"/>
      <point x="414" y="0" type="line"/>
      <point x="414" y="284" type="line"/>
      <point x="654" y="700" type="line"/>
      <point x="463" y="700" type="line"/>
      <point x="331" y="452" type="line"/>
      <point x="199" y="700" type="line"/>
      <point x="8" y="700" type="line"/>
      <point x="248" y="284" type="line"/>
    </contour>
  </outline>
</glyph>
<glyph name="ordfeminine" format="2">
  <advance width="549"/>
  <unicode hex="00AA"/>
  <outline>
    <contour>
      <point x="380" y="335" type="line"/>
      <point x="493" y="335" type="line"/>
      <point x="493" y="702" type="line"/>
      <point x="380" y="702" type="line"/>
    </contour>
    <contour>
      <point x="406" y="520" type="curve" smooth="yes"/>
      <point x="406" y="644"/>
      <point x="349.164" y="720"/>
      <point x="243.468" y="720" type="curve" smooth="yes"/>
      <point x="131.79" y="720"/>
      <point x="59" y="636"/>
      <point x="59" y="522" type="curve" smooth="yes"/>
      <point x="59" y="408"/>
      <point x="130.793" y="320"/>
      <point x="244.466" y="320" type="curve" smooth="yes"/>
      <point x="349.164" y="320"/>
      <point x="406" y="396"/>
    </contour>
    <contour>
      <point x="172" y="521" type="curve" smooth="yes"/>
      <point x="172" y="584"/>
      <point x="205.32" y="631"/>
      <point x="273.981" y="631" type="curve" smooth="yes"/>
      <point x="338.602" y="631"/>
      <point x="380" y="589"/>
      <point x="380" y="521" type="curve" smooth="yes"/>
      <point x="380" y="453"/>
      <point x="337.592" y="410"/>
      <point x="272.971" y="410" type="curve" smooth="yes"/>
      <point x="204.311" y="410"/>
      <point x="172" y="458"/>
    </contour>
  </outline>
</glyph>
<glyph name="threesuperior" format="2">
  <advance width="422"/>
  <unicode hex="00B3"/>
  <outline>
    <contour>
      <point x="33" y="406" type="line"/>
      <point x="75" y="361"/>
      <point x="133" y="337"/>
      <point x="213" y="337" type="curve" smooth="yes"/>
      <point x="336" y="337"/>
      <point x="382" y="394"/>
      <point x="382" y="467" type="curve" smooth="yes"/>
      <point x="382" y="561"/>
      <point x="307" y="610"/>
      <point x="146" y="610" type="curve"/>
      <point x="146" y="546" type="line"/>
      <point x="229" y="546"/>
      <point x="267" y="511"/>
      <point x="267" y="473" type="curve" smooth="yes"/>
      <point x="267" y="442"/>
      <point x="243" y="427"/>
      <point x="204" y="427" type="curve" smooth="yes"/>
      <point x="167" y="427"/>
      <point x="133" y="441"/>
      <point x="104" y="477" type="curve"/>
    </contour>
    <contour>
      <point x="146" y="574" type="line"/>
      <point x="312" y="574"/>
      <point x="367" y="640"/>
      <point x="367" y="707" type="curve" smooth="yes"/>
      <point x="367" y="774"/>
      <point x="312" y="835"/>
      <point x="207" y="835" type="curve" smooth="yes"/>
      <point x="133" y="835"/>
      <point x="75" y="804"/>
      <point x="51" y="779" type="curve"/>
      <point x="122" y="708" type="line"/>
      <point x="151" y="736"/>
      <point x="183" y="745"/>
      <point x="207" y="745" type="curve" smooth="yes"/>
      <point x="235" y="745"/>
      <point x="252" y="732"/>
      <point x="252" y="706" type="curve" smooth="yes"/>
      <point x="252" y="680"/>
      <point x="234" y="638"/>
      <point x="146" y="638" type="curve"/>
    </contour>
  </outline>
</glyph>
<glyph name="Thorn" format="2">
  <advance width="617"/>
  <unicode hex="00DE"/>
  <outline>
    <contour>
      <point x="140" y="147" type="line"/>
      <point x="306" y="147" type="line" smooth="yes"/>
      <point x="472" y="147"/>
      <point x="578" y="211"/>
      <point x="578" y="363" type="curve" smooth="yes"/>
      <point x="578" y="513"/>
      <point x="474" y="574"/>
      <point x="306" y="574" type="curve" smooth="yes"/>
      <point x="128" y="574" type="line"/>
      <point x="128" y="444" type="line"/>
      <point x="276" y="444" type="line" smooth="yes"/>
      <point x="384" y="444"/>
      <point x="411" y="413"/>
      <point x="411" y="365" type="curve" smooth="yes"/>
      <point x="411" y="316"/>
      <point x="384" y="277"/>
      <point x="276" y="277" type="curve" smooth="yes"/>
      <point x="140" y="277" type="line"/>
    </contour>
    <contour>
      <point x="68" y="0" type="line"/>
      <point x="234" y="0" type="line"/>
      <point x="234" y="700" type="line"/>
      <point x="68" y="700" type="line"/>
    </contour>
  </outline>
</glyph>
<glyph name="germandbls" format="2">
  <advance width="725"/>
  <unicode hex="00DF"/>
  <outline>
    <contour>
      <point x="476.5" y="396" type="curve" smooth="yes"/>
      <point x="476.5" y="302"/>
      <point x="687" y="314"/>
      <point x="687" y="154" type="curve" smooth="yes"/>
      <point x="687" y="45"/>
      <point x="589" y="-20"/>
      <point x="473" y="-20" type="curve" smooth="yes"/>
      <point x="380" y="-20"/>
      <point x="298" y="21"/>
      <point x="259" y="74" type="curve"/>
      <point x="352" y="167" type="line"/>
      <point x="386" y="123"/>
      <point x="423" y="103"/>
      <point x="460" y="103" type="curve" smooth="yes"/>
      <point x="495" y="103"/>
      <point x="527" y="120"/>
      <point x="527" y="151" type="curve" smooth="yes"/>
      <point x="527" y="231"/>
      <point x="311.5" y="254"/>
      <point x="311.5" y="379" type="curve" smooth="yes"/>
      <point x="311.5" y="466"/>
      <point x="414" y="488"/>
      <point x="414" y="562" type="curve" smooth="yes"/>
      <point x="414" y="603"/>
      <point x="383.162" y="626"/>
      <point x="335.414" y="626" type="curve" smooth="yes"/>
      <point x="260.806" y="626"/>
      <point x="224" y="569"/>
      <point x="224" y="471" type="curve" smooth="yes"/>
      <point x="224" y="0" type="line"/>
      <point x="59" y="0" type="line"/>
      <point x="59" y="545" type="line" smooth="yes"/>
      <point x="59" y="680"/>
      <point x="180.233" y="749"/>
      <point x="332.526" y="749" type="curve" smooth="yes"/>
      <point x="478.807" y="749"/>
      <point x="579" y="685"/>
      <point x="579" y="584" type="curve" smooth="yes"/>
      <point x="579" y="481"/>
      <point x="476.5" y="461"/>
    </contour>
  </outline>
</glyph>
<glyph name="eth" format="2">
  <advance width="578"/>
  <unicode hex="00F0"/>
  <outline>
    <contour>
      <point x="558" y="256.682" type="curve" smooth="yes"/>
      <point x="558" y="487.829"/>
      <point x="356.245" y="696.081"/>
      <point x="147" y="769" type="curve"/>
      <point x="100" y="666" type="line"/>
      <point x="186.96" y="627.351"/>
      <point x="366.78" y="531.291"/>
      <point x="392.465" y="417.911" type="curve"/>
      <point x="360.447" y="456.359"/>
      <point x="324.197" y="471"/>
      <point x="262.111" y="471" type="curve" smooth="yes"/>
      <point x="126" y="471"/>
      <point x="26" y="371"/>
      <point x="26" y="229" type="curve" smooth="yes"/>
      <point x="26" y="92"/>
      <point x="121.34" y="-20"/>
      <point x="292.953" y="-20" type="curve" smooth="yes"/>
      <point x="463.613" y="-20"/>
      <point x="558" y="98.276"/>
    </contour>
    <contour>
      <point x="290.228" y="104" type="curve" smooth="yes"/>
      <point x="224.667" y="104"/>
      <point x="191" y="148"/>
      <point x="191" y="221" type="curve" smooth="yes"/>
      <point x="191" y="302"/>
      <point x="232.64" y="348"/>
      <point x="297.316" y="348" type="curve" smooth="yes"/>
      <point x="358.447" y="348"/>
      <point x="393" y="306"/>
      <point x="393" y="229" type="curve" smooth="yes"/>
      <point x="393" y="148"/>
      <point x="354.904" y="104"/>
    </contour>
    <contour>
      <point x="264.035" y="622.346" type="line"/>
      <point x="106" y="567" type="line"/>
      <point x="132" y="496" type="line"/>
      <point x="303.71" y="577" type="line"/>
      <point x="473" y="637" type="line"/>
      <point x="447" y="708" type="line"/>
    </contour>
  </outline>
</glyph>
<glyph name="thorn" format="2">
  <advance width="635"/>
  <unicode hex="00FE"/>
  <outline>
    <contour>
      <point x="63" y="-200" type="line"/>
      <point x="228" y="-200" type="line"/>
      <point x="228" y="81.31" type="line"/>
      <point x="259.45" y="17.39"/>
      <point x="310.44" y="-20"/>
      <point x="374" y="-20" type="curve" smooth="yes"/>
      <point x="511" y="-20"/>
      <point x="595" y="99"/>
      <point x="595" y="255" type="curve" smooth="yes"/>
      <point x="595" y="411"/>
      <point x="520" y="520"/>
      <point x="381" y="520" type="curve" smooth="yes"/>
      <point x="312.26" y="520"/>
      <point x="259.81" y="486.4"/>
      <point x="228" y="425.53" type="curve"/>
      <point x="227.99" y="750" type="line"/>
      <point x="63.32" y="750" type="line"/>
    </contour>
    <contour>
      <point x="325" y="106" type="curve" smooth="yes"/>
      <point x="266" y="106"/>
      <point x="228" y="166"/>
      <point x="228" y="257" type="curve" smooth="yes"/>
      <point x="228" y="337"/>
      <point x="267" y="393"/>
      <point x="324" y="393" type="curve" smooth="yes"/>
      <point x="392" y="393"/>
      <point x="430" y="341"/>
      <point x="430" y="256" type="curve" smooth="yes"/>
      <point x="430" y="164"/>
      <point x="390" y="106"/>
    </contour>
  </outline>
</glyph>
<glyph name="Hbar" format="2">
  <advance width="737"/>
  <unicode hex="0126"/>
  <outline>
    <contour>
      <point x="68" y="0" type="line" name="ab01"/>
      <point x="233" y="0" type="line"/>
      <point x="233" y="305" type="line" name="dv01"/>
      <point x="505" y="305" type="line"/>
      <point x="505" y="0" type="line" name="ab02"/>
      <point x="670" y="0" type="line"/>
      <point x="670" y="700" type="line" name="at01"/>
      <point x="505" y="700" type="line"/>
      <point x="505" y="435" type="line"/>
      <point x="233" y="435" type="line" name="dv02"/>
      <point x="233" y="700" type="line" name="at02"/>
      <point x="68" y="700" type="line"/>
    </contour>
    <contour>
      <point x="0.27" y="514" type="line"/>
      <point x="737.266" y="514" type="line"/>
      <point x="737.266" y="548" type="line"/>
      <point x="0.27" y="548" type="line"/>
    </contour>
  </outline>
</glyph>
<glyph name="kgreenlandic" format="2">
  <advance width="594"/>
  <unicode hex="0138"/>
  <outline>
    <contour>
      <point x="64" y="0" type="line"/>
      <point x="64" y="500" type="line"/>
      <point x="229" y="500" type="line"/>
      <point x="229" y="0" type="line"/>
    </contour>
    <contour>
      <point x="323" y="318" type="line" name="iv02"/>
      <point x="408" y="500" type="line"/>
      <point x="571" y="500" type="line" name="av02"/>
      <point x="446" y="265" type="line"/>
      <point x="587" y="0" type="line"/>
      <point x="399" y="0" type="line" name="ab02"/>
      <point x="306" y="199" type="line" name="iv01"/>
      <point x="120" y="199" type="line"/>
      <point x="119" y="318" type="line"/>
    </contour>
  </outline>
</glyph>
<glyph name="eng" format="2">
  <advance width="635"/>
  <unicode hex="014B"/>
  <outline>
    <contour>
      <point x="212" y="278" type="line"/>
      <point x="224" y="217" type="line"/>
      <point x="224" y="312"/>
      <point x="260" y="396"/>
      <point x="337" y="396" type="curve" smooth="yes"/>
      <point x="383" y="396"/>
      <point x="411" y="367"/>
      <point x="411" y="272" type="curve" smooth="yes"/>
      <point x="411" y="0" type="line"/>
      <point x="576" y="0" type="line"/>
      <point x="576" y="304" type="line" smooth="yes"/>
      <point x="576" y="448"/>
      <point x="515" y="520"/>
      <point x="400" y="520" type="curve" smooth="yes"/>
      <point x="291" y="520"/>
      <point x="227" y="428"/>
      <point x="210" y="350" type="curve"/>
    </contour>
    <contour>
      <point x="59" y="0" type="line"/>
      <point x="224" y="0" type="line"/>
      <point x="224" y="500" type="line"/>
      <point x="59" y="500" type="line"/>
    </contour>
    <contour>
      <point x="576" y="234" type="line"/>
      <point x="411" y="234" type="line"/>
      <point x="411" y="-8" type="line" smooth="yes"/>
      <point x="411" y="-74"/>
      <point x="405" y="-96"/>
      <point x="366" y="-96" type="curve" smooth="yes"/>
      <point x="346" y="-96"/>
      <point x="330" y="-93"/>
      <point x="311" y="-84" type="curve"/>
      <point x="279" y="-198" type="line"/>
      <point x="326" y="-212"/>
      <point x="350" y="-221"/>
      <point x="418" y="-221" type="curve" smooth="yes"/>
      <point x="513" y="-221"/>
      <point x="576" y="-174"/>
      <point x="576" y="-68" type="curve" smooth="yes"/>
    </contour>
  </outline>
</glyph>
<glyph name="OE" format="2">
  <advance width="968"/>
  <unicode hex="0152"/>
  <anchor x="484" y="719" name="top"/>
  <anchor x="484" y="-20" name="bottom"/>
  <outline>
    <contour>
      <point x="485.17" y="130" type="line"/>
      <point x="413" y="130" type="line" smooth="yes"/>
      <point x="291" y="130"/>
      <point x="206" y="218"/>
      <point x="206" y="352" type="curve" smooth="yes"/>
      <point x="206" y="481"/>
      <point x="285" y="570"/>
      <point x="413" y="570" type="curve" smooth="yes"/>
      <point x="485.17" y="570" type="line"/>
    </contour>
    <contour>
      <point x="646.17" y="0" type="line"/>
      <point x="646.17" y="700" type="line"/>
      <point x="392" y="700" type="line" smooth="yes"/>
      <point x="182" y="700"/>
      <point x="38" y="558"/>
      <point x="38" y="350" type="curve" smooth="yes"/>
      <point x="38" y="141"/>
      <point x="181" y="0"/>
      <point x="392" y="0" type="curve" smooth="yes"/>
    </contour>
    <contour>
      <point x="491.17" y="0" type="line"/>
      <point x="922.17" y="0" type="line"/>
      <point x="922.17" y="130" type="line"/>
      <point x="651.17" y="130" type="line"/>
      <point x="651.17" y="300" type="line"/>
      <point x="882.17" y="300" type="line"/>
      <point x="882.17" y="430" type="line"/>
      <point x="651.17" y="430" type="line"/>
      <point x="651.17" y="570" type="line"/>
      <point x="907.17" y="570" type="line"/>
      <point x="907.17" y="700" type="line"/>
      <point x="491.17" y="700" type="line"/>
    </contour>
  </outline>
</glyph>
<glyph name="oe" format="2">
  <advance width="957"/>
  <unicode hex="0153"/>
  <anchor x="479" y="520" name="top"/>
  <anchor x="479" y="-20" name="bottom"/>
  <outline>
    <contour>
      <point x="39.83" y="255" type="curve" smooth="yes"/>
      <point x="39.83" y="89"/>
      <point x="144.59" y="-20"/>
      <point x="300.76" y="-20" type="curve" smooth="yes"/>
      <point x="460.81" y="-20"/>
      <point x="561.69" y="80"/>
      <point x="561.69" y="255" type="curve" smooth="yes"/>
      <point x="561.69" y="431"/>
      <point x="456.93" y="520"/>
      <point x="300.76" y="520" type="curve" smooth="yes"/>
      <point x="152.35" y="520"/>
      <point x="39.83" y="429"/>
    </contour>
    <contour>
      <point x="401.64" y="252" type="curve" smooth="yes"/>
      <point x="401.64" y="156"/>
      <point x="364.78" y="103"/>
      <point x="297.85" y="103" type="curve" smooth="yes"/>
      <point x="233.83" y="103"/>
      <point x="199.88" y="155"/>
      <point x="199.88" y="254" type="curve" smooth="yes"/>
      <point x="199.88" y="349"/>
      <point x="232.86" y="396"/>
      <point x="298.82" y="396" type="curve" smooth="yes"/>
      <point x="366.72" y="396"/>
      <point x="401.64" y="347"/>
    </contour>
    <contour>
      <point x="568.06" y="332" type="line"/>
      <point x="573.88" y="367.896"/>
      <point x="610.74" y="397"/>
      <point x="667.667" y="397" type="curve" smooth="yes"/>
      <point x="718.41" y="397"/>
      <point x="761.767" y="373.875"/>
      <point x="766.91" y="332" type="curve"/>
    </contour>
    <contour>
      <point x="686.4" y="103" type="curve" smooth="yes"/>
      <point x="610.74" y="103"/>
      <point x="570" y="138"/>
      <point x="566.12" y="212" type="curve"/>
      <point x="929.87" y="212" type="line"/>
      <point x="941.117" y="404.026"/>
      <point x="842.867" y="520"/>
      <point x="668.94" y="520" type="curve" smooth="yes"/>
      <point x="514.71" y="520"/>
      <point x="403.16" y="420"/>
      <point x="403.16" y="254" type="curve" smooth="yes"/>
      <point x="403.16" y="85"/>
      <point x="518.59" y="-20"/>
      <point x="681.55" y="-20" type="curve" smooth="yes"/>
      <point x="770.79" y="-20"/>
      <point x="848.39" y="12"/>
      <point x="896.89" y="73" type="curve"/>
      <point x="814.44" y="158" type="line"/>
      <point x="788.25" y="123"/>
      <point x="743.63" y="103"/>
    </contour>
  </outline>
</glyph>
<glyph name="scedilla" format="2">
  <advance width="507"/>
  <unicode hex="015F"/>
  <anchor x="253" y="520" name="top"/>
  <anchor x="233" y="-218" name="bottom"/>
  <outline>
    <contour>
      <point x="28" y="73" type="line"/>
      <point x="76" y="14"/>
      <point x="153" y="-20"/>
      <point x="243" y="-20" type="curve" smooth="yes"/>
      <point x="367" y="-20"/>
      <point x="469" y="45"/>
      <point x="469" y="147" type="curve" smooth="yes"/>
      <point x="469" y="214"/>
      <point x="424" y="268"/>
      <point x="284" y="307" type="curve" smooth="yes"/>
      <point x="236" y="321"/>
      <point x="201" y="326"/>
      <point x="201" y="359" type="curve" smooth="yes"/>
      <point x="201" y="381"/>
      <point x="217" y="397"/>
      <point x="257" y="397" type="curve" smooth="yes"/>
      <point x="301" y="397"/>
      <point x="347" y="377"/>
      <point x="374" y="342" type="curve"/>
      <point x="459" y="427" type="line"/>
      <point x="411" y="486"/>
      <point x="334" y="520"/>
      <point x="237" y="520" type="curve" smooth="yes"/>
      <point x="121" y="520"/>
      <point x="36" y="450"/>
      <point x="36" y="357" type="curve" smooth="yes"/>
      <point x="36" y="283"/>
      <point x="91" y="224"/>
      <point x="219" y="198" type="curve" smooth="yes"/>
      <point x="253" y="191"/>
      <point x="304" y="184"/>
      <point x="304" y="148" type="curve" smooth="yes"/>
      <point x="304" y="122"/>
      <point x="276" y="103"/>
      <point x="232" y="103" type="curve" smooth="yes"/>
      <point x="186" y="103"/>
      <point x="140" y="123"/>
      <point x="113" y="158" type="curve"/>
    </contour>
    <contour>
      <point x="106" y="-205" type="line"/>
      <point x="128" y="-211"/>
      <point x="161" y="-218"/>
      <point x="208" y="-218" type="curve" smooth="yes"/>
      <point x="305" y="-218"/>
      <point x="357" y="-192"/>
      <point x="357" y="-133" type="curve" smooth="yes"/>
      <point x="357" y="-87"/>
      <point x="326" y="-64"/>
      <point x="256" y="-64" type="curve"/>
      <point x="303.224" y="19" type="line"/>
      <point x="210.224" y="19" type="line"/>
      <point x="145" y="-104" type="line"/>
      <point x="160" y="-102"/>
      <point x="178" y="-100"/>
      <point x="192" y="-100" type="curve" smooth="yes"/>
      <point x="225" y="-100"/>
      <point x="244" y="-111"/>
      <point x="244" y="-134" type="curve" smooth="yes"/>
      <point x="244" y="-155"/>
      <point x="228" y="-168"/>
      <point x="199" y="-168" type="curve" smooth="yes"/>
      <point x="181" y="-168"/>
      <point x="146" y="-163"/>
      <point x="126" y="-157" type="curve"/>
    </contour>
  </outline>
</glyph>
<glyph name="Schwa" format="2">
  <advance width="779"/>
  <unicode hex="018F"/>
  <anchor x="390" y="719" name="top"/>
  <anchor x="390" y="-20" name="bottom"/>
  <outline>
    <contour>
      <point x="594" y="288" type="line" name="dv05"/>
      <point x="595" y="412" type="line" name="dv06"/>
      <point x="42" y="412" type="line" name="sh04"/>
      <point x="40" y="397" name=".dv02"/>
      <point x="38" y="374"/>
      <point x="38" y="348" type="curve" smooth="yes" name="sh01"/>
      <point x="38" y="131"/>
      <point x="178" y="-20"/>
      <point x="390" y="-20" type="curve" smooth="yes" name="dv01"/>
      <point x="593" y="-20"/>
      <point x="741" y="119"/>
      <point x="741" y="353" type="curve" smooth="yes" name="sh03"/>
      <point x="741" y="581"/>
      <point x="601" y="720"/>
      <point x="380" y="720" type="curve" smooth="yes"/>
      <point x="248" y="720"/>
      <point x="155" y="670"/>
      <point x="94" y="596" type="curve"/>
      <point x="189" y="501" type="line"/>
      <point x="238" y="559" name=".sh02"/>
      <point x="303" y="589"/>
      <point x="378" y="589" type="curve" smooth="yes"/>
      <point x="495" y="589" name=".dv01"/>
      <point x="574" y="517"/>
      <point x="574" y="350" type="curve" smooth="yes"/>
      <point x="574" y="198" name=".sh01"/>
      <point x="509" y="111"/>
      <point x="396" y="111" type="curve" smooth="yes" name="dv02"/>
      <point x="298" y="111" name=".sh03"/>
      <point x="220" y="176" name=".dv03"/>
      <point x="210" y="288" type="curve" name="sh02"/>
    </contour>
  </outline>
</glyph>
<glyph name="dotlessj" format="2">
  <advance width="290"/>
  <unicode hex="0237"/>
  <anchor x="161" y="520" name="top"/>
  <anchor x="100" y="-217" name="bottom"/>
  <outline>
    <contour>
      <point x="-36" y="-198" type="line"/>
      <point x="11" y="-212"/>
      <point x="33.08" y="-221"/>
      <point x="95.64" y="-221" type="curve" smooth="yes" name="dv01"/>
      <point x="183.04" y="-221"/>
      <point x="241" y="-174"/>
      <point x="241" y="-68" type="curve" smooth="yes"/>
      <point x="241" y="500" type="line"/>
      <point x="76" y="500" type="line" name="av01"/>
      <point x="76" y="-8" type="line" smooth="yes"/>
      <point x="76" y="-74"/>
      <point x="71.481" y="-96"/>
      <point x="42.111" y="-96" type="curve" smooth="yes" name="dv02"/>
      <point x="27.049" y="-96"/>
      <point x="17" y="-93"/>
      <point x="-2" y="-84" type="curve"/>
    </contour>
  </outline>
</glyph>
<glyph name="schwa" format="2">
  <advance width="613"/>
  <unicode hex="0259"/>
  <anchor x="306" y="520" name="top"/>
  <anchor x="306" y="-20" name="bottom"/>
  <outline>
    <contour>
      <point x="408" y="188" type="line"/>
      <point x="399" y="130"/>
      <point x="358" y="104"/>
      <point x="309" y="104" type="curve" smooth="yes"/>
      <point x="257" y="104"/>
      <point x="222" y="134"/>
      <point x="214" y="188" type="curve"/>
    </contour>
    <contour>
      <point x="53" y="304" type="line"/>
      <point x="51" y="290"/>
      <point x="49" y="278"/>
      <point x="49" y="255" type="curve" smooth="yes"/>
      <point x="49" y="90"/>
      <point x="154" y="-20"/>
      <point x="312" y="-20" type="curve" smooth="yes"/>
      <point x="471" y="-20"/>
      <point x="574" y="92"/>
      <point x="574" y="256" type="curve" smooth="yes"/>
      <point x="574" y="418"/>
      <point x="473" y="520"/>
      <point x="301" y="520" type="curve" smooth="yes"/>
      <point x="204" y="520"/>
      <point x="124" y="488"/>
      <point x="74" y="427" type="curve"/>
      <point x="159" y="342" type="line"/>
      <point x="186" y="377"/>
      <point x="232" y="397"/>
      <point x="283" y="397" type="curve" smooth="yes"/>
      <point x="345" y="397"/>
      <point x="401" y="367"/>
      <point x="410" y="304" type="curve"/>
    </contour>
  </outline>
</glyph>
<glyph name="dotaccent" format="2">
  <advance width="211"/>
  <unicode hex="02D9"/>
  <outline>
    <contour>
      <point x="20.769" y="609.957" type="curve" smooth="yes"/>
      <point x="20.769" y="572.618"/>
      <point x="50.449" y="527.62"/>
      <point x="106.936" y="527.62" type="curve" smooth="yes" name="dv01"/>
      <point x="161.509" y="527.62"/>
      <point x="190.231" y="568.789"/>
      <point x="190.231" y="610.915" type="curve" smooth="yes"/>
      <point x="190.231" y="652.084"/>
      <point x="161.509" y="690.38"/>
      <point x="107.894" y="690.38" type="curve" smooth="yes" name="dv02"/>
      <point x="50.449" y="690.38"/>
      <point x="20.769" y="647.297"/>
    </contour>
  </outline>
</glyph>
<glyph name="ogonek" format="2">
  <advance width="209"/>
  <unicode hex="02DB"/>
  <outline>
    <contour>
      <point x="208" y="-180" type="line"/>
      <point x="165" y="-166"/>
      <point x="144" y="-135"/>
      <point x="144" y="-101" type="curve" smooth="yes"/>
      <point x="144" y="-64"/>
      <point x="168" y="-21"/>
      <point x="207" y="3" type="curve"/>
      <point x="168" y="6" type="line"/>
      <point x="72" y="-11"/>
      <point x="24" y="-50"/>
      <point x="24" y="-103" type="curve" smooth="yes"/>
      <point x="24" y="-155"/>
      <point x="70" y="-193"/>
      <point x="144" y="-203" type="curve"/>
    </contour>
  </outline>
</glyph>
<glyph name="gravecomb" format="2">
  <advance width="297"/>
  <unicode hex="0300"/>
  <anchor x="148" y="700" name="top"/>
  <anchor x="178" y="500" name="_top"/>
  <outline>
    <contour>
      <point x="130" y="550" type="line"/>
      <point x="225" y="550" type="line"/>
      <point x="154" y="701" type="line"/>
      <point x="24" y="701" type="line"/>
    </contour>
  </outline>
</glyph>
<glyph name="brevecomb" format="2">
  <advance width="336"/>
  <unicode hex="0306"/>
  <anchor x="168" y="500" name="_top"/>
  <anchor x="168" y="680" name="top"/>
  <outline>
    <contour>
      <point x="24" y="702" type="line"/>
      <point x="33" y="608.47"/>
      <point x="84" y="551"/>
      <point x="165" y="551" type="curve" smooth="yes"/>
      <point x="249" y="551"/>
      <point x="306" y="612.978"/>
      <point x="315" y="702" type="curve"/>
      <point x="225" y="702" type="line"/>
      <point x="220" y="659.132"/>
      <point x="202" y="631"/>
      <point x="167" y="631" type="curve" smooth="yes"/>
      <point x="135" y="631"/>
      <point x="119" y="655.981"/>
      <point x="114" y="702" type="curve"/>
    </contour>
  </outline>
</glyph>
<glyph name="ringcomb" format="2">
  <advance width="270"/>
  <unicode hex="030A"/>
  <anchor x="135" y="723" name="top"/>
  <anchor x="135" y="500" name="_top"/>
  <outline>
    <contour>
      <point x="27" y="618" type="curve" smooth="yes"/>
      <point x="27" y="681"/>
      <point x="70" y="723"/>
      <point x="135" y="723" type="curve" smooth="yes"/>
      <point x="200" y="723"/>
      <point x="243" y="681"/>
      <point x="243" y="618" type="curve" smooth="yes"/>
      <point x="243" y="554"/>
      <point x="200" y="513"/>
      <point x="135" y="513" type="curve" smooth="yes"/>
      <point x="70" y="513"/>
      <point x="27" y="554"/>
    </contour>
    <contour>
      <point x="135" y="572" type="curve" smooth="yes"/>
      <point x="162" y="572"/>
      <point x="180" y="590"/>
      <point x="180" y="618" type="curve" smooth="yes"/>
      <point x="180" y="646"/>
      <point x="162" y="664"/>
      <point x="135" y="664" type="curve" smooth="yes"/>
      <point x="108" y="664"/>
      <point x="90" y="646"/>
      <point x="90" y="618" type="curve" smooth="yes"/>
      <point x="90" y="589"/>
      <point x="108" y="572"/>
    </contour>
  </outline>
</glyph>
<glyph name="caroncomb" format="2">
  <advance width="346"/>
  <unicode hex="030C"/>
  <anchor x="173" y="702" name="top"/>
  <anchor x="173" y="500" name="_top"/>
  <outline>
    <contour>
      <point x="119" y="550" type="line"/>
      <point x="228" y="550" type="line"/>
      <point x="330" y="701" type="line"/>
      <point x="222" y="701" type="line"/>
      <point x="173" y="613" type="line"/>
      <point x="125" y="701" type="line"/>
      <point x="17" y="701" type="line"/>
    </contour>
  </outline>
</glyph>
<glyph name="numeral-greek" format="2">
  <advance width="243"/>
  <unicode hex="0374"/>
  <outline>
    <contour>
      <point x="14" y="498" type="line"/>
      <point x="149" y="498" type="line"/>
      <point x="228" y="715" type="line"/>
      <point x="135" y="715" type="line"/>
    </contour>
  </outline>
</glyph>
<glyph name="lownumeralsign" format="2">
  <advance width="241"/>
  <unicode hex="0375"/>
  <outline>
    <contour>
      <point x="13" y="-149" type="line"/>
      <point x="148" y="-149" type="line"/>
      <point x="227" y="68" type="line"/>
      <point x="134" y="68" type="line"/>
    </contour>
  </outline>
</glyph>
<glyph name="questiongreek" format="2">
  <advance width="277"/>
  <unicode hex="037E"/>
  <outline>
    <component base="period" xOffset="7" yOffset="381"/>
    <contour>
      <point x="-18" y="-149" type="line"/>
      <point x="113" y="-149" type="line"/>
      <point x="185" y="119" type="line"/>
      <point x="91" y="119" type="line"/>
    </contour>
  </outline>
</glyph>
<glyph name="Xi" format="2">
  <advance width="593"/>
  <unicode hex="039E"/>
  <outline>
    <contour>
      <point x="55" y="570" type="line"/>
      <point x="548" y="570" type="line"/>
      <point x="548" y="700" type="line"/>
      <point x="55" y="700" type="line"/>
    </contour>
    <contour>
      <point x="55" y="130" type="line"/>
      <point x="55" y="0" type="line"/>
      <point x="548" y="0" type="line"/>
      <point x="548" y="130" type="line"/>
    </contour>
    <contour>
      <point x="493" y="286" type="line"/>
      <point x="493" y="412" type="line"/>
      <point x="111" y="412" type="line"/>
      <point x="111" y="286" type="line"/>
    </contour>
  </outline>
</glyph>
<glyph name="Sigma" format="2">
  <advance width="570"/>
  <unicode hex="03A3"/>
  <outline>
    <contour>
      <point x="31" y="0" type="line"/>
      <point x="524" y="0" type="line"/>
      <point x="524" y="130" type="line"/>
      <point x="265" y="130" type="line"/>
      <point x="463" y="350" type="line"/>
      <point x="265" y="570" type="line"/>
      <point x="524" y="570" type="line"/>
      <point x="524" y="700" type="line"/>
      <point x="31" y="700" type="line"/>
      <point x="31" y="602" type="line"/>
      <point x="258" y="350" type="line"/>
      <point x="31" y="98" type="line"/>
    </contour>
  </outline>
</glyph>
<glyph name="Psi" format="2">
  <advance width="883"/>
  <unicode hex="03A8"/>
  <anchor x="442" y="720" name="topgr"/>
  <outline>
    <contour>
      <point x="359" y="0" type="line"/>
      <point x="523" y="0" type="line"/>
      <point x="523" y="700" type="line"/>
      <point x="359" y="700" type="line"/>
    </contour>
    <contour>
      <point x="60" y="701" type="line"/>
      <point x="60" y="432" type="line" smooth="yes"/>
      <point x="60" y="262"/>
      <point x="207" y="159"/>
      <point x="441" y="159" type="curve" smooth="yes"/>
      <point x="675" y="159"/>
      <point x="823" y="261"/>
      <point x="823" y="432" type="curve" smooth="yes"/>
      <point x="823" y="701" type="line"/>
      <point x="657" y="701" type="line"/>
      <point x="657" y="437" type="line" smooth="yes"/>
      <point x="657" y="331"/>
      <point x="591" y="289"/>
      <point x="444" y="289" type="curve" smooth="yes"/>
      <point x="296" y="289"/>
      <point x="226" y="333"/>
      <point x="226" y="437" type="curve" smooth="yes"/>
      <point x="226" y="701" type="line"/>
    </contour>
  </outline>
</glyph>
<glyph name="alpha" format="2">
  <advance width="673"/>
  <unicode hex="03B1"/>
  <anchor x="310" y="520" name="topgr"/>
  <outline>
    <contour>
      <point x="454" y="0" type="line"/>
      <point x="454" y="73.6891"/>
      <point x="453.006" y="193.778"/>
      <point x="425.45" y="282.42" type="curve" smooth="yes"/>
      <point x="405.14" y="347.751"/>
      <point x="370.403" y="396"/>
      <point x="311" y="396" type="curve" smooth="yes"/>
      <point x="250" y="396"/>
      <point x="215" y="346"/>
      <point x="215" y="253" type="curve" smooth="yes"/>
      <point x="215" y="159"/>
      <point x="251" y="104"/>
      <point x="315" y="104" type="curve" smooth="yes"/>
      <point x="393.993" y="104"/>
      <point x="427.779" y="189.64"/>
      <point x="442.224" y="287.091" type="curve" smooth="yes"/>
      <point x="453.38" y="362.352"/>
      <point x="453" y="444.658"/>
      <point x="453" y="500" type="curve"/>
      <point x="619" y="500" type="line"/>
      <point x="619" y="432.4"/>
      <point x="607.391" y="362.168"/>
      <point x="586.263" y="296" type="curve" smooth="yes"/>
      <point x="531.441" y="124.319"/>
      <point x="412.527" y="-20"/>
      <point x="266" y="-20" type="curve" smooth="yes"/>
      <point x="143" y="-20"/>
      <point x="49" y="81"/>
      <point x="49" y="254" type="curve" smooth="yes"/>
      <point x="49" y="417"/>
      <point x="133" y="520"/>
      <point x="266" y="520" type="curve" smooth="yes"/>
      <point x="393.235" y="520"/>
      <point x="493.503" y="425.092"/>
      <point x="554.162" y="296" type="curve" smooth="yes"/>
      <point x="596.004" y="206.955"/>
      <point x="619" y="101.644"/>
      <point x="619" y="0" type="curve"/>
    </contour>
  </outline>
</glyph>
<glyph name="gamma" format="2">
  <advance width="543"/>
  <unicode hex="03B3"/>
  <anchor x="272" y="520" name="topgr"/>
  <outline>
    <contour>
      <point x="189" y="-200" type="line"/>
      <point x="354" y="-200" type="line"/>
      <point x="354" y="80" type="line"/>
      <point x="341" y="-12" type="line"/>
      <point x="538" y="500" type="line"/>
      <point x="360" y="500" type="line"/>
      <point x="272" y="215" type="line"/>
      <point x="183" y="500" type="line"/>
      <point x="5" y="500" type="line"/>
      <point x="202" y="-12" type="line"/>
      <point x="189" y="80" type="line"/>
    </contour>
  </outline>
</glyph>
<glyph name="zeta" format="2">
  <advance width="560"/>
  <unicode hex="03B6"/>
  <anchor x="280" y="721" name="topgr"/>
  <outline>
    <contour>
      <point x="325" y="-200" type="line"/>
      <point x="350" y="-166"/>
      <point x="371" y="-143"/>
      <point x="371" y="-97" type="curve" smooth="yes"/>
      <point x="371" y="-50"/>
      <point x="352.106" y="-20"/>
      <point x="270.232" y="-20" type="curve" smooth="yes"/>
      <point x="127.477" y="-20"/>
      <point x="54" y="78"/>
      <point x="54" y="213" type="curve" smooth="yes"/>
      <point x="54" y="349"/>
      <point x="122" y="451"/>
      <point x="319" y="577" type="curve"/>
      <point x="39" y="577" type="line"/>
      <point x="39" y="700" type="line"/>
      <point x="502" y="700" type="line"/>
      <point x="502" y="587" type="line"/>
      <point x="280" y="422"/>
      <point x="219" y="343"/>
      <point x="219" y="224" type="curve" smooth="yes"/>
      <point x="219" y="145"/>
      <point x="245" y="103"/>
      <point x="338" y="103" type="curve" smooth="yes"/>
      <point x="443" y="103"/>
      <point x="521" y="26"/>
      <point x="521" y="-71" type="curve" smooth="yes"/>
      <point x="521" y="-131"/>
      <point x="493.133" y="-175"/>
      <point x="472.697" y="-200" type="curve"/>
    </contour>
  </outline>
</glyph>
<glyph name="rho" format="2">
  <advance width="600"/>
  <unicode hex="03C1"/>
  <anchor x="312" y="520" name="topgr"/>
  <outline>
    <contour>
      <point x="51" y="-200" type="line"/>
      <point x="216" y="-200" type="line"/>
      <point x="216" y="274" type="line"/>
      <point x="51" y="251" type="line"/>
    </contour>
    <contour>
      <point x="67" y="250" type="line"/>
      <point x="94" y="235"/>
      <point x="138" y="210"/>
      <point x="159" y="192" type="curve"/>
      <point x="151" y="84"/>
      <point x="202" y="-20"/>
      <point x="334" y="-20" type="curve" smooth="yes"/>
      <point x="478" y="-20"/>
      <point x="577" y="104"/>
      <point x="577" y="262" type="curve" smooth="yes"/>
      <point x="577" y="414"/>
      <point x="486" y="520"/>
      <point x="316" y="520" type="curve" smooth="yes"/>
      <point x="142" y="520"/>
      <point x="51" y="410"/>
      <point x="51" y="247" type="curve"/>
    </contour>
    <contour>
      <point x="313" y="103" type="curve" smooth="yes"/>
      <point x="249" y="103"/>
      <point x="216" y="158"/>
      <point x="216" y="249" type="curve" smooth="yes"/>
      <point x="216" y="344"/>
      <point x="252" y="397"/>
      <point x="315" y="397" type="curve" smooth="yes"/>
      <point x="377" y="397"/>
      <point x="412" y="346"/>
      <point x="412" y="253" type="curve" smooth="yes"/>
      <point x="412" y="158"/>
      <point x="376" y="103"/>
    </contour>
  </outline>
</glyph>
<glyph name="sigmafinal" format="2">
  <advance width="590"/>
  <unicode hex="03C2"/>
  <anchor x="295" y="520" name="topgr"/>
  <outline>
    <contour>
      <point x="317" y="397" type="curve" smooth="yes"/>
      <point x="241" y="397"/>
      <point x="194" y="354"/>
      <point x="194" y="248" type="curve" smooth="yes"/>
      <point x="194" y="154"/>
      <point x="231" y="103"/>
      <point x="338" y="103" type="curve" smooth="yes"/>
      <point x="472" y="103"/>
      <point x="548" y="24"/>
      <point x="548" y="-71" type="curve" smooth="yes"/>
      <point x="548" y="-131"/>
      <point x="520.133" y="-175"/>
      <point x="499.697" y="-200" type="curve"/>
      <point x="352" y="-200" type="line"/>
      <point x="377" y="-166"/>
      <point x="398" y="-143"/>
      <point x="398" y="-97" type="curve" smooth="yes"/>
      <point x="398" y="-50"/>
      <point x="376.11" y="-20"/>
      <point x="285.424" y="-20" type="curve" smooth="yes"/>
      <point x="90.5" y="-20"/>
      <point x="29" y="118"/>
      <point x="29" y="254" type="curve" smooth="yes"/>
      <point x="29" y="426"/>
      <point x="124" y="520"/>
      <point x="296" y="520" type="curve" smooth="yes"/>
      <point x="383" y="520"/>
      <point x="478" y="496"/>
      <point x="527" y="427" type="curve"/>
      <point x="442" y="342" type="line"/>
      <point x="415" y="377"/>
      <point x="369" y="397"/>
    </contour>
  </outline>
</glyph>
<glyph name="tau" format="2">
  <advance width="421"/>
  <unicode hex="03C4"/>
  <anchor x="210" y="520" name="topgr"/>
  <outline>
    <contour>
      <point x="24" y="376" type="line"/>
      <point x="390" y="376" type="line"/>
      <point x="390" y="500" type="line"/>
      <point x="24" y="500" type="line"/>
    </contour>
    <contour>
      <point x="349" y="120" type="line"/>
      <point x="312" y="120"/>
      <point x="293" y="125.079"/>
      <point x="293" y="177.407" type="curve" smooth="yes"/>
      <point x="293" y="500" type="line"/>
      <point x="128" y="500" type="line"/>
      <point x="128" y="153" type="line" smooth="yes"/>
      <point x="128" y="47"/>
      <point x="182" y="0"/>
      <point x="301" y="0" type="curve" smooth="yes"/>
      <point x="349" y="0" type="line"/>
    </contour>
  </outline>
</glyph>
<glyph name="upsilon" format="2">
  <advance width="608"/>
  <unicode hex="03C5"/>
  <anchor x="283" y="520" name="topgr"/>
  <outline>
    <contour>
      <point x="57" y="500" type="line"/>
      <point x="57" y="185" type="line" smooth="yes"/>
      <point x="57" y="57"/>
      <point x="155" y="-20"/>
      <point x="306" y="-20" type="curve" smooth="yes"/>
      <point x="480" y="-20"/>
      <point x="569" y="81"/>
      <point x="569" y="256" type="curve" smooth="yes"/>
      <point x="569" y="349"/>
      <point x="544" y="434"/>
      <point x="502" y="500" type="curve"/>
      <point x="343" y="500" type="line"/>
      <point x="378" y="430"/>
      <point x="404" y="355"/>
      <point x="404" y="249" type="curve" smooth="yes"/>
      <point x="404" y="150"/>
      <point x="381" y="103"/>
      <point x="311" y="103" type="curve" smooth="yes"/>
      <point x="249" y="103"/>
      <point x="222" y="141"/>
      <point x="222" y="237" type="curve" smooth="yes"/>
      <point x="222" y="500" type="line"/>
    </contour>
  </outline>
</glyph>
<glyph name="omega" format="2">
  <advance width="832"/>
  <unicode hex="03C9"/>
  <anchor x="416" y="520" name="topgr"/>
  <outline>
    <contour>
      <point x="333" y="361" type="line"/>
      <point x="333" y="206" type="line" smooth="yes"/>
      <point x="333" y="136"/>
      <point x="314" y="103"/>
      <point x="275" y="103" type="curve" smooth="yes"/>
      <point x="226" y="103"/>
      <point x="204" y="165"/>
      <point x="204" y="254" type="curve" smooth="yes"/>
      <point x="204" y="356"/>
      <point x="236" y="428"/>
      <point x="278" y="500" type="curve"/>
      <point x="107" y="500" type="line"/>
      <point x="62" y="422"/>
      <point x="39" y="342"/>
      <point x="39" y="257" type="curve" smooth="yes"/>
      <point x="39" y="87"/>
      <point x="128" y="-20"/>
      <point x="263" y="-20" type="curve" smooth="yes"/>
      <point x="335" y="-20"/>
      <point x="383" y="10"/>
      <point x="416" y="71" type="curve"/>
      <point x="449" y="10"/>
      <point x="497" y="-20"/>
      <point x="569" y="-20" type="curve" smooth="yes"/>
      <point x="704" y="-20"/>
      <point x="793" y="87"/>
      <point x="793" y="254" type="curve" smooth="yes"/>
      <point x="793" y="342"/>
      <point x="768" y="429"/>
      <point x="724" y="500" type="curve"/>
      <point x="554" y="500" type="line"/>
      <point x="597" y="431"/>
      <point x="628" y="356"/>
      <point x="628" y="253" type="curve" smooth="yes"/>
      <point x="628" y="165"/>
      <point x="607" y="103"/>
      <point x="557" y="103" type="curve" smooth="yes"/>
      <point x="521" y="103"/>
      <point x="498" y="129"/>
      <point x="498" y="206" type="curve" smooth="yes"/>
      <point x="498" y="361" type="line"/>
    </contour>
  </outline>
</glyph>
<glyph name="Kaisymbol" format="2">
  <advance width="670"/>
  <unicode hex="03CF"/>
  <outline>
    <contour>
      <point x="58" y="-125" type="line"/>
      <point x="115" y="-184"/>
      <point x="214" y="-221"/>
      <point x="338" y="-221" type="curve" smooth="yes"/>
      <point x="527" y="-221"/>
      <point x="659" y="-135"/>
      <point x="659" y="0" type="curve"/>
      <point x="547" y="17" type="line"/>
      <point x="467" y="0" type="line"/>
      <point x="467" y="-61"/>
      <point x="414" y="-91"/>
      <point x="308" y="-91" type="curve" smooth="yes"/>
      <point x="211" y="-91"/>
      <point x="125" y="-66"/>
      <point x="58" y="-10" type="curve"/>
    </contour>
    <contour>
      <point x="58" y="0" type="line" name="av01"/>
      <point x="224" y="0" type="line"/>
      <point x="224" y="700" type="line" name="av02"/>
      <point x="58" y="700" type="line"/>
    </contour>
    <contour>
      <point x="106" y="287" type="line"/>
      <point x="308" y="287" type="line"/>
      <point x="467" y="0" type="line"/>
      <point x="659" y="0" type="line"/>
      <point x="447" y="367" type="line"/>
      <point x="655" y="700" type="line"/>
      <point x="481" y="700" type="line"/>
      <point x="320" y="421" type="line"/>
      <point x="117" y="421" type="line"/>
    </contour>
  </outline>
</glyph>
<glyph name="kaisymbol" format="2">
  <advance width="594"/>
  <unicode hex="03D7"/>
  <outline>
    <contour>
      <point x="64" y="0" type="line"/>
      <point x="229" y="0" type="line"/>
      <point x="229" y="500" type="line"/>
      <point x="64" y="500" type="line"/>
    </contour>
    <contour>
      <point x="120" y="199" type="line"/>
      <point x="306" y="199" type="line" name="iv01"/>
      <point x="399" y="0" type="line" name="ab02"/>
      <point x="587" y="0" type="line"/>
      <point x="446" y="265" type="line"/>
      <point x="571" y="500" type="line" name="av02"/>
      <point x="408" y="500" type="line"/>
      <point x="323" y="318" type="line" name="iv02"/>
      <point x="119" y="318" type="line"/>
    </contour>
    <contour>
      <point x="225" y="-203" type="line"/>
      <point x="436" y="-203"/>
      <point x="587" y="-143"/>
      <point x="587" y="0" type="curve"/>
      <point x="399" y="1" type="line"/>
      <point x="399" y="-63"/>
      <point x="344" y="-81"/>
      <point x="225" y="-81" type="curve"/>
    </contour>
  </outline>
</glyph>
<glyph name="Ljecyr" format="2">
  <advance width="1014"/>
  <unicode hex="0409"/>
  <outline>
    <contour>
      <point x="157" y="-20" type="curve" smooth="yes"/>
      <point x="316" y="-20"/>
      <point x="345" y="67"/>
      <point x="345" y="570" type="curve"/>
      <point x="497" y="570" type="line"/>
      <point x="497" y="0" type="line"/>
      <point x="663" y="0" type="line"/>
      <point x="663" y="700" type="line"/>
      <point x="180" y="700" type="line"/>
      <point x="180" y="244"/>
      <point x="178" y="113"/>
      <point x="113" y="113" type="curve" smooth="yes"/>
      <point x="102" y="113"/>
      <point x="93" y="117"/>
      <point x="59" y="140" type="curve"/>
      <point x="31" y="9" type="line"/>
      <point x="72" y="-9"/>
      <point x="100" y="-20"/>
    </contour>
    <contour>
      <point x="539" y="0" type="line"/>
      <point x="725" y="0" type="line" smooth="yes"/>
      <point x="893" y="0"/>
      <point x="975" y="65"/>
      <point x="975" y="199" type="curve" smooth="yes"/>
      <point x="975" y="337"/>
      <point x="888" y="410"/>
      <point x="725" y="410" type="curve" smooth="yes"/>
      <point x="549" y="410" type="line"/>
      <point x="564" y="280" type="line"/>
      <point x="670" y="280" type="line" smooth="yes"/>
      <point x="775" y="280"/>
      <point x="809" y="264"/>
      <point x="809" y="201" type="curve" smooth="yes"/>
      <point x="809" y="145"/>
      <point x="782" y="130"/>
      <point x="670" y="130" type="curve" smooth="yes"/>
      <point x="620" y="130" type="line"/>
      <point x="538" y="3" type="line"/>
    </contour>
  </outline>
</glyph>
<glyph name="Njecyr" format="2">
  <advance width="990"/>
  <unicode hex="040A"/>
  <outline>
    <contour>
      <point x="68" y="0" type="line"/>
      <point x="234" y="0" type="line"/>
      <point x="234" y="320" type="line"/>
      <point x="472" y="320" type="line"/>
      <point x="472" y="0" type="line"/>
      <point x="638" y="0" type="line"/>
      <point x="638" y="700" type="line"/>
      <point x="472" y="700" type="line"/>
      <point x="472" y="450" type="line"/>
      <point x="234" y="450" type="line"/>
      <point x="234" y="700" type="line"/>
      <point x="68" y="700" type="line"/>
    </contour>
    <contour>
      <point x="505" y="0" type="line"/>
      <point x="702" y="0" type="line" smooth="yes"/>
      <point x="891" y="0"/>
      <point x="951" y="94.3373"/>
      <point x="951" y="222.289" type="curve" smooth="yes"/>
      <point x="951" y="350.241"/>
      <point x="891" y="450"/>
      <point x="702" y="450" type="curve" smooth="yes"/>
      <point x="506" y="450" type="line"/>
      <point x="521" y="320" type="line"/>
      <point x="633" y="320" type="line" smooth="yes"/>
      <point x="748" y="320"/>
      <point x="785" y="305.29"/>
      <point x="785" y="226.839" type="curve" smooth="yes"/>
      <point x="785" y="158.194"/>
      <point x="756" y="130"/>
      <point x="633" y="130" type="curve" smooth="yes"/>
      <point x="617" y="130" type="line"/>
    </contour>
  </outline>
</glyph>
<glyph name="Tshecyr" format="2">
  <advance width="752"/>
  <unicode hex="040B"/>
  <outline>
    <contour>
      <point x="162" y="0" type="line"/>
      <point x="328" y="0" type="line"/>
      <point x="328" y="570" type="line"/>
      <point x="562" y="570" type="line"/>
      <point x="562" y="700" type="line"/>
      <point x="21" y="700" type="line"/>
      <point x="21" y="570" type="line"/>
      <point x="162" y="570" type="line"/>
    </contour>
    <contour>
      <point x="328" y="211" type="line"/>
      <point x="328" y="303"/>
      <point x="369" y="353"/>
      <point x="444" y="353" type="curve" smooth="yes"/>
      <point x="493" y="353"/>
      <point x="527" y="332"/>
      <point x="527" y="265" type="curve" smooth="yes"/>
      <point x="527" y="0" type="line"/>
      <point x="693" y="0" type="line"/>
      <point x="693" y="271" type="line" smooth="yes"/>
      <point x="693" y="417"/>
      <point x="607" y="482"/>
      <point x="491" y="482" type="curve" smooth="yes"/>
      <point x="378" y="482"/>
      <point x="320" y="420"/>
      <point x="310" y="327" type="curve"/>
    </contour>
  </outline>
</glyph>
<glyph name="Dzhecyr" format="2">
  <advance width="683"/>
  <unicode hex="040F"/>
  <outline>
    <contour>
      <point x="67" y="0" type="line"/>
      <point x="275" y="0" type="line"/>
      <point x="287" y="-38"/>
      <point x="288" y="-119"/>
      <point x="277" y="-158" type="curve"/>
      <point x="412" y="-158" type="line"/>
      <point x="425" y="-105"/>
      <point x="424" y="-52"/>
      <point x="408" y="0" type="curve"/>
      <point x="616" y="0" type="line"/>
      <point x="616" y="700" type="line"/>
      <point x="450" y="700" type="line"/>
      <point x="450" y="131" type="line"/>
      <point x="233" y="131" type="line"/>
      <point x="233" y="700" type="line"/>
      <point x="67" y="700" type="line"/>
    </contour>
  </outline>
</glyph>
<glyph name="Gecyr" format="2">
  <advance width="544"/>
  <unicode hex="0413"/>
  <anchor x="272" y="719" name="top"/>
  <anchor x="283" y="-20" name="bottom"/>
  <outline>
    <contour>
      <point x="68" y="0" type="line"/>
      <point x="234" y="0" type="line"/>
      <point x="234" y="569" type="line"/>
      <point x="498" y="569" type="line"/>
      <point x="498" y="700" type="line"/>
      <point x="68" y="700" type="line"/>
    </contour>
  </outline>
</glyph>
<glyph name="Zecyr" format="2">
  <advance width="588"/>
  <unicode hex="0417"/>
  <anchor x="294" y="-20" name="bottom"/>
  <anchor x="294" y="719" name="top"/>
  <outline>
    <contour>
      <point x="359" y="516" type="curve" smooth="yes"/>
      <point x="359" y="452"/>
      <point x="315.632" y="434"/>
      <point x="241" y="424" type="curve"/>
      <point x="241" y="304" type="line"/>
      <point x="335.311" y="314"/>
      <point x="392.5" y="278"/>
      <point x="392.5" y="202" type="curve" smooth="yes"/>
      <point x="392.5" y="144"/>
      <point x="358.439" y="110"/>
      <point x="290.316" y="110" type="curve" smooth="yes"/>
      <point x="226.2" y="110"/>
      <point x="163.087" y="140"/>
      <point x="115" y="197" type="curve"/>
      <point x="20" y="102" type="line"/>
      <point x="89.9349" y="25"/>
      <point x="163.866" y="-20"/>
      <point x="280.757" y="-20" type="curve" smooth="yes"/>
      <point x="444.605" y="-20"/>
      <point x="557.5" y="68"/>
      <point x="557.5" y="197" type="curve" smooth="yes"/>
      <point x="557.5" y="293"/>
      <point x="495.661" y="355"/>
      <point x="366" y="371" type="curve"/>
      <point x="478.289" y="398"/>
      <point x="524" y="448"/>
      <point x="524" y="533" type="curve" smooth="yes"/>
      <point x="524" y="649"/>
      <point x="437.172" y="720"/>
      <point x="297.45" y="720" type="curve" smooth="yes"/>
      <point x="185.671" y="720"/>
      <point x="81.8772" y="675"/>
      <point x="20" y="599" type="curve"/>
      <point x="115" y="504" type="line"/>
      <point x="162.193" y="560"/>
      <point x="227.461" y="589"/>
      <point x="282.687" y="589" type="curve" smooth="yes"/>
      <point x="336.909" y="589"/>
      <point x="359" y="561"/>
    </contour>
  </outline>
</glyph>
<glyph name="Kacyr" format="2">
  <advance width="640"/>
  <unicode hex="041A"/>
  <anchor x="320" y="719" name="top"/>
  <anchor x="320" y="-20" name="bottom"/>
  <outline>
    <contour>
      <point x="58" y="700" type="line"/>
      <point x="58" y="0" type="line"/>
      <point x="223" y="0" type="line"/>
      <point x="223" y="700" type="line"/>
    </contour>
    <contour>
      <point x="184" y="310" type="line"/>
      <point x="388" y="310" type="line" smooth="yes"/>
      <point x="482" y="310"/>
      <point x="549" y="356"/>
      <point x="563" y="470" type="curve"/>
      <point x="585" y="700" type="line"/>
      <point x="420" y="700" type="line"/>
      <point x="406" y="551" type="line"/>
      <point x="398" y="466"/>
      <point x="378" y="440"/>
      <point x="320" y="440" type="curve" smooth="yes"/>
      <point x="184" y="440" type="line"/>
    </contour>
    <contour>
      <point x="335" y="329" type="line"/>
      <point x="455" y="0" type="line"/>
      <point x="629" y="0" type="line"/>
      <point x="503" y="346" type="line"/>
    </contour>
  </outline>
</glyph>
<glyph name="Elcyr" format="2">
  <advance width="760"/>
  <unicode hex="041B"/>
  <outline>
    <contour>
      <point x="31" y="9" type="line"/>
      <point x="72" y="-9"/>
      <point x="100" y="-20"/>
      <point x="157" y="-20" type="curve" smooth="yes"/>
      <point x="316" y="-20"/>
      <point x="345" y="67"/>
      <point x="345" y="570" type="curve"/>
      <point x="528" y="570" type="line"/>
      <point x="528" y="0" type="line"/>
      <point x="693" y="0" type="line"/>
      <point x="693" y="700" type="line"/>
      <point x="180" y="700" type="line"/>
      <point x="180" y="244"/>
      <point x="178" y="113"/>
      <point x="113" y="113" type="curve" smooth="yes"/>
      <point x="102" y="113"/>
      <point x="93" y="117"/>
      <point x="59" y="140" type="curve"/>
    </contour>
  </outline>
</glyph>
<glyph name="Pecyr" format="2">
  <advance width="680"/>
  <unicode hex="041F"/>
  <anchor x="340" y="-20" name="bottom"/>
  <anchor x="340" y="719" name="top"/>
  <outline>
    <contour>
      <point x="57" y="0" type="line"/>
      <point x="223" y="0" type="line"/>
      <point x="223" y="569" type="line"/>
      <point x="457" y="569" type="line"/>
      <point x="457" y="0" type="line"/>
      <point x="623" y="0" type="line"/>
      <point x="623" y="700" type="line"/>
      <point x="57" y="700" type="line"/>
    </contour>
  </outline>
</glyph>
<glyph name="Ucyr" format="2">
  <advance width="612"/>
  <unicode hex="0423"/>
  <anchor x="306" y="719" name="top"/>
  <anchor x="317" y="-20" name="bottom"/>
  <outline>
    <contour>
      <point x="81" y="-86" type="line"/>
      <point x="230" y="-86"/>
      <point x="315" y="-54"/>
      <point x="349" y="36" type="curve" smooth="yes"/>
      <point x="604" y="700" type="line"/>
      <point x="426" y="700" type="line"/>
      <point x="236" y="150" type="line" smooth="yes"/>
      <point x="212.037" y="80.633"/>
      <point x="167" y="44"/>
      <point x="81" y="44" type="curve"/>
    </contour>
    <contour>
      <point x="213" y="138" type="line"/>
      <point x="266" y="138" type="line"/>
      <point x="366" y="142" type="line"/>
      <point x="184" y="700" type="line"/>
      <point x="8" y="700" type="line"/>
    </contour>
  </outline>
</glyph>
<glyph name="Tsecyr" format="2">
  <advance width="760"/>
  <unicode hex="0426"/>
  <outline>
    <contour>
      <point x="67" y="0" type="line"/>
      <point x="543" y="0" type="line" smooth="yes"/>
      <point x="614" y="0"/>
      <point x="606" y="-42"/>
      <point x="606" y="-140" type="curve"/>
      <point x="739" y="-140" type="line"/>
      <point x="739" y="98"/>
      <point x="707" y="130"/>
      <point x="607" y="130" type="curve"/>
      <point x="607" y="701" type="line"/>
      <point x="441" y="701" type="line"/>
      <point x="441" y="130" type="line"/>
      <point x="233" y="130" type="line"/>
      <point x="233" y="701" type="line"/>
      <point x="67" y="701" type="line"/>
    </contour>
  </outline>
</glyph>
<glyph name="Shacyr" format="2">
  <advance width="970"/>
  <unicode hex="0428"/>
  <outline>
    <contour>
      <point x="67" y="0" type="line"/>
      <point x="903" y="0" type="line"/>
      <point x="903" y="700" type="line"/>
      <point x="737" y="700" type="line"/>
      <point x="737" y="130" type="line"/>
      <point x="568" y="130" type="line"/>
      <point x="568" y="700" type="line"/>
      <point x="402" y="700" type="line"/>
      <point x="402" y="130" type="line"/>
      <point x="233" y="130" type="line"/>
      <point x="233" y="700" type="line"/>
      <point x="67" y="700" type="line"/>
    </contour>
  </outline>
</glyph>
<glyph name="Shchacyr" format="2">
  <advance width="1060"/>
  <unicode hex="0429"/>
  <outline>
    <contour>
      <point x="843" y="0" type="line" smooth="yes"/>
      <point x="914" y="0"/>
      <point x="906" y="-42"/>
      <point x="906" y="-140" type="curve"/>
      <point x="1039" y="-140" type="line"/>
      <point x="1039" y="98"/>
      <point x="1005" y="130"/>
      <point x="905" y="130" type="curve"/>
      <point x="905" y="700" type="line"/>
      <point x="739" y="700" type="line"/>
      <point x="739" y="130" type="line"/>
      <point x="569" y="130" type="line"/>
      <point x="569" y="700" type="line"/>
      <point x="403" y="700" type="line"/>
      <point x="403" y="130" type="line"/>
      <point x="233" y="130" type="line"/>
      <point x="233" y="700" type="line"/>
      <point x="67" y="700" type="line"/>
      <point x="67" y="0" type="line"/>
    </contour>
  </outline>
</glyph>
<glyph name="Hardcyr" format="2">
  <advance width="735"/>
  <unicode hex="042A"/>
  <outline>
    <contour>
      <point x="21" y="569" type="line"/>
      <point x="194" y="569" type="line"/>
      <point x="227" y="694" type="line"/>
      <point x="227" y="700" type="line"/>
      <point x="21" y="700" type="line"/>
    </contour>
    <contour>
      <point x="169" y="0" type="line"/>
      <point x="445" y="0" type="line" smooth="yes"/>
      <point x="606" y="0"/>
      <point x="696" y="93"/>
      <point x="696" y="220" type="curve" smooth="yes"/>
      <point x="696" y="348"/>
      <point x="605" y="439"/>
      <point x="444" y="439" type="curve" smooth="yes"/>
      <point x="335" y="439" type="line"/>
      <point x="335" y="700" type="line"/>
      <point x="169" y="700" type="line"/>
    </contour>
    <contour>
      <point x="335" y="130" type="line"/>
      <point x="335" y="308" type="line"/>
      <point x="405" y="308" type="line" smooth="yes"/>
      <point x="488" y="308"/>
      <point x="530" y="290"/>
      <point x="530" y="224" type="curve" smooth="yes"/>
      <point x="530" y="157"/>
      <point x="488" y="130"/>
      <point x="405" y="130" type="curve" smooth="yes"/>
    </contour>
  </outline>
</glyph>
<glyph name="Ereversedcyr" format="2">
  <advance width="694"/>
  <unicode hex="042D"/>
  <anchor x="330" y="719" name="top"/>
  <outline>
    <contour>
      <point x="201" y="293" type="line"/>
      <point x="201" y="423" type="line"/>
      <point x="546" y="423" type="line"/>
      <point x="546" y="293" type="line"/>
    </contour>
    <contour>
      <point x="128" y="202" type="line"/>
      <point x="176.734" y="144"/>
      <point x="239.391" y="110"/>
      <point x="305.033" y="110" type="curve" smooth="yes"/>
      <point x="417.418" y="110"/>
      <point x="494" y="209"/>
      <point x="494" y="358" type="curve" smooth="yes"/>
      <point x="494" y="499"/>
      <point x="425.378" y="589"/>
      <point x="311.008" y="589" type="curve" smooth="yes"/>
      <point x="244.375" y="589"/>
      <point x="179.732" y="559"/>
      <point x="131" y="501" type="curve"/>
      <point x="36" y="596" type="line"/>
      <point x="97" y="670"/>
      <point x="190" y="720"/>
      <point x="314" y="720" type="curve" smooth="yes"/>
      <point x="527" y="720"/>
      <point x="662" y="573"/>
      <point x="662" y="360" type="curve" smooth="yes"/>
      <point x="662" y="139"/>
      <point x="517" y="-20"/>
      <point x="299" y="-20" type="curve" smooth="yes"/>
      <point x="179" y="-20"/>
      <point x="104" y="28"/>
      <point x="33" y="107" type="curve"/>
    </contour>
  </outline>
</glyph>
<glyph name="vecyr" format="2">
  <advance width="546"/>
  <unicode hex="0432"/>
  <anchor x="273" y="520" name="top"/>
  <anchor x="273" y="-20" name="bottom"/>
  <outline>
    <contour>
      <point x="53" y="0" type="line"/>
      <point x="291" y="0" type="line" smooth="yes"/>
      <point x="431" y="0"/>
      <point x="506" y="49"/>
      <point x="506" y="146" type="curve" smooth="yes"/>
      <point x="506" y="219"/>
      <point x="464" y="254"/>
      <point x="353" y="265" type="curve"/>
      <point x="441" y="283"/>
      <point x="474" y="314"/>
      <point x="474" y="379" type="curve" smooth="yes"/>
      <point x="474" y="465"/>
      <point x="417" y="500"/>
      <point x="281" y="500" type="curve" smooth="yes"/>
      <point x="53" y="500" type="line"/>
    </contour>
    <contour>
      <point x="218" y="120" type="line"/>
      <point x="218" y="380" type="line"/>
      <point x="261" y="380" type="line" smooth="yes"/>
      <point x="301" y="380"/>
      <point x="318" y="370.75"/>
      <point x="318" y="343" type="curve" smooth="yes"/>
      <point x="318" y="316.278"/>
      <point x="303" y="306"/>
      <point x="261" y="306" type="curve" smooth="yes"/>
      <point x="85" y="306" type="line"/>
      <point x="85" y="202" type="line"/>
      <point x="288" y="202" type="line" smooth="yes"/>
      <point x="323" y="202"/>
      <point x="350" y="194.825"/>
      <point x="350" y="163.05" type="curve" smooth="yes"/>
      <point x="350" y="130.25"/>
      <point x="320" y="120"/>
      <point x="288" y="120" type="curve" smooth="yes"/>
    </contour>
  </outline>
</glyph>
<glyph name="zhecyr" format="2">
  <advance width="800"/>
  <unicode hex="0436"/>
  <anchor x="398" y="-20" name="bottom"/>
  <anchor x="400" y="520" name="top"/>
  <outline>
    <contour>
      <point x="376" y="325" type="line"/>
      <point x="291" y="325" type="line" smooth="yes"/>
      <point x="237" y="325"/>
      <point x="223" y="342.197"/>
      <point x="217" y="393.786" type="curve"/>
      <point x="206" y="500" type="line"/>
      <point x="48" y="500" type="line"/>
      <point x="65" y="337" type="line"/>
      <point x="76" y="254"/>
      <point x="130" y="205"/>
      <point x="210" y="205" type="curve" smooth="yes"/>
      <point x="376" y="205" type="line"/>
    </contour>
    <contour>
      <point x="118" y="247" type="line"/>
      <point x="10" y="0" type="line"/>
      <point x="180" y="0" type="line"/>
      <point x="282" y="235" type="line"/>
    </contour>
    <contour>
      <point x="317" y="500" type="line"/>
      <point x="317" y="0" type="line"/>
      <point x="482" y="0" type="line"/>
      <point x="482" y="500" type="line"/>
    </contour>
    <contour>
      <point x="424" y="205" type="line"/>
      <point x="590" y="205" type="line" smooth="yes"/>
      <point x="670" y="205"/>
      <point x="724" y="254"/>
      <point x="735" y="337" type="curve"/>
      <point x="752" y="500" type="line"/>
      <point x="594" y="500" type="line"/>
      <point x="583" y="393.786" type="line"/>
      <point x="577" y="342.197"/>
      <point x="563" y="325"/>
      <point x="508" y="325" type="curve" smooth="yes"/>
      <point x="424" y="325" type="line"/>
    </contour>
    <contour>
      <point x="518" y="235" type="line"/>
      <point x="620" y="0" type="line"/>
      <point x="790" y="0" type="line"/>
      <point x="682" y="247" type="line"/>
    </contour>
  </outline>
</glyph>
<glyph name="zecyr" format="2">
  <advance width="515"/>
  <unicode hex="0437"/>
  <anchor x="250" y="520" name="top"/>
  <anchor x="280" y="-20" name="bottom"/>
  <outline>
    <contour>
      <point x="18" y="80" type="line"/>
      <point x="58" y="11"/>
      <point x="137" y="-20"/>
      <point x="234" y="-20" type="curve" smooth="yes"/>
      <point x="377" y="-20"/>
      <point x="475" y="48"/>
      <point x="475" y="151" type="curve" smooth="yes"/>
      <point x="475" y="228.806"/>
      <point x="415.022" y="275"/>
      <point x="314" y="275" type="curve"/>
      <point x="398.455" y="275"/>
      <point x="448" y="315.302"/>
      <point x="448" y="384" type="curve" smooth="yes"/>
      <point x="448" y="468"/>
      <point x="370" y="520"/>
      <point x="247" y="520" type="curve" smooth="yes"/>
      <point x="163" y="520"/>
      <point x="75" y="496"/>
      <point x="29" y="427" type="curve"/>
      <point x="119" y="337" type="line"/>
      <point x="150" y="378"/>
      <point x="188" y="397"/>
      <point x="235" y="397" type="curve" smooth="yes"/>
      <point x="269" y="397"/>
      <point x="285" y="387"/>
      <point x="285" y="362" type="curve" smooth="yes"/>
      <point x="285" y="329"/>
      <point x="257" y="320"/>
      <point x="179" y="315" type="curve"/>
      <point x="179" y="209" type="line"/>
      <point x="274" y="219"/>
      <point x="312" y="207"/>
      <point x="312" y="163" type="curve" smooth="yes"/>
      <point x="312" y="124"/>
      <point x="281" y="104"/>
      <point x="228" y="104" type="curve" smooth="yes"/>
      <point x="180" y="104"/>
      <point x="143" y="121"/>
      <point x="108" y="170" type="curve"/>
    </contour>
  </outline>
</glyph>
<glyph name="icyr" format="2">
  <advance width="609"/>
  <unicode hex="0438"/>
  <anchor x="305" y="520" name="top"/>
  <anchor x="305" y="-20" name="bottom"/>
  <outline>
    <contour>
      <point x="43" y="0" type="line"/>
      <point x="193" y="0" type="line"/>
      <point x="406" y="273" type="line"/>
      <point x="406" y="0" type="line"/>
      <point x="566" y="0" type="line"/>
      <point x="566" y="500" type="line"/>
      <point x="416" y="500" type="line"/>
      <point x="203" y="227" type="line"/>
      <point x="203" y="500" type="line"/>
      <point x="43" y="500" type="line"/>
    </contour>
  </outline>
</glyph>
<glyph name="kacyr" format="2">
  <advance width="588"/>
  <unicode hex="043A"/>
  <anchor x="288" y="520" name="top"/>
  <anchor x="288" y="-20" name="bottom"/>
  <outline>
    <contour>
      <point x="64" y="0" type="line" name="ab01"/>
      <point x="229" y="0" type="line"/>
      <point x="229" y="500" type="line"/>
      <point x="64" y="500" type="line" name="av01"/>
    </contour>
    <contour>
      <point x="215" y="205" type="line" name="dv01"/>
      <point x="381" y="205" type="line" smooth="yes"/>
      <point x="461" y="205"/>
      <point x="515" y="252"/>
      <point x="526" y="334" type="curve"/>
      <point x="543" y="500" type="line" name="av02"/>
      <point x="390" y="500" type="line"/>
      <point x="379" y="392.775" type="line" smooth="yes"/>
      <point x="373" y="342.197"/>
      <point x="359" y="325"/>
      <point x="303" y="325" type="curve" smooth="yes"/>
      <point x="215" y="325" type="line" name="dv02"/>
    </contour>
    <contour>
      <point x="411" y="0" type="line" name="ab02"/>
      <point x="581" y="0" type="line"/>
      <point x="473" y="247" type="line"/>
      <point x="309" y="235" type="line" name="iv01"/>
    </contour>
  </outline>
</glyph>
<glyph name="emcyr" format="2">
  <advance width="689"/>
  <unicode hex="043C"/>
  <outline>
    <contour>
      <point x="43" y="0" type="line"/>
      <point x="198" y="0" type="line"/>
      <point x="198" y="277" type="line"/>
      <point x="311" y="89" type="line"/>
      <point x="378" y="89" type="line"/>
      <point x="491" y="277" type="line"/>
      <point x="491" y="0" type="line"/>
      <point x="646" y="0" type="line"/>
      <point x="646" y="500" type="line"/>
      <point x="498" y="500" type="line"/>
      <point x="345" y="246" type="line"/>
      <point x="192" y="500" type="line"/>
      <point x="43" y="500" type="line"/>
    </contour>
  </outline>
</glyph>
<glyph name="encyr" format="2">
  <advance width="613"/>
  <unicode hex="043D"/>
  <anchor x="306" y="-20" name="bottom"/>
  <anchor x="306" y="520" name="top"/>
  <outline>
    <contour>
      <point x="53" y="0" type="line"/>
      <point x="218" y="0" type="line"/>
      <point x="218" y="209" type="line"/>
      <point x="395" y="209" type="line"/>
      <point x="395" y="0" type="line"/>
      <point x="560" y="0" type="line"/>
      <point x="560" y="500" type="line"/>
      <point x="395" y="500" type="line"/>
      <point x="395" y="329" type="line"/>
      <point x="218" y="329" type="line"/>
      <point x="218" y="500" type="line"/>
      <point x="53" y="500" type="line"/>
    </contour>
  </outline>
</glyph>
<glyph name="tecyr" format="2">
  <advance width="525"/>
  <unicode hex="0442"/>
  <anchor x="262" y="-20" name="bottom"/>
  <anchor x="263" y="520" name="top"/>
  <outline>
    <contour>
      <point x="180" y="0" type="line"/>
      <point x="345" y="0" type="line"/>
      <point x="345" y="380" type="line"/>
      <point x="503" y="380" type="line"/>
      <point x="503" y="500" type="line"/>
      <point x="22" y="500" type="line"/>
      <point x="22" y="380" type="line"/>
      <point x="180" y="380" type="line"/>
    </contour>
  </outline>
</glyph>
<glyph name="efcyr" format="2">
  <advance width="844"/>
  <unicode hex="0444"/>
  <outline>
    <contour>
      <point x="339" y="-200" type="line"/>
      <point x="504" y="-200" type="line"/>
      <point x="504" y="750" type="line"/>
      <point x="339" y="750" type="line"/>
    </contour>
    <contour>
      <point x="446" y="158" type="line"/>
      <point x="419" y="123"/>
      <point x="369" y="104"/>
      <point x="318" y="104" type="curve" smooth="yes"/>
      <point x="239" y="104"/>
      <point x="204" y="155"/>
      <point x="204" y="254" type="curve" smooth="yes"/>
      <point x="204" y="349"/>
      <point x="243" y="396"/>
      <point x="317" y="396" type="curve" smooth="yes"/>
      <point x="364" y="396"/>
      <point x="415" y="377"/>
      <point x="442" y="342" type="curve"/>
      <point x="527" y="427" type="line"/>
      <point x="477" y="488"/>
      <point x="402" y="520"/>
      <point x="303" y="520" type="curve" smooth="yes"/>
      <point x="150" y="520"/>
      <point x="39" y="429"/>
      <point x="39" y="255" type="curve" smooth="yes"/>
      <point x="39" y="89"/>
      <point x="140" y="-20"/>
      <point x="301" y="-20" type="curve" smooth="yes"/>
      <point x="403" y="-20"/>
      <point x="481" y="12"/>
      <point x="531" y="73" type="curve"/>
    </contour>
    <contour>
      <point x="313" y="73" type="line"/>
      <point x="363" y="12"/>
      <point x="441" y="-20"/>
      <point x="543" y="-20" type="curve" smooth="yes"/>
      <point x="704" y="-20"/>
      <point x="805" y="89"/>
      <point x="805" y="255" type="curve" smooth="yes"/>
      <point x="805" y="429"/>
      <point x="694" y="520"/>
      <point x="541" y="520" type="curve" smooth="yes"/>
      <point x="442" y="520"/>
      <point x="367" y="488"/>
      <point x="317" y="427" type="curve"/>
      <point x="402" y="342" type="line"/>
      <point x="429" y="377"/>
      <point x="480" y="396"/>
      <point x="527" y="396" type="curve" smooth="yes"/>
      <point x="601" y="396"/>
      <point x="640" y="349"/>
      <point x="640" y="254" type="curve" smooth="yes"/>
      <point x="640" y="155"/>
      <point x="605" y="104"/>
      <point x="526" y="104" type="curve" smooth="yes"/>
      <point x="475" y="104"/>
      <point x="425" y="123"/>
      <point x="398" y="158" type="curve"/>
    </contour>
  </outline>
</glyph>
<glyph name="checyr" format="2">
  <advance width="595"/>
  <unicode hex="0447"/>
  <anchor x="298" y="-20" name="bottom"/>
  <anchor x="298" y="520" name="top"/>
  <outline>
    <contour>
      <point x="377" y="0" type="line"/>
      <point x="542" y="0" type="line"/>
      <point x="542" y="500" type="line"/>
      <point x="377" y="500" type="line"/>
    </contour>
    <contour>
      <point x="57" y="500" type="line"/>
      <point x="57" y="340" type="line" smooth="yes"/>
      <point x="57" y="207"/>
      <point x="158" y="143"/>
      <point x="249.9" y="143" type="curve" smooth="yes"/>
      <point x="326" y="143"/>
      <point x="396" y="191"/>
      <point x="396" y="291" type="curve"/>
      <point x="377" y="359" type="line"/>
      <point x="377" y="291"/>
      <point x="331" y="267"/>
      <point x="284.572" y="267" type="curve" smooth="yes"/>
      <point x="241.212" y="267"/>
      <point x="222" y="287.933"/>
      <point x="222" y="340" type="curve" smooth="yes"/>
      <point x="222" y="500" type="line"/>
    </contour>
  </outline>
</glyph>
<glyph name="softcyr" format="2">
  <advance width="536"/>
  <unicode hex="044C"/>
  <anchor x="268" y="-20" name="bottom"/>
  <anchor x="268" y="520" name="top"/>
  <outline>
    <contour>
      <point x="53" y="0" type="line"/>
      <point x="302" y="0" type="line" smooth="yes"/>
      <point x="439" y="0"/>
      <point x="496" y="80.5263"/>
      <point x="496" y="170" type="curve" smooth="yes"/>
      <point x="496" y="259.474"/>
      <point x="436" y="340"/>
      <point x="301" y="340" type="curve" smooth="yes"/>
      <point x="104" y="340" type="line"/>
      <point x="104" y="220" type="line"/>
      <point x="252" y="220" type="line" smooth="yes"/>
      <point x="308" y="220"/>
      <point x="331" y="207.755"/>
      <point x="331" y="170" type="curve" smooth="yes"/>
      <point x="331" y="134.286"/>
      <point x="307" y="120"/>
      <point x="252" y="120" type="curve" smooth="yes"/>
      <point x="218" y="120" type="line"/>
      <point x="218" y="500" type="line"/>
      <point x="53" y="500" type="line"/>
    </contour>
  </outline>
</glyph>
<glyph name="yucyr" format="2">
  <advance width="877"/>
  <unicode hex="044E"/>
  <anchor x="438" y="-20" name="bottom"/>
  <anchor x="438" y="520" name="top"/>
  <outline>
    <contour>
      <point x="199" y="194" type="line"/>
      <point x="335" y="194" type="line"/>
      <point x="335" y="314" type="line"/>
      <point x="199" y="314" type="line"/>
    </contour>
    <contour>
      <point x="295" y="255" type="curve" smooth="yes"/>
      <point x="295" y="89"/>
      <point x="403" y="-20"/>
      <point x="564" y="-20" type="curve" smooth="yes"/>
      <point x="729" y="-20"/>
      <point x="833" y="80"/>
      <point x="833" y="255" type="curve" smooth="yes"/>
      <point x="833" y="431"/>
      <point x="725" y="520"/>
      <point x="564" y="520" type="curve" smooth="yes"/>
      <point x="411" y="520"/>
      <point x="295" y="429"/>
    </contour>
    <contour>
      <point x="668" y="252" type="curve" smooth="yes"/>
      <point x="668" y="156"/>
      <point x="630" y="103"/>
      <point x="561" y="103" type="curve" smooth="yes"/>
      <point x="495" y="103"/>
      <point x="460" y="155"/>
      <point x="460" y="254" type="curve" smooth="yes"/>
      <point x="460" y="349"/>
      <point x="494" y="396"/>
      <point x="562" y="396" type="curve" smooth="yes"/>
      <point x="632" y="396"/>
      <point x="668" y="347"/>
    </contour>
    <contour>
      <point x="224" y="0" type="line"/>
      <point x="224" y="500" type="line"/>
      <point x="59" y="500" type="line"/>
      <point x="59" y="0" type="line"/>
    </contour>
  </outline>
</glyph>
<glyph name="yacyr" format="2">
  <advance width="540"/>
  <unicode hex="044F"/>
  <anchor x="270" y="-20" name="bottom"/>
  <anchor x="270" y="520" name="top"/>
  <outline>
    <contour>
      <point x="15" y="0" type="line"/>
      <point x="188" y="0" type="line"/>
      <point x="270" y="162" type="line"/>
      <point x="332" y="162" type="line"/>
      <point x="332" y="0" type="line"/>
      <point x="497" y="0" type="line"/>
      <point x="497" y="500" type="line"/>
      <point x="239" y="500" type="line" smooth="yes"/>
      <point x="94" y="500"/>
      <point x="25" y="437"/>
      <point x="25" y="341" type="curve" smooth="yes"/>
      <point x="25" y="271"/>
      <point x="61" y="227"/>
      <point x="115" y="196" type="curve"/>
    </contour>
    <contour>
      <point x="332" y="278" type="line"/>
      <point x="258" y="278" type="line" smooth="yes"/>
      <point x="214" y="278"/>
      <point x="190" y="291.553"/>
      <point x="190" y="332.043" type="curve" smooth="yes"/>
      <point x="190" y="370.489"/>
      <point x="214" y="383"/>
      <point x="258" y="383" type="curve" smooth="yes"/>
      <point x="332" y="383" type="line"/>
    </contour>
  </outline>
</glyph>
<glyph name="njecyr" format="2">
  <advance width="830"/>
  <unicode hex="045A"/>
  <outline>
    <contour>
      <point x="218" y="0" type="line"/>
      <point x="218" y="199" type="line"/>
      <point x="359" y="199" type="line"/>
      <point x="359" y="0" type="line"/>
      <point x="524" y="0" type="line"/>
      <point x="524" y="500" type="line"/>
      <point x="359" y="500" type="line"/>
      <point x="359" y="321" type="line"/>
      <point x="218" y="321" type="line"/>
      <point x="218" y="500" type="line"/>
      <point x="53" y="500" type="line"/>
      <point x="53" y="0" type="line"/>
    </contour>
    <contour>
      <point x="449" y="321" type="line"/>
      <point x="449" y="199" type="line"/>
      <point x="570" y="199" type="line" smooth="yes"/>
      <point x="605" y="199"/>
      <point x="625" y="184.06"/>
      <point x="625" y="161.075" type="curve" smooth="yes"/>
      <point x="625" y="136.94"/>
      <point x="604" y="122"/>
      <point x="567" y="122" type="curve" smooth="yes"/>
      <point x="518" y="122" type="line"/>
      <point x="518" y="500" type="line"/>
      <point x="363" y="500" type="line"/>
      <point x="363" y="0" type="line"/>
      <point x="607" y="0" type="line" smooth="yes"/>
      <point x="727" y="0"/>
      <point x="790" y="54.7042"/>
      <point x="790" y="162.048" type="curve" smooth="yes"/>
      <point x="790" y="268.36"/>
      <point x="728" y="321"/>
      <point x="606" y="321" type="curve" smooth="yes"/>
    </contour>
  </outline>
</glyph>
<glyph name="tshecyr" format="2">
  <advance width="665"/>
  <unicode hex="045B"/>
  <outline>
    <contour>
      <point x="89" y="0" type="line" name="ab03"/>
      <point x="254" y="0" type="line"/>
      <point x="254" y="197" type="line" smooth="yes" name="iv01"/>
      <point x="254" y="292"/>
      <point x="290" y="376"/>
      <point x="367" y="376" type="curve" smooth="yes" name="sv01"/>
      <point x="413" y="376"/>
      <point x="441" y="347"/>
      <point x="441" y="252" type="curve" smooth="yes"/>
      <point x="441" y="0" type="line" name="ab01"/>
      <point x="606" y="0" type="line"/>
      <point x="606" y="284" type="line" smooth="yes"/>
      <point x="606" y="428"/>
      <point x="545" y="500"/>
      <point x="430" y="500" type="curve" smooth="yes" name="at01"/>
      <point x="340.9" y="500"/>
      <point x="281.87" y="438.52"/>
      <point x="254" y="373.47" type="curve"/>
      <point x="254" y="590" type="line"/>
      <point x="396" y="590" type="line"/>
      <point x="396" y="626" type="line"/>
      <point x="254" y="626" type="line"/>
      <point x="254" y="750" type="line" name="ab01"/>
      <point x="89" y="750" type="line"/>
      <point x="89" y="626" type="line"/>
      <point x="19" y="626" type="line"/>
      <point x="19" y="590" type="line"/>
      <point x="89" y="590" type="line"/>
    </contour>
  </outline>
</glyph>
<glyph name="dzhecyr" format="2">
  <advance width="605"/>
  <unicode hex="045F"/>
  <outline>
    <contour>
      <point x="53" y="0" type="line"/>
      <point x="247" y="0" type="line"/>
      <point x="262" y="-42"/>
      <point x="260" y="-97"/>
      <point x="251" y="-141" type="curve"/>
      <point x="363" y="-141" type="line"/>
      <point x="379" y="-88"/>
      <point x="375" y="-52"/>
      <point x="357" y="0" type="curve"/>
      <point x="552" y="0" type="line"/>
      <point x="552" y="500" type="line"/>
      <point x="387" y="500" type="line"/>
      <point x="387" y="122" type="line"/>
      <point x="218" y="122" type="line"/>
      <point x="218" y="500" type="line"/>
      <point x="53" y="500" type="line"/>
    </contour>
  </outline>
</glyph>
<glyph name="geupcyr" format="2">
  <advance width="510"/>
  <unicode hex="0491"/>
  <outline>
    <contour>
      <point x="364" y="378" type="line" smooth="yes"/>
      <point x="470" y="378"/>
      <point x="493" y="436"/>
      <point x="493" y="638" type="curve"/>
      <point x="371" y="638" type="line"/>
      <point x="371" y="601"/>
      <point x="373" y="500"/>
      <point x="321" y="500" type="curve" smooth="yes"/>
      <point x="53" y="500" type="line"/>
      <point x="53" y="0" type="line"/>
      <point x="218" y="0" type="line"/>
      <point x="218" y="378" type="line"/>
    </contour>
  </outline>
</glyph>
<glyph name="quotesinglbase" format="2">
  <advance width="308"/>
  <unicode hex="201A"/>
  <outline>
    <contour>
      <point x="97" y="-158" type="line"/>
      <point x="179" y="-119"/>
      <point x="244" y="-28"/>
      <point x="244" y="58" type="curve" smooth="yes"/>
      <point x="244" y="125"/>
      <point x="204" y="160"/>
      <point x="154" y="160" type="curve" smooth="yes"/>
      <point x="102" y="160"/>
      <point x="64" y="121"/>
      <point x="64" y="71" type="curve" smooth="yes"/>
      <point x="64" y="21"/>
      <point x="102" y="-20"/>
      <point x="152" y="-20" type="curve" smooth="yes"/>
      <point x="165" y="-20"/>
      <point x="175" y="-17"/>
      <point x="184" y="-13" type="curve"/>
      <point x="176" y="-51"/>
      <point x="132" y="-114"/>
      <point x="86" y="-142" type="curve"/>
    </contour>
  </outline>
</glyph>
<glyph name="dagger" format="2">
  <advance width="701"/>
  <unicode hex="2020"/>
  <outline>
    <contour>
      <point x="308" y="-104" type="line"/>
      <point x="396" y="-104" type="line"/>
      <point x="425" y="385" type="line"/>
      <point x="650" y="372" type="line"/>
      <point x="650" y="502" type="line"/>
      <point x="427" y="489" type="line"/>
      <point x="432" y="696" type="line"/>
      <point x="273" y="696" type="line"/>
      <point x="277" y="488" type="line"/>
      <point x="50" y="502" type="line"/>
      <point x="50" y="372" type="line"/>
      <point x="279" y="385" type="line"/>
    </contour>
  </outline>
</glyph>
<glyph name="daggerdbl" format="2">
  <advance width="722"/>
  <unicode hex="2021"/>
  <outline>
    <contour>
      <point x="50" y="-29" type="line"/>
      <point x="278" y="-15" type="line"/>
      <point x="269" y="-222" type="line"/>
      <point x="435" y="-222" type="line"/>
      <point x="427" y="-15" type="line"/>
      <point x="650" y="-29" type="line"/>
      <point x="650" y="106" type="line"/>
      <point x="425" y="92" type="line"/>
      <point x="400" y="237" type="line"/>
      <point x="425" y="382" type="line"/>
      <point x="650" y="368" type="line"/>
      <point x="650" y="503" type="line"/>
      <point x="427" y="489" type="line"/>
      <point x="435" y="696" type="line"/>
      <point x="269" y="696" type="line"/>
      <point x="278" y="489" type="line"/>
      <point x="50" y="503" type="line"/>
      <point x="50" y="368" type="line"/>
      <point x="280" y="382" type="line"/>
      <point x="305" y="237" type="line"/>
      <point x="280" y="92" type="line"/>
      <point x="50" y="106" type="line"/>
    </contour>
  </outline>
</glyph>
<glyph name="bullet" format="2">
  <advance width="471"/>
  <unicode hex="2022"/>
  <outline>
    <contour>
      <point x="234" y="179" type="curve" smooth="yes"/>
      <point x="312" y="179"/>
      <point x="374" y="240"/>
      <point x="374" y="318" type="curve" smooth="yes"/>
      <point x="374" y="396"/>
      <point x="312" y="458"/>
      <point x="234" y="458" type="curve" smooth="yes"/>
      <point x="157" y="458"/>
      <point x="95" y="396"/>
      <point x="95" y="318" type="curve" smooth="yes"/>
      <point x="95" y="240"/>
      <point x="157" y="179"/>
    </contour>
  </outline>
</glyph>
<glyph name="zero.superior" format="2">
  <advance width="438"/>
  <unicode hex="2070"/>
  <outline>
    <contour>
      <point x="221" y="336" type="curve" smooth="yes"/>
      <point x="349" y="336"/>
      <point x="418" y="418"/>
      <point x="418" y="583" type="curve" smooth="yes"/>
      <point x="418" y="747"/>
      <point x="350" y="831"/>
      <point x="224" y="831" type="curve" smooth="yes"/>
      <point x="94" y="831"/>
      <point x="22" y="741"/>
      <point x="22" y="579" type="curve" smooth="yes"/>
      <point x="22" y="420"/>
      <point x="92" y="336"/>
    </contour>
    <contour>
      <point x="219" y="426" type="curve" smooth="yes"/>
      <point x="166" y="426"/>
      <point x="137" y="472"/>
      <point x="137" y="584" type="curve" smooth="yes"/>
      <point x="137" y="696"/>
      <point x="166" y="741"/>
      <point x="219" y="741" type="curve" smooth="yes"/>
      <point x="273" y="741"/>
      <point x="303" y="695"/>
      <point x="303" y="585" type="curve" smooth="yes"/>
      <point x="303" y="470"/>
      <point x="270" y="426"/>
    </contour>
  </outline>
</glyph>
<glyph name="seven.superior" format="2">
  <advance width="417"/>
  <unicode hex="2077"/>
  <outline>
    <contour>
      <point x="243" y="740" type="line"/>
      <point x="30" y="740" type="line"/>
      <point x="30" y="830" type="line"/>
      <point x="406" y="830" type="line"/>
      <point x="406" y="821" type="line"/>
      <point x="184" y="344" type="line"/>
      <point x="58" y="344" type="line"/>
    </contour>
  </outline>
</glyph>
<glyph name="Euro" format="2">
  <advance width="730"/>
  <unicode hex="20AC"/>
  <outline>
    <contour>
      <point x="15" y="364" type="line"/>
      <point x="512" y="364" type="line"/>
      <point x="522" y="434" type="line"/>
      <point x="259" y="434" type="line"/>
      <point x="262" y="523"/>
      <point x="329" y="589"/>
      <point x="431" y="589" type="curve" smooth="yes"/>
      <point x="498" y="589"/>
      <point x="561" y="562"/>
      <point x="606" y="504" type="curve"/>
      <point x="701" y="599" type="line"/>
      <point x="633" y="683"/>
      <point x="548" y="720"/>
      <point x="425" y="720" type="curve" smooth="yes"/>
      <point x="224" y="720"/>
      <point x="112" y="582"/>
      <point x="90" y="434" type="curve"/>
      <point x="25" y="434" type="line"/>
    </contour>
    <contour>
      <point x="15" y="270" type="line"/>
      <point x="89" y="270" type="line"/>
      <point x="111" y="120"/>
      <point x="228" y="-20"/>
      <point x="431" y="-20" type="curve" smooth="yes"/>
      <point x="568" y="-20"/>
      <point x="635" y="23"/>
      <point x="706" y="102" type="curve"/>
      <point x="611" y="197" type="line"/>
      <point x="562" y="139"/>
      <point x="498" y="110"/>
      <point x="431" y="110" type="curve" smooth="yes"/>
      <point x="325" y="110"/>
      <point x="262" y="185"/>
      <point x="258" y="270" type="curve"/>
      <point x="498" y="270" type="line"/>
      <point x="508" y="340" type="line"/>
      <point x="25" y="340" type="line"/>
    </contour>
  </outline>
</glyph>
<glyph name="austral" format="2">
  <advance width="718"/>
  <unicode hex="20B3"/>
  <outline>
    <contour>
      <point x="13" y="129" type="line"/>
      <point x="705" y="129" type="line"/>
      <point x="705" y="200" type="line"/>
      <point x="13" y="200" type="line"/>
    </contour>
    <contour>
      <point x="13" y="268" type="line"/>
      <point x="705" y="268" type="line"/>
      <point x="705" y="339" type="line"/>
      <point x="13" y="339" type="line"/>
    </contour>
    <contour>
      <point x="403.5" y="700" type="line"/>
      <point x="265.5" y="700" type="line"/>
      <point x="38.5" y="0" type="line"/>
      <point x="212.5" y="0" type="line"/>
    </contour>
    <contour>
      <point x="452.5" y="700" type="line"/>
      <point x="314.5" y="700" type="line"/>
      <point x="505.5" y="0" type="line"/>
      <point x="679.5" y="0" type="line"/>
    </contour>
  </outline>
</glyph>
<glyph name="hryvnia" format="2">
  <advance width="734"/>
  <unicode hex="20B4"/>
  <outline>
    <contour>
      <point x="21" y="262" type="line"/>
      <point x="120.75" y="262" type="line"/>
      <point x="113.43" y="242.2"/>
      <point x="110" y="220.55"/>
      <point x="110" y="197" type="curve" smooth="yes"/>
      <point x="110" y="61"/>
      <point x="198" y="-20"/>
      <point x="361" y="-20" type="curve" smooth="yes"/>
      <point x="491" y="-20"/>
      <point x="581" y="32"/>
      <point x="641" y="104" type="curve"/>
      <point x="546" y="199" type="line"/>
      <point x="499.82" y="144"/>
      <point x="438.6" y="111"/>
      <point x="370.35" y="111" type="curve" smooth="yes"/>
      <point x="308.12" y="111"/>
      <point x="275" y="138"/>
      <point x="275" y="191" type="curve" smooth="yes"/>
      <point x="275" y="226.4"/>
      <point x="289.77" y="245.99"/>
      <point x="335.22" y="262" type="curve"/>
      <point x="713" y="262" type="line"/>
      <point x="713" y="328" type="line"/>
      <point x="21" y="328" type="line"/>
    </contour>
    <contour>
      <point x="21" y="374" type="line"/>
      <point x="713" y="374" type="line"/>
      <point x="713" y="440" type="line"/>
      <point x="625.49" y="440" type="line"/>
      <point x="630.55" y="457.96"/>
      <point x="633" y="477.27"/>
      <point x="633" y="498" type="curve" smooth="yes"/>
      <point x="633" y="635"/>
      <point x="538" y="720"/>
      <point x="384" y="720" type="curve" smooth="yes"/>
      <point x="264" y="720"/>
      <point x="174" y="668"/>
      <point x="114" y="596" type="curve"/>
      <point x="209" y="501" type="line"/>
      <point x="255.17" y="556"/>
      <point x="316.41" y="589"/>
      <point x="376.64" y="589" type="curve" smooth="yes"/>
      <point x="438.88" y="589"/>
      <point x="468" y="553"/>
      <point x="468" y="501" type="curve" smooth="yes"/>
      <point x="468" y="474.13"/>
      <point x="460.31" y="454.93"/>
      <point x="442.85" y="440" type="curve"/>
      <point x="21" y="440" type="line"/>
    </contour>
  </outline>
</glyph>
<glyph name="turkishlira" format="2">
  <advance width="640"/>
  <unicode hex="20BA"/>
  <outline>
    <contour>
      <point x="21" y="446" type="line"/>
      <point x="21" y="384" type="line"/>
      <point x="443" y="511" type="line"/>
      <point x="443" y="574" type="line"/>
    </contour>
    <contour>
      <point x="21" y="329" type="line"/>
      <point x="21" y="267" type="line"/>
      <point x="443" y="394" type="line"/>
      <point x="443" y="457" type="line"/>
    </contour>
    <contour>
      <point x="606" y="283" type="curve"/>
      <point x="463" y="250" type="line"/>
      <point x="463" y="190"/>
      <point x="442" y="130"/>
      <point x="330" y="130" type="curve" smooth="yes"/>
      <point x="290" y="130" type="line"/>
      <point x="290" y="700" type="line"/>
      <point x="124" y="700" type="line"/>
      <point x="124" y="0" type="line"/>
      <point x="303" y="0" type="line" smooth="yes"/>
      <point x="521" y="0"/>
      <point x="606" y="78"/>
    </contour>
  </outline>
</glyph>
<glyph name="ruble" format="2">
  <advance width="720"/>
  <unicode hex="20BD"/>
  <outline>
    <contour>
      <point x="145" y="0" type="line"/>
      <point x="311" y="0" type="line"/>
      <point x="311" y="570" type="line"/>
      <point x="392" y="570" type="line" smooth="yes"/>
      <point x="474" y="570"/>
      <point x="514" y="537"/>
      <point x="514" y="458" type="curve" smooth="yes"/>
      <point x="514" y="380"/>
      <point x="475" y="347"/>
      <point x="392" y="347" type="curve" smooth="yes"/>
      <point x="45" y="347" type="line"/>
      <point x="45" y="216" type="line"/>
      <point x="410" y="216" type="line" smooth="yes"/>
      <point x="575" y="216"/>
      <point x="681" y="311"/>
      <point x="681" y="459" type="curve" smooth="yes"/>
      <point x="681" y="606"/>
      <point x="576" y="700"/>
      <point x="410" y="700" type="curve" smooth="yes"/>
      <point x="145" y="700" type="line"/>
    </contour>
    <contour>
      <point x="45" y="87" type="line"/>
      <point x="619" y="87" type="line"/>
      <point x="619" y="157" type="line"/>
      <point x="45" y="157" type="line"/>
    </contour>
  </outline>
</glyph>
<glyph name="partialdiff" format="2">
  <advance width="730"/>
  <unicode hex="2202"/>
  <outline>
    <contour>
      <point x="227" y="546" type="line"/>
      <point x="269" y="583"/>
      <point x="323" y="599"/>
      <point x="377" y="599" type="curve" smooth="yes"/>
      <point x="475" y="599"/>
      <point x="554" y="546"/>
      <point x="554" y="440" type="curve" smooth="yes"/>
      <point x="554" y="396"/>
      <point x="540" y="322"/>
      <point x="524" y="292" type="curve"/>
      <point x="516" y="255" type="line"/>
      <point x="542" y="278" type="line"/>
      <point x="565" y="372"/>
      <point x="479" y="467"/>
      <point x="327" y="467" type="curve" smooth="yes"/>
      <point x="165" y="467"/>
      <point x="28" y="360"/>
      <point x="28" y="206" type="curve" smooth="yes"/>
      <point x="28" y="73"/>
      <point x="131" y="-20"/>
      <point x="278" y="-20" type="curve" smooth="yes"/>
      <point x="497" y="-20"/>
      <point x="675" y="188"/>
      <point x="675" y="425" type="curve" smooth="yes"/>
      <point x="675" y="613"/>
      <point x="563" y="720"/>
      <point x="385" y="720" type="curve" smooth="yes"/>
      <point x="306" y="720"/>
      <point x="201" y="699"/>
      <point x="132" y="641" type="curve"/>
    </contour>
    <contour>
      <point x="178" y="220" type="curve" smooth="yes"/>
      <point x="178" y="295"/>
      <point x="237" y="355"/>
      <point x="332" y="355" type="curve" smooth="yes"/>
      <point x="413" y="355"/>
      <point x="465" y="311"/>
      <point x="465" y="241" type="curve" smooth="yes"/>
      <point x="465" y="152"/>
      <point x="383" y="103"/>
      <point x="306" y="103" type="curve" smooth="yes"/>
      <point x="232" y="103"/>
      <point x="178" y="148"/>
    </contour>
  </outline>
</glyph>
<glyph name="summation" format="2">
  <advance width="662"/>
  <unicode hex="2211"/>
  <outline>
    <contour>
      <point x="621" y="-122" type="line"/>
      <point x="621" y="8" type="line"/>
      <point x="274" y="8" type="line"/>
      <point x="550" y="287" type="line"/>
      <point x="274" y="570" type="line"/>
      <point x="621" y="570" type="line"/>
      <point x="621" y="700" type="line"/>
      <point x="30" y="700" type="line"/>
      <point x="30" y="600" type="line"/>
      <point x="333" y="287" type="line"/>
      <point x="30" y="-22" type="line"/>
      <point x="30" y="-122" type="line"/>
    </contour>
  </outline>
</glyph>
<glyph name="radical" format="2">
  <advance width="660"/>
  <unicode hex="221A"/>
  <outline>
    <contour>
      <point x="237" y="-122.003" type="line"/>
      <point x="401" y="-122.003" type="line"/>
      <point x="707.446" y="820" type="line"/>
      <point x="534.446" y="820" type="line"/>
      <point x="317" y="51.997" type="line"/>
      <point x="246" y="297.997" type="line"/>
      <point x="1" y="297.997" type="line"/>
      <point x="1" y="177.997" type="line"/>
      <point x="116" y="177.997" type="line"/>
    </contour>
  </outline>
</glyph>
<glyph name="C.ss12" format="2">
  <advance width="649"/>
  <anchor x="367" y="-19" name="bottom"/>
  <anchor x="347" y="719" name="top"/>
  <outline>
    <contour>
      <point x="608.708" y="198.665" type="line"/>
      <point x="529.511" y="140.747"/>
      <point x="435.754" y="109.53"/>
      <point x="375" y="109.53" type="curve" smooth="yes"/>
      <point x="241" y="109.53"/>
      <point x="193" y="197"/>
      <point x="193" y="349" type="curve" smooth="yes"/>
      <point x="193" y="504"/>
      <point x="243" y="590"/>
      <point x="377" y="590" type="curve" smooth="yes"/>
      <point x="437.754" y="590"/>
      <point x="531.511" y="558.783"/>
      <point x="610.708" y="500.865" type="curve"/>
      <point x="620.472" y="611.523" type="line"/>
      <point x="568.397" y="677.701"/>
      <point x="463.725" y="719.901"/>
      <point x="365" y="719.901" type="curve" smooth="yes"/>
      <point x="158" y="719.901"/>
      <point x="28" y="569"/>
      <point x="28" y="348" type="curve" smooth="yes"/>
      <point x="28" y="122.577"/>
      <point x="159.79" y="-20.371"/>
      <point x="363" y="-20.371" type="curve" smooth="yes"/>
      <point x="461.725" y="-20.371"/>
      <point x="566.397" y="21.829"/>
      <point x="618.472" y="88.007" type="curve"/>
    </contour>
  </outline>
</glyph>
<glyph name="Ccedilla.ss10" format="2">
  <advance width="735"/>
  <anchor x="387" y="719" name="top"/>
  <anchor x="387" y="-217" name="bottom"/>
  <outline>
    <contour>
      <point x="652" y="276" type="line"/>
      <point x="577" y="156"/>
      <point x="499" y="111"/>
      <point x="410" y="111" type="curve" smooth="yes"/>
      <point x="280.4" y="111"/>
      <point x="204" y="209"/>
      <point x="204" y="356" type="curve" smooth="yes"/>
      <point x="204" y="495.8"/>
      <point x="277.2" y="589"/>
      <point x="402" y="589" type="curve" smooth="yes"/>
      <point x="492" y="589"/>
      <point x="568" y="544"/>
      <point x="643" y="424" type="curve"/>
      <point x="688" y="583" type="line"/>
      <point x="624" y="666"/>
      <point x="522" y="720"/>
      <point x="395" y="720" type="curve" smooth="yes"/>
      <point x="180.8" y="720"/>
      <point x="38" y="574.8"/>
      <point x="38" y="357" type="curve" smooth="yes"/>
      <point x="38" y="130.8"/>
      <point x="184.4" y="-20"/>
      <point x="404" y="-20" type="curve" smooth="yes"/>
      <point x="529" y="-20"/>
      <point x="633" y="34"/>
      <point x="697" y="117" type="curve"/>
    </contour>
    <contour>
      <point x="260" y="-204" type="line"/>
      <point x="282" y="-210"/>
      <point x="315" y="-217"/>
      <point x="362" y="-217" type="curve" smooth="yes"/>
      <point x="459" y="-217"/>
      <point x="511" y="-191"/>
      <point x="511" y="-132" type="curve" smooth="yes"/>
      <point x="511" y="-86"/>
      <point x="480" y="-63"/>
      <point x="410" y="-63" type="curve"/>
      <point x="457.224" y="20" type="line"/>
      <point x="364.224" y="20" type="line"/>
      <point x="299" y="-103" type="line"/>
      <point x="314" y="-101"/>
      <point x="332" y="-99"/>
      <point x="346" y="-99" type="curve" smooth="yes"/>
      <point x="379" y="-99"/>
      <point x="398" y="-110"/>
      <point x="398" y="-133" type="curve" smooth="yes"/>
      <point x="398" y="-154"/>
      <point x="382" y="-167"/>
      <point x="353" y="-167" type="curve" smooth="yes"/>
      <point x="335" y="-167"/>
      <point x="300" y="-162"/>
      <point x="280" y="-156" type="curve"/>
    </contour>
  </outline>
</glyph>
<glyph name="Ccedilla.ss12" format="2">
  <advance width="669"/>
  <anchor x="357" y="719" name="top"/>
  <anchor x="357" y="-217" name="bottom"/>
  <outline>
    <contour>
      <point x="618.708" y="198.665" type="line"/>
      <point x="539.511" y="140.747"/>
      <point x="445.754" y="109.53"/>
      <point x="385" y="109.53" type="curve" smooth="yes"/>
      <point x="251" y="109.53"/>
      <point x="203" y="197"/>
      <point x="203" y="349" type="curve" smooth="yes"/>
      <point x="203" y="504"/>
      <point x="253" y="590"/>
      <point x="387" y="590" type="curve" smooth="yes"/>
      <point x="447.754" y="590"/>
      <point x="541.511" y="558.783"/>
      <point x="620.708" y="500.865" type="curve"/>
      <point x="630.472" y="611.523" type="line"/>
      <point x="578.397" y="677.701"/>
      <point x="473.725" y="719.901"/>
      <point x="375" y="719.901" type="curve" smooth="yes"/>
      <point x="168" y="719.901"/>
      <point x="38" y="569"/>
      <point x="38" y="348" type="curve" smooth="yes"/>
      <point x="38" y="122.577"/>
      <point x="169.79" y="-20.371"/>
      <point x="373" y="-20.371" type="curve" smooth="yes"/>
      <point x="471.725" y="-20.371"/>
      <point x="576.397" y="21.8289"/>
      <point x="628.472" y="88.0069" type="curve"/>
    </contour>
    <contour>
      <point x="230" y="-204" type="line"/>
      <point x="252" y="-210"/>
      <point x="285" y="-217"/>
      <point x="332" y="-217" type="curve" smooth="yes"/>
      <point x="429" y="-217"/>
      <point x="481" y="-191"/>
      <point x="481" y="-132" type="curve" smooth="yes"/>
      <point x="481" y="-86"/>
      <point x="450" y="-63"/>
      <point x="380" y="-63" type="curve"/>
      <point x="427.224" y="20" type="line"/>
      <point x="334.224" y="20" type="line"/>
      <point x="269" y="-103" type="line"/>
      <point x="284" y="-101"/>
      <point x="302" y="-99"/>
      <point x="316" y="-99" type="curve" smooth="yes"/>
      <point x="349" y="-99"/>
      <point x="368" y="-110"/>
      <point x="368" y="-133" type="curve" smooth="yes"/>
      <point x="368" y="-154"/>
      <point x="352" y="-167"/>
      <point x="323" y="-167" type="curve" smooth="yes"/>
      <point x="305" y="-167"/>
      <point x="270" y="-162"/>
      <point x="250" y="-156" type="curve"/>
    </contour>
  </outline>
</glyph>
<glyph name="Decyr.ss08" format="2">
  <advance width="863"/>
  <outline>
    <contour>
      <point x="122" y="83" type="line"/>
      <point x="299" y="83" type="line"/>
      <point x="480" y="700" type="line"/>
      <point x="326" y="700" type="line"/>
    </contour>
    <contour>
      <point x="563" y="83" type="line"/>
      <point x="741" y="83" type="line"/>
      <point x="537" y="700" type="line"/>
      <point x="382" y="700" type="line"/>
    </contour>
    <contour>
      <point x="149" y="-140" type="line"/>
      <point x="149" y="-37"/>
      <point x="146" y="0"/>
      <point x="205" y="0" type="curve" smooth="yes"/>
      <point x="647" y="0" type="line" smooth="yes"/>
      <point x="718" y="0"/>
      <point x="710" y="-32"/>
      <point x="710" y="-140" type="curve"/>
      <point x="843" y="-140" type="line"/>
      <point x="843" y="102"/>
      <point x="808" y="130"/>
      <point x="711" y="130" type="curve" smooth="yes"/>
      <point x="158" y="130" type="line" smooth="yes"/>
      <point x="62" y="130"/>
      <point x="19" y="102"/>
      <point x="19" y="-140" type="curve"/>
    </contour>
  </outline>
</glyph>
<glyph name="Efcyr.loclBGR" format="2">
  <advance width="836"/>
  <outline>
    <contour>
      <point x="335" y="-80" type="line"/>
      <point x="501" y="-80" type="line"/>
      <point x="501" y="0" type="line"/>
      <point x="679.2" y="0"/>
      <point x="798" y="141.443"/>
      <point x="798" y="353.608" type="curve" smooth="yes"/>
      <point x="798" y="561.443"/>
      <point x="679.2" y="700"/>
      <point x="501" y="700" type="curve"/>
      <point x="501" y="780" type="line"/>
      <point x="335" y="780" type="line"/>
      <point x="335" y="700" type="line"/>
      <point x="156.8" y="700"/>
      <point x="38" y="561.443"/>
      <point x="38" y="353.608" type="curve" smooth="yes"/>
      <point x="38" y="141.443"/>
      <point x="156.8" y="0"/>
      <point x="335" y="0" type="curve"/>
    </contour>
    <contour>
      <point x="501" y="570" type="line"/>
      <point x="576" y="570"/>
      <point x="631" y="486.112"/>
      <point x="631" y="350.832" type="curve" smooth="yes"/>
      <point x="631" y="211.453"/>
      <point x="573" y="130"/>
      <point x="501" y="130" type="curve"/>
    </contour>
    <contour>
      <point x="335" y="130" type="line"/>
      <point x="263" y="130"/>
      <point x="205" y="211.453"/>
      <point x="205" y="350.832" type="curve" smooth="yes"/>
      <point x="205" y="486.112"/>
      <point x="260" y="570"/>
      <point x="335" y="570" type="curve"/>
    </contour>
  </outline>
</glyph>
<glyph name="Eng.ss07" format="2">
  <advance width="732"/>
  <anchor x="366" y="719" name="top"/>
  <anchor x="352" y="-213" name="bottom"/>
  <outline>
    <contour>
      <point x="57.5" y="0" type="line"/>
      <point x="222.5" y="0" type="line" name="ab01"/>
      <point x="222.5" y="439" type="line" name="iv01"/>
      <point x="518.5" y="0" type="line" name="ab02"/>
      <point x="675.5" y="147.644" type="line"/>
      <point x="675.5" y="700" type="line" name="at01"/>
      <point x="509.5" y="700" type="line"/>
      <point x="509.5" y="261" type="line" name="iv02"/>
      <point x="213.5" y="700" type="line" name="at02"/>
      <point x="57.5" y="700" type="line"/>
    </contour>
    <contour>
      <point x="359.5" y="-234" type="line"/>
      <point x="593.131" y="-234"/>
      <point x="676.195" y="-157"/>
      <point x="676" y="58" type="curve" smooth="yes"/>
      <point x="675.5" y="610" type="line"/>
      <point x="511" y="610" type="line"/>
      <point x="511" y="52" type="line" smooth="yes"/>
      <point x="511" y="-74"/>
      <point x="464.5" y="-104"/>
      <point x="359.5" y="-104" type="curve"/>
    </contour>
  </outline>
</glyph>
<glyph name="Ereversedcyr.ss09" format="2">
  <advance width="773"/>
  <anchor x="387" y="719" name="top"/>
  <outline>
    <contour>
      <point x="611" y="295" type="line"/>
      <point x="611" y="425" type="line"/>
      <point x="266" y="425" type="line"/>
      <point x="266" y="295" type="line"/>
    </contour>
    <contour>
      <point x="38" y="261" type="line"/>
      <point x="70" y="103"/>
      <point x="188" y="-20"/>
      <point x="371" y="-20" type="curve" smooth="yes"/>
      <point x="583" y="-20"/>
      <point x="735" y="146"/>
      <point x="735" y="357" type="curve" smooth="yes"/>
      <point x="735" y="565"/>
      <point x="587" y="720"/>
      <point x="374" y="720" type="curve" smooth="yes"/>
      <point x="205" y="720"/>
      <point x="91" y="623"/>
      <point x="48" y="485" type="curve"/>
      <point x="214" y="485" type="line"/>
      <point x="240" y="550"/>
      <point x="290" y="589"/>
      <point x="374" y="589" type="curve" smooth="yes"/>
      <point x="500" y="589"/>
      <point x="568" y="500"/>
      <point x="568" y="353" type="curve" smooth="yes"/>
      <point x="568" y="203"/>
      <point x="497" y="111"/>
      <point x="378" y="111" type="curve" smooth="yes"/>
      <point x="288" y="111"/>
      <point x="216" y="164"/>
      <point x="204" y="261" type="curve"/>
    </contour>
  </outline>
</glyph>
<glyph name="Ereversedcyr.ss12" format="2">
  <advance width="669"/>
  <anchor x="304" y="719" name="top"/>
  <outline>
    <contour>
      <point x="40.5282" y="88.007" type="line"/>
      <point x="92.6027" y="21.8289"/>
      <point x="197.275" y="-20.371"/>
      <point x="296" y="-20.371" type="curve" smooth="yes"/>
      <point x="499.21" y="-20.371"/>
      <point x="631" y="122.577"/>
      <point x="631" y="348" type="curve" smooth="yes"/>
      <point x="631" y="569"/>
      <point x="501" y="719.901"/>
      <point x="294" y="719.901" type="curve" smooth="yes"/>
      <point x="195.275" y="719.901"/>
      <point x="90.6027" y="677.701"/>
      <point x="38.5282" y="611.523" type="curve"/>
      <point x="48.2922" y="500.865" type="line"/>
      <point x="127.489" y="558.783"/>
      <point x="221.246" y="590"/>
      <point x="282" y="590" type="curve" smooth="yes"/>
      <point x="416" y="590"/>
      <point x="466" y="504"/>
      <point x="466" y="349" type="curve" smooth="yes"/>
      <point x="466" y="197"/>
      <point x="418" y="109.53"/>
      <point x="284" y="109.53" type="curve" smooth="yes"/>
      <point x="223.246" y="109.53"/>
      <point x="129.489" y="140.747"/>
      <point x="50.2921" y="198.665" type="curve"/>
    </contour>
    <contour>
      <point x="166" y="295" type="line"/>
      <point x="521" y="295" type="line"/>
      <point x="521" y="425" type="line"/>
      <point x="166" y="425" type="line"/>
    </contour>
  </outline>
</glyph>
<glyph name="Euro.ss09" format="2">
  <advance width="730"/>
  <outline>
    <contour>
      <point x="-3" y="384" type="line"/>
      <point x="464" y="384" type="line"/>
      <point x="491" y="444" type="line"/>
      <point x="243" y="444" type="line"/>
      <point x="256.057" y="413.041" type="line"/>
      <point x="263.592" y="532.357"/>
      <point x="324.366" y="589"/>
      <point x="401" y="589" type="curve" smooth="yes"/>
      <point x="467" y="589"/>
      <point x="514" y="550"/>
      <point x="532" y="485" type="curve"/>
      <point x="692" y="485" type="line"/>
      <point x="652" y="620"/>
      <point x="560" y="720"/>
      <point x="401" y="720" type="curve" smooth="yes"/>
      <point x="224.521" y="720"/>
      <point x="94.906" y="595.382"/>
      <point x="88.005" y="417.596" type="curve"/>
      <point x="104" y="444" type="line"/>
      <point x="24" y="444" type="line"/>
    </contour>
    <contour>
      <point x="-4" y="270" type="line"/>
      <point x="88" y="270" type="line"/>
      <point x="102" y="101"/>
      <point x="230" y="-20"/>
      <point x="397" y="-20" type="curve" smooth="yes"/>
      <point x="569" y="-20"/>
      <point x="663" y="106"/>
      <point x="692" y="261" type="curve"/>
      <point x="532" y="261" type="line"/>
      <point x="520" y="164"/>
      <point x="471" y="111"/>
      <point x="397" y="111" type="curve" smooth="yes"/>
      <point x="323" y="111"/>
      <point x="271" y="151"/>
      <point x="257" y="270" type="curve"/>
      <point x="455" y="270" type="line"/>
      <point x="482" y="330" type="line"/>
      <point x="23" y="330" type="line"/>
    </contour>
  </outline>
</glyph>
<glyph name="Euro.ss10" format="2">
  <advance width="714"/>
  <outline>
    <contour>
      <point x="15" y="371" type="line"/>
      <point x="515" y="371" type="line"/>
      <point x="525" y="441" type="line"/>
      <point x="254" y="441" type="line"/>
      <point x="275" y="533"/>
      <point x="333" y="589"/>
      <point x="422" y="589" type="curve" smooth="yes"/>
      <point x="501" y="589"/>
      <point x="557" y="544"/>
      <point x="622" y="424" type="curve"/>
      <point x="667" y="583" type="line"/>
      <point x="609" y="666"/>
      <point x="517" y="720"/>
      <point x="402" y="720" type="curve" smooth="yes"/>
      <point x="237" y="720"/>
      <point x="116" y="608"/>
      <point x="85" y="441" type="curve"/>
      <point x="25" y="441" type="line"/>
    </contour>
    <contour>
      <point x="15" y="263" type="line"/>
      <point x="87" y="263" type="line"/>
      <point x="121" y="95"/>
      <point x="244" y="-20"/>
      <point x="410" y="-20" type="curve" smooth="yes"/>
      <point x="524" y="-20"/>
      <point x="618" y="34"/>
      <point x="676" y="117" type="curve"/>
      <point x="631" y="276" type="line"/>
      <point x="566" y="156"/>
      <point x="508" y="111"/>
      <point x="430" y="111" type="curve" smooth="yes"/>
      <point x="341" y="111"/>
      <point x="279" y="170"/>
      <point x="255" y="263" type="curve"/>
      <point x="495" y="263" type="line"/>
      <point x="505" y="333" type="line"/>
      <point x="25" y="333" type="line"/>
    </contour>
  </outline>
</glyph>
<glyph name="Euro.ss12" format="2">
  <advance width="695"/>
  <outline>
    <contour>
      <point x="270" y="446" type="line"/>
      <point x="291" y="538"/>
      <point x="350" y="590"/>
      <point x="440" y="590" type="curve" smooth="yes"/>
      <point x="514" y="590"/>
      <point x="576" y="555"/>
      <point x="643" y="473" type="curve"/>
      <point x="655" y="587" type="line"/>
      <point x="585" y="677"/>
      <point x="507" y="720"/>
      <point x="407" y="720" type="curve" smooth="yes"/>
      <point x="248" y="720"/>
      <point x="133" y="612"/>
      <point x="102" y="446" type="curve"/>
      <point x="41" y="446" type="line"/>
      <point x="31" y="366" type="line"/>
      <point x="535" y="366" type="line"/>
      <point x="545" y="446" type="line"/>
    </contour>
    <contour>
      <point x="101" y="255" type="line"/>
      <point x="132" y="88"/>
      <point x="246" y="-20"/>
      <point x="407" y="-20" type="curve" smooth="yes"/>
      <point x="508" y="-20"/>
      <point x="587" y="23"/>
      <point x="657" y="113" type="curve"/>
      <point x="645" y="227" type="line"/>
      <point x="584" y="149"/>
      <point x="516" y="111"/>
      <point x="439" y="111" type="curve" smooth="yes"/>
      <point x="351" y="111"/>
      <point x="293" y="161"/>
      <point x="271" y="255" type="curve"/>
      <point x="517" y="255" type="line"/>
      <point x="527" y="335" type="line"/>
      <point x="31" y="335" type="line"/>
      <point x="21" y="255" type="line"/>
    </contour>
  </outline>
</glyph>
<glyph name="G.ss03" format="2">
  <advance width="753"/>
  <anchor x="388" y="-19" name="bottom"/>
  <anchor x="377" y="719" name="top"/>
  <outline>
    <contour>
      <point x="553" y="265" type="line" name="sv02"/>
      <point x="553" y="178" name=".sv01"/>
      <point x="495" y="111"/>
      <point x="399" y="111" type="curve" smooth="yes" name="dv04"/>
      <point x="276" y="111"/>
      <point x="195" y="198"/>
      <point x="195" y="351" type="curve" smooth="yes" name="dv07"/>
      <point x="195" y="505"/>
      <point x="265" y="589"/>
      <point x="395" y="589" type="curve" smooth="yes"/>
      <point x="498" y="589"/>
      <point x="561" y="544"/>
      <point x="633" y="424" type="curve"/>
      <point x="678" y="583" type="line"/>
      <point x="613" y="666"/>
      <point x="510" y="720"/>
      <point x="379" y="720" type="curve" smooth="yes"/>
      <point x="169" y="720"/>
      <point x="28" y="561"/>
      <point x="28" y="348" type="curve" smooth="yes" name="dv08"/>
      <point x="28" y="139"/>
      <point x="183" y="-20"/>
      <point x="386" y="-20" type="curve" smooth="yes" name="dv03"/>
      <point x="587" y="-20"/>
      <point x="725" y="119.655"/>
      <point x="725" y="324.15" type="curve" smooth="yes" name="sv03"/>
      <point x="725" y="385" type="line" name="sv01"/>
      <point x="371" y="385" type="line" name="dv06"/>
      <point x="371" y="265" type="line" name="dv05"/>
    </contour>
  </outline>
</glyph>
<glyph name="G.ss09" format="2">
  <advance width="780"/>
  <anchor x="390" y="-19" name="bottom"/>
  <anchor x="390" y="719" name="top"/>
  <outline>
    <contour>
      <point x="398" y="720" type="curve" smooth="yes"/>
      <point x="182" y="720"/>
      <point x="38" y="563"/>
      <point x="38" y="352" type="curve" smooth="yes"/>
      <point x="38" y="128.8"/>
      <point x="174.8" y="-20"/>
      <point x="380" y="-20" type="curve" smooth="yes"/>
      <point x="512" y="-20"/>
      <point x="600" y="57"/>
      <point x="646" y="226" type="curve"/>
      <point x="577" y="343" type="line"/>
      <point x="577" y="339"/>
      <point x="577" y="329"/>
      <point x="575" y="310" type="curve" smooth="yes"/>
      <point x="561" y="192"/>
      <point x="505" y="111"/>
      <point x="393" y="111" type="curve" smooth="yes"/>
      <point x="279" y="111"/>
      <point x="205" y="195"/>
      <point x="205" y="347" type="curve" smooth="yes"/>
      <point x="205" y="494"/>
      <point x="274" y="589"/>
      <point x="394" y="589" type="curve" smooth="yes"/>
      <point x="479" y="589"/>
      <point x="536" y="542"/>
      <point x="556" y="485" type="curve"/>
      <point x="723" y="485" type="line"/>
      <point x="692" y="623"/>
      <point x="567" y="720"/>
    </contour>
    <contour>
      <point x="629" y="248" type="line"/>
      <point x="691" y="0" type="line"/>
      <point x="742" y="0" type="line"/>
      <point x="742" y="366" type="line"/>
      <point x="330" y="366" type="line"/>
      <point x="330" y="246" type="line"/>
      <point x="580" y="246" type="line"/>
    </contour>
  </outline>
</glyph>
<glyph name="G.ss10" format="2">
  <advance width="770"/>
  <anchor x="394" y="-19" name="bottom"/>
  <anchor x="394" y="719" name="top"/>
  <outline>
    <contour>
      <point x="620" y="248" type="line"/>
      <point x="682" y="0" type="line"/>
      <point x="732" y="0" type="line"/>
      <point x="732" y="368" type="line"/>
      <point x="358" y="368" type="line"/>
      <point x="358" y="248" type="line"/>
      <point x="575" y="248" type="line"/>
    </contour>
    <contour>
      <point x="386" y="720" type="curve" smooth="yes"/>
      <point x="170" y="720"/>
      <point x="38" y="562"/>
      <point x="38" y="356" type="curve" smooth="yes"/>
      <point x="38" y="130.4"/>
      <point x="171.6" y="-20"/>
      <point x="372" y="-20" type="curve" smooth="yes"/>
      <point x="528" y="-20"/>
      <point x="628" y="85"/>
      <point x="651" y="229" type="curve"/>
      <point x="647" y="315" type="line"/>
      <point x="574" y="344" type="line"/>
      <point x="574" y="340"/>
      <point x="575" y="329"/>
      <point x="575" y="313" type="curve" smooth="yes"/>
      <point x="575" y="186"/>
      <point x="501" y="111"/>
      <point x="396" y="111" type="curve" smooth="yes"/>
      <point x="275.429" y="111"/>
      <point x="205" y="199.866"/>
      <point x="205" y="352" type="curve" smooth="yes"/>
      <point x="205" y="501.795"/>
      <point x="277.854" y="589"/>
      <point x="403" y="589" type="curve" smooth="yes"/>
      <point x="494" y="589"/>
      <point x="564" y="544"/>
      <point x="643" y="424" type="curve"/>
      <point x="688" y="583" type="line"/>
      <point x="620" y="666"/>
      <point x="512" y="720"/>
    </contour>
  </outline>
</glyph>
<glyph name="G.ss12" format="2">
  <advance width="754"/>
  <anchor x="380" y="-19" name="bottom"/>
  <anchor x="380" y="719" name="top"/>
  <outline>
    <contour>
      <point x="347" y="270" type="line"/>
      <point x="603" y="270" type="line"/>
      <point x="646" y="0" type="line"/>
      <point x="716" y="0" type="line"/>
      <point x="716" y="387" type="line"/>
      <point x="347" y="387" type="line"/>
    </contour>
    <contour>
      <point x="591" y="344" type="line"/>
      <point x="591" y="338"/>
      <point x="591" y="326"/>
      <point x="591" y="326" type="curve"/>
      <point x="591" y="227"/>
      <point x="517" y="110"/>
      <point x="382" y="110" type="curve" smooth="yes"/>
      <point x="263" y="110"/>
      <point x="195" y="201"/>
      <point x="195" y="352" type="curve" smooth="yes"/>
      <point x="195" y="500"/>
      <point x="261" y="590"/>
      <point x="401" y="590" type="curve" smooth="yes"/>
      <point x="489" y="590"/>
      <point x="565" y="555"/>
      <point x="646" y="473" type="curve"/>
      <point x="658" y="587" type="line"/>
      <point x="576" y="677"/>
      <point x="484" y="720"/>
      <point x="370" y="720" type="curve" smooth="yes"/>
      <point x="127" y="720"/>
      <point x="28" y="525"/>
      <point x="28" y="349" type="curve" smooth="yes"/>
      <point x="28" y="154"/>
      <point x="150" y="-20"/>
      <point x="362" y="-20" type="curve" smooth="yes"/>
      <point x="550" y="-20"/>
      <point x="603" y="118"/>
      <point x="631" y="230" type="curve"/>
      <point x="637" y="348" type="line"/>
    </contour>
  </outline>
</glyph>
<glyph name="G.ss13" format="2">
  <advance width="783"/>
  <anchor x="392" y="-19" name="bottom"/>
  <anchor x="392" y="719" name="top"/>
  <outline>
    <contour>
      <point x="391" y="260" type="line"/>
      <point x="574" y="260" type="line"/>
      <point x="562" y="170"/>
      <point x="509" y="111"/>
      <point x="406" y="111" type="curve" smooth="yes"/>
      <point x="280" y="111"/>
      <point x="205" y="199"/>
      <point x="205" y="354" type="curve" smooth="yes"/>
      <point x="205" y="504"/>
      <point x="270" y="589"/>
      <point x="399" y="589" type="curve" smooth="yes"/>
      <point x="487" y="589"/>
      <point x="536" y="550"/>
      <point x="559" y="485" type="curve"/>
      <point x="725" y="485" type="line"/>
      <point x="683" y="620"/>
      <point x="572" y="720"/>
      <point x="400" y="720" type="curve" smooth="yes"/>
      <point x="192" y="720"/>
      <point x="38" y="574"/>
      <point x="38" y="355" type="curve" smooth="yes"/>
      <point x="38" y="150"/>
      <point x="174" y="-20"/>
      <point x="398" y="-20" type="curve" smooth="yes"/>
      <point x="614" y="-20"/>
      <point x="745" y="138.603"/>
      <point x="745" y="329.127" type="curve" smooth="yes"/>
      <point x="745" y="380" type="line"/>
      <point x="391" y="380" type="line"/>
    </contour>
  </outline>
</glyph>
<glyph name="G.ss14" format="2">
  <advance width="775"/>
  <anchor x="388" y="-19" name="bottom"/>
  <anchor x="388" y="719" name="top"/>
  <outline>
    <contour>
      <point x="365" y="246" type="line"/>
      <point x="591" y="246" type="line"/>
      <point x="574" y="153"/>
      <point x="499" y="111"/>
      <point x="401" y="111" type="curve" smooth="yes"/>
      <point x="290" y="111"/>
      <point x="205" y="215"/>
      <point x="205" y="351" type="curve" smooth="yes"/>
      <point x="205" y="497"/>
      <point x="285" y="589"/>
      <point x="412" y="589" type="curve" smooth="yes"/>
      <point x="512" y="589"/>
      <point x="575" y="544"/>
      <point x="643" y="424" type="curve"/>
      <point x="688" y="583" type="line"/>
      <point x="625" y="665"/>
      <point x="526" y="720"/>
      <point x="398" y="720" type="curve" smooth="yes"/>
      <point x="178" y="720"/>
      <point x="38" y="570"/>
      <point x="38" y="358" type="curve" smooth="yes"/>
      <point x="38" y="155"/>
      <point x="168" y="-20"/>
      <point x="383" y="-20" type="curve" smooth="yes"/>
      <point x="543" y="-20"/>
      <point x="636" y="120"/>
      <point x="636" y="324" type="curve" smooth="yes"/>
      <point x="636" y="376" type="line"/>
      <point x="365" y="376" type="line"/>
    </contour>
    <contour>
      <point x="592" y="0" type="line"/>
      <point x="722" y="0" type="line"/>
      <point x="722" y="376" type="line"/>
      <point x="592" y="376" type="line"/>
    </contour>
  </outline>
</glyph>
<glyph name="Germandbls.ss09" format="2">
  <advance width="723"/>
  <outline>
    <contour>
      <point x="469" y="-20" type="curve" smooth="yes"/>
      <point x="329" y="-20"/>
      <point x="261" y="31.3018"/>
      <point x="245" y="150" type="curve"/>
      <point x="407" y="150" type="line"/>
      <point x="407.991" y="119.211"/>
      <point x="437.463" y="111"/>
      <point x="464.969" y="111" type="curve" smooth="yes"/>
      <point x="509.176" y="111"/>
      <point x="519" y="129.474"/>
      <point x="519" y="150" type="curve" smooth="yes"/>
      <point x="519" y="249.765"/>
      <point x="275" y="241.784"/>
      <point x="275" y="392.428" type="curve" smooth="yes"/>
      <point x="275" y="443.308"/>
      <point x="303.869" y="484.348"/>
      <point x="340" y="519.129" type="curve" smooth="yes"/>
      <point x="397" y="574" type="line"/>
      <point x="388" y="580"/>
      <point x="349" y="589"/>
      <point x="317" y="589" type="curve" smooth="yes"/>
      <point x="245" y="589"/>
      <point x="225" y="539"/>
      <point x="225" y="497" type="curve" smooth="yes"/>
      <point x="225" y="0" type="line"/>
      <point x="59" y="0" type="line"/>
      <point x="59" y="489" type="line" smooth="yes"/>
      <point x="59" y="624"/>
      <point x="164.146" y="720"/>
      <point x="348.917" y="720" type="curve" smooth="yes"/>
      <point x="453.042" y="720"/>
      <point x="549" y="695"/>
      <point x="616" y="640" type="curve"/>
      <point x="496" y="515" type="line" smooth="yes"/>
      <point x="464.166" y="481.84"/>
      <point x="440" y="451"/>
      <point x="440" y="422" type="curve" smooth="yes"/>
      <point x="440" y="326"/>
      <point x="684" y="336"/>
      <point x="684" y="174" type="curve" smooth="yes"/>
      <point x="684" y="53"/>
      <point x="605" y="-20"/>
    </contour>
  </outline>
</glyph>
<glyph name="Germandbls.ss10" format="2">
  <advance width="723"/>
  <outline>
    <contour>
      <point x="59" y="0" type="line"/>
      <point x="225" y="0" type="line"/>
      <point x="225" y="438" type="line" smooth="yes"/>
      <point x="225" y="529"/>
      <point x="263" y="590"/>
      <point x="342" y="590" type="curve" smooth="yes"/>
      <point x="380" y="590"/>
      <point x="389" y="589"/>
      <point x="426" y="573" type="curve"/>
      <point x="354" y="510" type="line" smooth="yes"/>
      <point x="292" y="456"/>
      <point x="277" y="418"/>
      <point x="277" y="367" type="curve" smooth="yes"/>
      <point x="277" y="329"/>
      <point x="308" y="278"/>
      <point x="380" y="251" type="curve" smooth="yes"/>
      <point x="465" y="219"/>
      <point x="519" y="201"/>
      <point x="519" y="156" type="curve" smooth="yes"/>
      <point x="519" y="129"/>
      <point x="499" y="110"/>
      <point x="449" y="110" type="curve" smooth="yes"/>
      <point x="372" y="110"/>
      <point x="328" y="150"/>
      <point x="293" y="230" type="curve"/>
      <point x="249" y="87" type="line"/>
      <point x="290" y="22"/>
      <point x="370" y="-20"/>
      <point x="459" y="-20" type="curve" smooth="yes"/>
      <point x="626" y="-20"/>
      <point x="684" y="73"/>
      <point x="684" y="164" type="curve" smooth="yes"/>
      <point x="684" y="255"/>
      <point x="625" y="305"/>
      <point x="515" y="347" type="curve" smooth="yes"/>
      <point x="444" y="374"/>
      <point x="435" y="396"/>
      <point x="435" y="422" type="curve" smooth="yes"/>
      <point x="435" y="448"/>
      <point x="446" y="474"/>
      <point x="478" y="501" type="curve" smooth="yes"/>
      <point x="639" y="635" type="line"/>
      <point x="569" y="689"/>
      <point x="467" y="720"/>
      <point x="364" y="720" type="curve" smooth="yes"/>
      <point x="148" y="720"/>
      <point x="59" y="631"/>
      <point x="59" y="499" type="curve" smooth="yes"/>
    </contour>
  </outline>
</glyph>
<glyph name="Germandbls.ss12" format="2">
  <advance width="693"/>
  <outline>
    <contour>
      <point x="437" y="113" type="curve" smooth="yes"/>
      <point x="391" y="113"/>
      <point x="347" y="135"/>
      <point x="280" y="207" type="curve"/>
      <point x="268" y="92" type="line"/>
      <point x="319" y="17"/>
      <point x="383" y="-20"/>
      <point x="478" y="-20" type="curve" smooth="yes"/>
      <point x="598" y="-20"/>
      <point x="654" y="59"/>
      <point x="654" y="144" type="curve" smooth="yes"/>
      <point x="654" y="313"/>
      <point x="423" y="323"/>
      <point x="423" y="414" type="curve" smooth="yes"/>
      <point x="423" y="455"/>
      <point x="470" y="494"/>
      <point x="491" y="512" type="curve" smooth="yes"/>
      <point x="629" y="635" type="line"/>
      <point x="570" y="676"/>
      <point x="470" y="720"/>
      <point x="347" y="720" type="curve" smooth="yes"/>
      <point x="155" y="720"/>
      <point x="59" y="612"/>
      <point x="59" y="489" type="curve" smooth="yes"/>
      <point x="59" y="0" type="line"/>
      <point x="225" y="0" type="line"/>
      <point x="225" y="441" type="line" smooth="yes"/>
      <point x="225" y="540"/>
      <point x="270" y="590"/>
      <point x="354" y="590" type="curve" smooth="yes"/>
      <point x="378" y="590"/>
      <point x="399" y="586"/>
      <point x="421" y="571" type="curve"/>
      <point x="356" y="522" type="line" smooth="yes"/>
      <point x="302" y="481"/>
      <point x="275" y="447"/>
      <point x="275" y="393" type="curve" smooth="yes"/>
      <point x="275" y="242"/>
      <point x="488" y="260"/>
      <point x="488" y="154" type="curve" smooth="yes"/>
      <point x="488" y="129"/>
      <point x="476" y="113"/>
    </contour>
  </outline>
</glyph>
<glyph name="J.ss07" format="2">
  <advance width="400"/>
  <anchor x="254" y="719" name="top"/>
  <anchor x="164" y="-89" name="bottom"/>
  <outline>
    <contour>
      <point x="20" y="-144" type="line"/>
      <point x="254" y="-144"/>
      <point x="337" y="-67"/>
      <point x="337" y="148" type="curve" smooth="yes"/>
      <point x="336.5" y="700" type="line"/>
      <point x="171.5" y="700" type="line"/>
      <point x="171.5" y="142" type="line" smooth="yes"/>
      <point x="171.5" y="16"/>
      <point x="125" y="-14"/>
      <point x="20" y="-14" type="curve"/>
    </contour>
  </outline>
</glyph>
<glyph name="J.ss09" format="2">
  <advance width="584"/>
  <anchor x="275" y="-20" name="bottom"/>
  <anchor x="444" y="719" name="top"/>
  <outline>
    <contour>
      <point x="31" y="195" type="line"/>
      <point x="55.974" y="55"/>
      <point x="127.901" y="-20"/>
      <point x="270.755" y="-20" type="curve" smooth="yes"/>
      <point x="443.579" y="-20"/>
      <point x="520.5" y="75"/>
      <point x="520.5" y="252" type="curve" smooth="yes"/>
      <point x="520.5" y="700" type="line"/>
      <point x="355.5" y="700" type="line"/>
      <point x="355.5" y="249" type="line" smooth="yes"/>
      <point x="355.5" y="147"/>
      <point x="333.433" y="111"/>
      <point x="274.252" y="111" type="curve" smooth="yes"/>
      <point x="224.098" y="111"/>
      <point x="200.025" y="136"/>
      <point x="192" y="195" type="curve"/>
    </contour>
  </outline>
</glyph>
<glyph name="J.ss10" format="2">
  <advance width="558"/>
  <anchor x="427" y="719" name="top"/>
  <anchor x="248" y="-20" name="bottom"/>
  <outline>
    <contour>
      <point x="9" y="117" type="line"/>
      <point x="63.945" y="38"/>
      <point x="149.858" y="-20"/>
      <point x="262.744" y="-20" type="curve" smooth="yes"/>
      <point x="413.592" y="-20"/>
      <point x="504.5" y="57"/>
      <point x="504.5" y="225" type="curve" smooth="yes"/>
      <point x="504.5" y="700" type="line"/>
      <point x="339.5" y="700" type="line"/>
      <point x="339.5" y="239" type="line" smooth="yes"/>
      <point x="339.5" y="144"/>
      <point x="316.46" y="111"/>
      <point x="248.34" y="111" type="curve" smooth="yes"/>
      <point x="170.204" y="111"/>
      <point x="121.118" y="168"/>
      <point x="54" y="275" type="curve"/>
    </contour>
  </outline>
</glyph>
<glyph name="M.ss01" format="2">
  <advance width="870"/>
  <anchor x="435" y="719" name="top"/>
  <anchor x="435" y="-20" name="bottom"/>
  <outline>
    <contour>
      <point x="232" y="427" type="line"/>
      <point x="413" y="137" type="line"/>
      <point x="457" y="137" type="line"/>
      <point x="638" y="427" type="line"/>
      <point x="638" y="0" type="line"/>
      <point x="803" y="0" type="line"/>
      <point x="803" y="700" type="line"/>
      <point x="648" y="700" type="line"/>
      <point x="435" y="359" type="line"/>
      <point x="222" y="700" type="line"/>
      <point x="67" y="700" type="line"/>
      <point x="67" y="0" type="line"/>
      <point x="232" y="0" type="line"/>
    </contour>
  </outline>
</glyph>
<glyph name="Q.ss06" format="2">
  <advance width="795"/>
  <anchor x="398" y="719" name="top"/>
  <anchor x="398" y="-20" name="bottom"/>
  <anchor x="522" y="-1" name="ogonek"/>
  <outline>
    <contour>
      <point x="398.992" y="111" type="curve" smooth="yes"/>
      <point x="281.605" y="111"/>
      <point x="206" y="210"/>
      <point x="206" y="353" type="curve" smooth="yes"/>
      <point x="206" y="498"/>
      <point x="275.636" y="589"/>
      <point x="395.013" y="589" type="curve" smooth="yes"/>
      <point x="515.384" y="589"/>
      <point x="589" y="493"/>
      <point x="589" y="346" type="curve" smooth="yes"/>
      <point x="589" y="204"/>
      <point x="517.374" y="111"/>
    </contour>
    <contour>
      <point x="397" y="-20" type="curve" smooth="yes"/>
      <point x="621" y="-20"/>
      <point x="757" y="144"/>
      <point x="757" y="350" type="curve" smooth="yes"/>
      <point x="757" y="557"/>
      <point x="616" y="720"/>
      <point x="398" y="720" type="curve" smooth="yes"/>
      <point x="180" y="720"/>
      <point x="38" y="560"/>
      <point x="38" y="350" type="curve" smooth="yes"/>
      <point x="38" y="142"/>
      <point x="178" y="-20"/>
    </contour>
    <contour>
      <point x="306" y="115" type="line"/>
      <point x="324" y="157"/>
      <point x="351" y="172"/>
      <point x="373.677" y="172" type="curve" smooth="yes"/>
      <point x="410.262" y="172"/>
      <point x="426.865" y="127.419"/>
      <point x="447.716" y="71.4331" type="curve" smooth="yes"/>
      <point x="482.903" y="-23.0445"/>
      <point x="530.185" y="-150"/>
      <point x="706" y="-150" type="curve"/>
      <point x="706" y="-20" type="line"/>
      <point x="626.93" y="-20"/>
      <point x="605.982" y="35.0641"/>
      <point x="584.411" y="91.7697" type="curve" smooth="yes"/>
      <point x="561.513" y="151.96"/>
      <point x="537.913" y="214"/>
      <point x="443.35" y="214" type="curve" smooth="yes"/>
      <point x="352" y="214"/>
      <point x="320" y="166"/>
      <point x="299" y="119" type="curve"/>
    </contour>
  </outline>
</glyph>
<glyph name="R.ss08" format="2">
  <advance width="635"/>
  <anchor x="323" y="719" name="top"/>
  <anchor x="323" y="-20" name="bottom"/>
  <outline>
    <contour>
      <point x="68" y="0" type="line"/>
      <point x="234" y="0" type="line"/>
      <point x="234" y="244" type="line"/>
      <point x="326" y="244" type="line" smooth="yes"/>
      <point x="482" y="244"/>
      <point x="590" y="337"/>
      <point x="590" y="474" type="curve" smooth="yes"/>
      <point x="590" y="615"/>
      <point x="495" y="700"/>
      <point x="338" y="700" type="curve" smooth="yes"/>
      <point x="68" y="700" type="line"/>
    </contour>
    <contour>
      <point x="234" y="374" type="line"/>
      <point x="234" y="570" type="line"/>
      <point x="294" y="570" type="line" smooth="yes"/>
      <point x="387" y="570"/>
      <point x="423" y="543"/>
      <point x="423" y="469" type="curve" smooth="yes"/>
      <point x="423" y="398"/>
      <point x="388" y="374"/>
      <point x="294" y="374" type="curve" smooth="yes"/>
    </contour>
    <contour>
      <point x="286" y="244" type="line"/>
      <point x="339" y="242"/>
      <point x="390" y="232"/>
      <point x="411" y="183" type="curve" smooth="yes"/>
      <point x="428" y="143"/>
      <point x="411" y="70"/>
      <point x="436" y="0" type="curve"/>
      <point x="605" y="0" type="line"/>
      <point x="575" y="66"/>
      <point x="595" y="171"/>
      <point x="570" y="222" type="curve" smooth="yes"/>
      <point x="545" y="273"/>
      <point x="503" y="287"/>
      <point x="407" y="313" type="curve"/>
    </contour>
  </outline>
</glyph>
<glyph name="S.ss09" format="2">
  <advance width="590"/>
  <anchor x="280" y="719" name="top"/>
  <anchor x="295" y="-20" name="bottom"/>
  <outline>
    <contour>
      <point x="196" y="198" type="curve"/>
      <point x="30" y="198" type="line"/>
      <point x="56.05" y="55"/>
      <point x="145.221" y="-20"/>
      <point x="295.51" y="-20" type="curve" smooth="yes"/>
      <point x="456.819" y="-20"/>
      <point x="551" y="66"/>
      <point x="551" y="194" type="curve" smooth="yes"/>
      <point x="551" y="339.004"/>
      <point x="439.992" y="372.679"/>
      <point x="343.731" y="401.88" type="curve" smooth="yes"/>
      <point x="270.047" y="424.232"/>
      <point x="204" y="443.963"/>
      <point x="204" y="509" type="curve" smooth="yes"/>
      <point x="204" y="556"/>
      <point x="230" y="589"/>
      <point x="285" y="589" type="curve" smooth="yes"/>
      <point x="331" y="589"/>
      <point x="360" y="565"/>
      <point x="373" y="502" type="curve"/>
      <point x="539" y="502" type="line"/>
      <point x="514" y="639"/>
      <point x="430" y="720"/>
      <point x="283" y="720" type="curve" smooth="yes"/>
      <point x="131" y="720"/>
      <point x="39" y="634"/>
      <point x="39" y="506" type="curve" smooth="yes"/>
      <point x="39" y="361.412"/>
      <point x="149.371" y="327.835"/>
      <point x="245.439" y="298.608" type="curve" smooth="yes"/>
      <point x="319.464" y="276.088"/>
      <point x="386" y="256.151"/>
      <point x="386" y="190" type="curve" smooth="yes"/>
      <point x="386" y="144"/>
      <point x="358.857" y="111"/>
      <point x="296.529" y="111" type="curve" smooth="yes"/>
      <point x="244.254" y="111"/>
      <point x="210.074" y="135"/>
    </contour>
  </outline>
</glyph>
<glyph name="S.ss10" format="2">
  <advance width="580"/>
  <anchor x="275" y="719" name="top"/>
  <anchor x="290" y="-20" name="bottom"/>
  <outline>
    <contour>
      <point x="30" y="116" type="line"/>
      <point x="90" y="35"/>
      <point x="180" y="-21"/>
      <point x="296" y="-21" type="curve" smooth="yes"/>
      <point x="442" y="-21"/>
      <point x="541" y="57"/>
      <point x="541" y="197" type="curve" smooth="yes"/>
      <point x="541" y="335.096"/>
      <point x="431.587" y="372.896"/>
      <point x="337.632" y="405.356" type="curve" smooth="yes"/>
      <point x="266.941" y="429.779"/>
      <point x="205" y="451.178"/>
      <point x="205" y="510" type="curve" smooth="yes"/>
      <point x="205" y="558"/>
      <point x="241" y="589"/>
      <point x="298" y="589" type="curve" smooth="yes"/>
      <point x="372" y="589"/>
      <point x="419" y="541"/>
      <point x="486" y="424" type="curve"/>
      <point x="531" y="583" type="line"/>
      <point x="476" y="664"/>
      <point x="386" y="720"/>
      <point x="271" y="720" type="curve" smooth="yes"/>
      <point x="125" y="720"/>
      <point x="40" y="631"/>
      <point x="40" y="497" type="curve" smooth="yes"/>
      <point x="40" y="357.078"/>
      <point x="151.479" y="316.796"/>
      <point x="246.581" y="282.432" type="curve" smooth="yes"/>
      <point x="317.321" y="256.871"/>
      <point x="379" y="234.584"/>
      <point x="379" y="177" type="curve" smooth="yes"/>
      <point x="379" y="135"/>
      <point x="344" y="110"/>
      <point x="285" y="110" type="curve" smooth="yes"/>
      <point x="204" y="110"/>
      <point x="146" y="158"/>
      <point x="75" y="275" type="curve"/>
    </contour>
  </outline>
</glyph>
<glyph name="Scedilla.ss12" format="2">
  <advance width="590"/>
  <anchor x="290" y="719" name="top"/>
  <anchor x="275" y="-218" name="bottom"/>
  <outline>
    <contour>
      <point x="43.853" y="95.316" type="line"/>
      <point x="95.927" y="29.138"/>
      <point x="211.014" y="-20"/>
      <point x="309.738" y="-20" type="curve" smooth="yes"/>
      <point x="453.596" y="-20"/>
      <point x="550.5" y="62"/>
      <point x="550.5" y="184" type="curve" smooth="yes"/>
      <point x="550.5" y="334.966"/>
      <point x="451.608" y="370.827"/>
      <point x="358.362" y="401.536" type="curve" smooth="yes"/>
      <point x="288.545" y="424.529"/>
      <point x="217.5" y="444.633"/>
      <point x="217.5" y="508" type="curve" smooth="yes"/>
      <point x="217.5" y="556"/>
      <point x="236.531" y="589"/>
      <point x="307.647" y="589" type="curve" smooth="yes"/>
      <point x="368.4" y="589"/>
      <point x="441.115" y="558.783"/>
      <point x="520.312" y="500.865" type="curve"/>
      <point x="530.076" y="611.523" type="line"/>
      <point x="478.001" y="677.701"/>
      <point x="380.328" y="719.901"/>
      <point x="281.604" y="719.901" type="curve" smooth="yes"/>
      <point x="148.741" y="719.901"/>
      <point x="52.5" y="642"/>
      <point x="52.5" y="517" type="curve" smooth="yes"/>
      <point x="52.5" y="365.082"/>
      <point x="161.118" y="327.326"/>
      <point x="254.286" y="294.941" type="curve" smooth="yes"/>
      <point x="324.249" y="270.622"/>
      <point x="385.5" y="249.332"/>
      <point x="385.5" y="185" type="curve" smooth="yes"/>
      <point x="385.5" y="138"/>
      <point x="369.307" y="111.128"/>
      <point x="293.191" y="111.128" type="curve" smooth="yes"/>
      <point x="232.437" y="111.128"/>
      <point x="132.813" y="148.056"/>
      <point x="53.617" y="205.974" type="curve"/>
    </contour>
    <contour>
      <point x="148" y="-205" type="line"/>
      <point x="170" y="-211"/>
      <point x="203" y="-218"/>
      <point x="250" y="-218" type="curve" smooth="yes"/>
      <point x="347" y="-218"/>
      <point x="399" y="-192"/>
      <point x="399" y="-133" type="curve" smooth="yes"/>
      <point x="399" y="-87"/>
      <point x="368" y="-64"/>
      <point x="298" y="-64" type="curve"/>
      <point x="345.224" y="19" type="line"/>
      <point x="252.224" y="19" type="line"/>
      <point x="187" y="-104" type="line"/>
      <point x="202" y="-102"/>
      <point x="220" y="-100"/>
      <point x="234" y="-100" type="curve" smooth="yes"/>
      <point x="267" y="-100"/>
      <point x="286" y="-111"/>
      <point x="286" y="-134" type="curve" smooth="yes"/>
      <point x="286" y="-155"/>
      <point x="270" y="-168"/>
      <point x="241" y="-168" type="curve" smooth="yes"/>
      <point x="223" y="-168"/>
      <point x="188" y="-163"/>
      <point x="168" y="-157" type="curve"/>
    </contour>
  </outline>
</glyph>
<glyph name="a.ss01" format="2">
  <advance width="606"/>
  <anchor x="300" y="520" name="top"/>
  <anchor x="294" y="-20" name="bottom"/>
  <anchor x="625" y="-3" name="ogonek"/>
  <outline>
    <contour>
      <point x="235" y="-20" type="curve" smooth="yes" name="dv01"/>
      <point x="359" y="-20"/>
      <point x="433" y="90"/>
      <point x="433" y="257" type="curve" smooth="yes"/>
      <point x="433" y="421"/>
      <point x="361" y="520"/>
      <point x="232" y="520" type="curve" smooth="yes" name="at01"/>
      <point x="97" y="520"/>
      <point x="20" y="411"/>
      <point x="20" y="259" type="curve" smooth="yes"/>
      <point x="20" y="99"/>
      <point x="106" y="-20"/>
    </contour>
    <contour>
      <point x="294.517" y="106" type="curve" smooth="yes" name="dv02"/>
      <point x="231.218" y="106"/>
      <point x="185" y="168"/>
      <point x="185" y="256" type="curve" smooth="yes"/>
      <point x="185" y="341"/>
      <point x="227.199" y="393"/>
      <point x="290.498" y="393" type="curve" smooth="yes" name="sv01"/>
      <point x="355.806" y="393"/>
      <point x="397" y="337"/>
      <point x="397" y="251" type="curve" smooth="yes"/>
      <point x="397" y="166"/>
      <point x="356.81" y="106"/>
    </contour>
    <contour>
      <point x="610" y="117" type="line"/>
      <point x="598.872" y="111.385"/>
      <point x="583.014" y="107"/>
      <point x="574.963" y="107" type="curve" smooth="yes" name="dv02"/>
      <point x="565.783" y="107"/>
      <point x="562" y="127"/>
      <point x="562" y="193" type="curve" smooth="yes"/>
      <point x="562" y="500" type="line" name="ab01"/>
      <point x="397" y="500" type="line"/>
      <point x="397" y="132" type="line" smooth="yes"/>
      <point x="397" y="33"/>
      <point x="439.356" y="-20"/>
      <point x="529.881" y="-20" type="curve" smooth="yes" name="dv01"/>
      <point x="562.271" y="-20"/>
      <point x="593" y="-11"/>
      <point x="640" y="5" type="curve"/>
    </contour>
  </outline>
</glyph>
<glyph name="a.ss02" format="2">
  <advance width="551"/>
  <anchor x="261" y="520" name="top"/>
  <anchor x="251" y="-20" name="bottom"/>
  <anchor x="557" y="-3" name="ogonek"/>
  <outline>
    <contour>
      <point x="336.81" y="161.42" type="curve"/>
      <point x="327.02" y="121.627"/>
      <point x="289.672" y="97"/>
      <point x="246.274" y="97" type="curve" smooth="yes"/>
      <point x="208.603" y="97"/>
      <point x="186" y="116.091"/>
      <point x="186" y="149.5" type="curve" smooth="yes"/>
      <point x="186" y="184.102"/>
      <point x="210.833" y="202"/>
      <point x="251.862" y="202" type="curve" smooth="yes"/>
      <point x="289.425" y="202"/>
      <point x="321.46" y="186.453"/>
    </contour>
    <contour>
      <point x="502" y="65" type="line"/>
      <point x="502" y="352" type="line" smooth="yes"/>
      <point x="502" y="444"/>
      <point x="435.575" y="520"/>
      <point x="274.11" y="520" type="curve" smooth="yes" name="at01"/>
      <point x="168.851" y="520"/>
      <point x="87.096" y="488"/>
      <point x="36" y="427" type="curve"/>
      <point x="121" y="342" type="line"/>
      <point x="149.311" y="377"/>
      <point x="197.544" y="397"/>
      <point x="246.825" y="397" type="curve" smooth="yes" name="sv01"/>
      <point x="298.204" y="397"/>
      <point x="337" y="375"/>
      <point x="337" y="325" type="curve" smooth="yes"/>
      <point x="337" y="236.53" type="line"/>
      <point x="311.12" y="284.72"/>
      <point x="261.485" y="312"/>
      <point x="197.083" y="312" type="curve" smooth="yes"/>
      <point x="93.526" y="312"/>
      <point x="20" y="243"/>
      <point x="20" y="146" type="curve" smooth="yes"/>
      <point x="20" y="49"/>
      <point x="93.524" y="-20"/>
      <point x="193.972" y="-20" type="curve" smooth="yes"/>
      <point x="260.879" y="-20"/>
      <point x="311.31" y="10.54"/>
      <point x="337" y="64.52" type="curve"/>
      <point x="337" y="65" type="line"/>
    </contour>
    <contour>
      <point x="550" y="117" type="line"/>
      <point x="538.872" y="111.385"/>
      <point x="523.014" y="107"/>
      <point x="514.963" y="107" type="curve" smooth="yes" name="dv02"/>
      <point x="505.783" y="107"/>
      <point x="502" y="127"/>
      <point x="502" y="193" type="curve" smooth="yes"/>
      <point x="502" y="342" type="line" name="ab01"/>
      <point x="337" y="312" type="line"/>
      <point x="337" y="132" type="line" smooth="yes"/>
      <point x="337" y="33"/>
      <point x="379.356" y="-20"/>
      <point x="469.881" y="-20" type="curve" smooth="yes" name="dv01"/>
      <point x="502.271" y="-20"/>
      <point x="533" y="-11"/>
      <point x="580" y="5" type="curve"/>
    </contour>
  </outline>
</glyph>
<glyph name="a.ss09" format="2">
  <advance width="570"/>
  <anchor x="290" y="520" name="top"/>
  <anchor x="504" y="-3" name="ogonek"/>
  <anchor x="285" y="-20" name="bottom"/>
  <outline>
    <contour>
      <point x="205" y="148" type="curve" smooth="yes"/>
      <point x="205" y="120"/>
      <point x="226" y="104"/>
      <point x="266" y="104" type="curve" smooth="yes"/>
      <point x="312" y="104"/>
      <point x="355" y="125"/>
      <point x="346" y="187" type="curve"/>
      <point x="361" y="110" type="line"/>
      <point x="344" y="28"/>
      <point x="288" y="-20"/>
      <point x="207" y="-20" type="curve" smooth="yes"/>
      <point x="110" y="-20"/>
      <point x="39" y="49"/>
      <point x="39" y="146" type="curve" smooth="yes"/>
      <point x="39" y="243"/>
      <point x="110" y="312"/>
      <point x="210" y="312" type="curve" smooth="yes"/>
      <point x="289" y="312"/>
      <point x="345" y="268"/>
      <point x="362" y="193" type="curve"/>
      <point x="357" y="124" type="line"/>
      <point x="357" y="164"/>
      <point x="317" y="192"/>
      <point x="266" y="192" type="curve" smooth="yes"/>
      <point x="228" y="192"/>
      <point x="205" y="177"/>
    </contour>
    <contour>
      <point x="292" y="520" type="curve" smooth="yes"/>
      <point x="437" y="520"/>
      <point x="511" y="444"/>
      <point x="511" y="352" type="curve" smooth="yes"/>
      <point x="511" y="0" type="line"/>
      <point x="346" y="0" type="line"/>
      <point x="346" y="333.668" type="line" smooth="yes"/>
      <point x="346" y="382.915"/>
      <point x="324" y="400"/>
      <point x="288" y="400" type="curve" smooth="yes"/>
      <point x="248" y="400"/>
      <point x="219" y="377"/>
      <point x="215" y="341" type="curve"/>
      <point x="53" y="341" type="line"/>
      <point x="67" y="460"/>
      <point x="164" y="520"/>
    </contour>
  </outline>
</glyph>
<glyph name="a.ss10" format="2">
  <advance width="568"/>
  <anchor x="284" y="520" name="top"/>
  <anchor x="284" y="-20" name="bottom"/>
  <anchor x="496" y="-3" name="ogonek"/>
  <outline>
    <contour>
      <point x="338" y="77" type="line"/>
      <point x="338" y="214" type="line"/>
      <point x="324" y="190"/>
      <point x="291" y="173"/>
      <point x="254" y="173" type="curve" smooth="yes"/>
      <point x="219" y="173"/>
      <point x="200" y="157.577"/>
      <point x="200" y="134.958" type="curve" smooth="yes"/>
      <point x="200" y="112.338"/>
      <point x="219" y="100"/>
      <point x="244" y="100" type="curve" smooth="yes"/>
      <point x="298" y="100"/>
      <point x="338" y="159.094"/>
      <point x="338" y="208" type="curve"/>
      <point x="356" y="127" type="line"/>
      <point x="340" y="47"/>
      <point x="290" y="-20"/>
      <point x="198" y="-20" type="curve" smooth="yes"/>
      <point x="108" y="-20"/>
      <point x="35" y="43.5803"/>
      <point x="35" y="135.97" type="curve" smooth="yes"/>
      <point x="35" y="229.354"/>
      <point x="109" y="283"/>
      <point x="226" y="283" type="curve" smooth="yes"/>
      <point x="304" y="283"/>
      <point x="337" y="307.432"/>
      <point x="337" y="347.135" type="curve" smooth="yes"/>
      <point x="337" y="378.694"/>
      <point x="314.826" y="396"/>
      <point x="262.717" y="396" type="curve" smooth="yes"/>
      <point x="193.978" y="396"/>
      <point x="133" y="366"/>
      <point x="82" y="297" type="curve"/>
      <point x="43" y="426" type="line"/>
      <point x="86" y="483"/>
      <point x="180.534" y="520"/>
      <point x="285.572" y="520" type="curve" smooth="yes"/>
      <point x="436.826" y="520"/>
      <point x="503" y="444"/>
      <point x="503" y="352" type="curve" smooth="yes"/>
      <point x="503" y="-10" type="line"/>
    </contour>
  </outline>
</glyph>
<glyph name="ae.ss13" format="2">
  <advance width="875"/>
  <anchor x="436" y="500" name="top"/>
  <anchor x="436" y="0" name="bottom"/>
  <outline>
    <contour>
      <point x="199" y="341" type="line"/>
      <point x="203" y="377"/>
      <point x="232" y="400"/>
      <point x="272" y="400" type="curve" smooth="yes"/>
      <point x="308" y="400"/>
      <point x="330" y="382.91"/>
      <point x="330" y="333.66" type="curve" smooth="yes"/>
      <point x="330" y="236.57" type="line"/>
      <point x="304.16" y="284.74"/>
      <point x="256.31" y="312"/>
      <point x="194.23" y="312" type="curve" smooth="yes"/>
      <point x="94.39" y="312"/>
      <point x="23.5" y="243"/>
      <point x="23.5" y="146" type="curve" smooth="yes"/>
      <point x="23.5" y="49"/>
      <point x="94.38" y="-20"/>
      <point x="199.263" y="-20" type="curve" smooth="yes"/>
      <point x="255.73" y="-20"/>
      <point x="337.458" y="0"/>
      <point x="389.92" y="79.91" type="curve"/>
      <point x="435.71" y="18.3"/>
      <point x="508.21" y="-20"/>
      <point x="598.74" y="-20" type="curve" smooth="yes"/>
      <point x="731.74" y="-20"/>
      <point x="822.94" y="51"/>
      <point x="841.94" y="167" type="curve"/>
      <point x="688.04" y="167" type="line"/>
      <point x="683.32" y="124"/>
      <point x="651.19" y="100"/>
      <point x="598.26" y="100" type="curve" smooth="yes"/>
      <point x="530.21" y="100"/>
      <point x="495.24" y="137.29"/>
      <point x="495.24" y="228" type="curve"/>
      <point x="848.59" y="228" type="line"/>
      <point x="850.49" y="406"/>
      <point x="762.14" y="520"/>
      <point x="599.69" y="520" type="curve" smooth="yes"/>
      <point x="536.14" y="520"/>
      <point x="481.91" y="501.77"/>
      <point x="439.42" y="470.86" type="curve"/>
      <point x="402.8" y="501.15"/>
      <point x="348.21" y="520"/>
      <point x="276" y="520" type="curve" smooth="yes"/>
      <point x="148" y="520"/>
      <point x="51" y="460"/>
      <point x="37" y="341" type="curve"/>
    </contour>
    <contour>
      <point x="330" y="160.636" type="curve"/>
      <point x="324.707" y="124.72"/>
      <point x="289.833" y="96"/>
      <point x="250" y="96" type="curve" smooth="yes"/>
      <point x="209.67" y="96"/>
      <point x="188.5" y="115.273"/>
      <point x="188.5" y="149" type="curve" smooth="yes"/>
      <point x="188.5" y="183.932"/>
      <point x="211.57" y="202"/>
      <point x="249.7" y="202" type="curve" smooth="yes"/>
      <point x="284.77" y="202"/>
      <point x="314.67" y="186.148"/>
    </contour>
    <contour>
      <point x="495" y="322" type="line"/>
      <point x="495" y="377.912"/>
      <point x="551.908" y="400"/>
      <point x="599.69" y="400" type="curve" smooth="yes"/>
      <point x="656.69" y="400"/>
      <point x="699.44" y="371"/>
      <point x="699.44" y="322" type="curve"/>
    </contour>
  </outline>
</glyph>
<glyph name="ae.ss14" format="2">
  <advance width="853"/>
  <anchor x="421" y="500" name="top"/>
  <anchor x="421" y="0" name="bottom"/>
  <outline>
    <contour>
      <point x="64.96" y="297" type="line"/>
      <point x="114.824" y="366"/>
      <point x="174.577" y="396"/>
      <point x="241.935" y="396" type="curve" smooth="yes"/>
      <point x="292.997" y="396"/>
      <point x="314.725" y="378.69"/>
      <point x="314.725" y="347.13" type="curve" smooth="yes"/>
      <point x="314.725" y="307.43"/>
      <point x="282.443" y="283"/>
      <point x="206.142" y="283" type="curve" smooth="yes"/>
      <point x="91.689" y="283"/>
      <point x="19.3" y="229.35"/>
      <point x="19.3" y="135.97" type="curve" smooth="yes"/>
      <point x="19.3" y="43.58"/>
      <point x="90.84" y="-20"/>
      <point x="186.784" y="-20" type="curve" smooth="yes"/>
      <point x="247.12" y="-20"/>
      <point x="323.898" y="5.145"/>
      <point x="380.21" y="68.7" type="curve"/>
      <point x="426.04" y="13.69"/>
      <point x="496.78" y="-20"/>
      <point x="589.91" y="-20" type="curve" smooth="yes"/>
      <point x="687.51" y="-20"/>
      <point x="773.91" y="17"/>
      <point x="815.19" y="73" type="curve"/>
      <point x="777.75" y="203" type="line"/>
      <point x="735.51" y="136"/>
      <point x="678.87" y="104"/>
      <point x="604" y="104" type="curve" smooth="yes"/>
      <point x="532" y="104"/>
      <point x="478.23" y="157"/>
      <point x="478.23" y="228" type="curve"/>
      <point x="828.63" y="228" type="line"/>
      <point x="846.543" y="401.488"/>
      <point x="746.705" y="520"/>
      <point x="573.966" y="520" type="curve" smooth="yes"/>
      <point x="510.105" y="520"/>
      <point x="450.328" y="503.34"/>
      <point x="405.45" y="474.86" type="curve"/>
      <point x="370.274" y="502.79"/>
      <point x="320.921" y="520"/>
      <point x="253.525" y="520" type="curve" smooth="yes"/>
      <point x="155.12" y="520"/>
      <point x="66.557" y="483"/>
      <point x="26.74" y="426" type="curve"/>
    </contour>
    <contour>
      <point x="316.24" y="213.474" type="line" smooth="yes"/>
      <point x="316.24" y="122.323"/>
      <point x="279.392" y="96"/>
      <point x="224.12" y="96" type="curve" smooth="yes"/>
      <point x="199.62" y="96"/>
      <point x="181" y="110.019"/>
      <point x="181" y="135.726" type="curve" smooth="yes"/>
      <point x="181" y="161.456"/>
      <point x="199.62" y="179"/>
      <point x="233.92" y="179" type="curve" smooth="yes"/>
      <point x="270.18" y="179"/>
      <point x="302.52" y="196"/>
      <point x="316.24" y="220" type="curve"/>
    </contour>
    <contour>
      <point x="479.725" y="324" type="line"/>
      <point x="479.725" y="363.02"/>
      <point x="518.963" y="400"/>
      <point x="576.409" y="400" type="curve" smooth="yes"/>
      <point x="630.974" y="400"/>
      <point x="667.35" y="362"/>
      <point x="667.35" y="324" type="curve"/>
    </contour>
  </outline>
</glyph>
<glyph name="alpha.ss01" format="2">
  <advance width="670"/>
  <anchor x="300" y="519" name="topgr"/>
  <outline>
    <contour>
      <point x="647" y="0" type="line"/>
      <point x="599" y="0" type="line" smooth="yes"/>
      <point x="480" y="0"/>
      <point x="426" y="47"/>
      <point x="426" y="153" type="curve" smooth="yes"/>
      <point x="426" y="500" type="line"/>
      <point x="591" y="500" type="line"/>
      <point x="591" y="197.407" type="line" smooth="yes"/>
      <point x="591" y="135.079"/>
      <point x="610" y="120"/>
      <point x="647" y="120" type="curve"/>
    </contour>
    <contour>
      <point x="263" y="-20" type="curve" smooth="yes"/>
      <point x="134" y="-20"/>
      <point x="49" y="99"/>
      <point x="49" y="259" type="curve" smooth="yes"/>
      <point x="49" y="411"/>
      <point x="125" y="520"/>
      <point x="259" y="520" type="curve" smooth="yes"/>
      <point x="378" y="520"/>
      <point x="458" y="433"/>
      <point x="458" y="260" type="curve" smooth="yes"/>
      <point x="458" y="109"/>
      <point x="397" y="-20"/>
    </contour>
    <contour>
      <point x="320" y="103" type="curve" smooth="yes"/>
      <point x="382" y="103"/>
      <point x="426" y="162"/>
      <point x="426" y="253" type="curve" smooth="yes"/>
      <point x="426" y="350"/>
      <point x="375" y="397"/>
      <point x="317" y="397" type="curve" smooth="yes"/>
      <point x="254" y="397"/>
      <point x="215" y="340"/>
      <point x="215" y="255" type="curve" smooth="yes"/>
      <point x="215" y="167"/>
      <point x="256" y="103"/>
    </contour>
  </outline>
</glyph>
<glyph name="aogonek.ss10" format="2">
  <advance width="558"/>
  <anchor x="274" y="520" name="top"/>
  <anchor x="274" y="-20" name="bottom"/>
  <outline>
    <contour>
      <point x="328" y="208" type="line" smooth="yes"/>
      <point x="328" y="157.28"/>
      <point x="288" y="96"/>
      <point x="234" y="96" type="curve" smooth="yes"/>
      <point x="209" y="96"/>
      <point x="190" y="110.02"/>
      <point x="190" y="135.74" type="curve" smooth="yes"/>
      <point x="190" y="161.46"/>
      <point x="209" y="179"/>
      <point x="244" y="179" type="curve" smooth="yes"/>
      <point x="281" y="179"/>
      <point x="314" y="196"/>
      <point x="328" y="220" type="curve"/>
    </contour>
    <contour>
      <point x="494" y="-183" type="line"/>
      <point x="451" y="-169"/>
      <point x="430" y="-138"/>
      <point x="430" y="-104" type="curve" smooth="yes"/>
      <point x="430" y="-67"/>
      <point x="454" y="-34"/>
      <point x="493" y="-10" type="curve"/>
      <point x="493" y="352" type="line" smooth="yes"/>
      <point x="493" y="444"/>
      <point x="426.82" y="520"/>
      <point x="275.57" y="520" type="curve" smooth="yes"/>
      <point x="170.53" y="520"/>
      <point x="76" y="483"/>
      <point x="33" y="426" type="curve"/>
      <point x="72" y="297" type="line"/>
      <point x="123" y="366"/>
      <point x="183.97" y="396"/>
      <point x="252.71" y="396" type="curve" smooth="yes"/>
      <point x="304.82" y="396"/>
      <point x="327" y="378.69"/>
      <point x="327" y="347.13" type="curve" smooth="yes"/>
      <point x="327" y="307.43"/>
      <point x="294" y="283"/>
      <point x="216" y="283" type="curve" smooth="yes"/>
      <point x="99" y="283"/>
      <point x="25" y="229.35"/>
      <point x="25" y="135.97" type="curve" smooth="yes"/>
      <point x="25" y="43.58"/>
      <point x="98" y="-20"/>
      <point x="188" y="-20" type="curve" smooth="yes"/>
      <point x="259.43" y="-20"/>
      <point x="305.54" y="20.39"/>
      <point x="330.08" y="75.9" type="curve"/>
      <point x="464.93" y="4.8" type="line"/>
      <point x="361.65" y="-11.11"/>
      <point x="310" y="-51.02"/>
      <point x="310" y="-106" type="curve" smooth="yes"/>
      <point x="310" y="-158"/>
      <point x="356" y="-196"/>
      <point x="430" y="-206" type="curve"/>
    </contour>
  </outline>
</glyph>
<glyph name="b.ss11" format="2">
  <advance width="629"/>
  <anchor x="345" y="-20" name="bottom"/>
  <anchor x="330" y="750" name="top"/>
  <outline>
    <contour>
      <point x="63.5" y="-10" type="line"/>
      <point x="228.5" y="85" type="line"/>
      <point x="228.5" y="700" type="line"/>
      <point x="63.5" y="700" type="line"/>
    </contour>
    <contour>
      <point x="383.612" y="-20" type="curve" smooth="yes"/>
      <point x="512.597" y="-20"/>
      <point x="588.5" y="99"/>
      <point x="588.5" y="255" type="curve" smooth="yes"/>
      <point x="588.5" y="411"/>
      <point x="513.595" y="520"/>
      <point x="384.665" y="520" type="curve" smooth="yes"/>
      <point x="256.922" y="520"/>
      <point x="196" y="413"/>
      <point x="196" y="255" type="curve" smooth="yes"/>
      <point x="196" y="93"/>
      <point x="257.921" y="-20"/>
    </contour>
    <contour>
      <point x="334.5" y="100" type="curve" smooth="yes"/>
      <point x="264.5" y="100"/>
      <point x="228.5" y="167.224"/>
      <point x="228.5" y="256.522" type="curve" smooth="yes"/>
      <point x="228.5" y="343.813"/>
      <point x="274.5" y="400"/>
      <point x="326.5" y="400" type="curve" smooth="yes"/>
      <point x="388.5" y="400"/>
      <point x="423.5" y="347.826"/>
      <point x="423.5" y="255.518" type="curve" smooth="yes"/>
      <point x="423.5" y="158.194"/>
      <point x="389.5" y="100"/>
    </contour>
  </outline>
</glyph>
<glyph name="becyr.loclSRB" format="2">
  <advance width="616"/>
  <outline>
    <contour>
      <point x="412" y="226" type="curve" smooth="yes"/>
      <point x="412" y="144"/>
      <point x="376" y="103"/>
      <point x="305" y="103" type="curve" smooth="yes"/>
      <point x="235" y="103"/>
      <point x="204" y="143"/>
      <point x="204" y="220" type="curve" smooth="yes"/>
      <point x="204" y="304"/>
      <point x="240" y="342"/>
      <point x="309" y="342" type="curve" smooth="yes"/>
      <point x="378" y="342"/>
      <point x="412" y="305"/>
    </contour>
    <contour>
      <point x="39" y="224.99" type="curve" smooth="yes"/>
      <point x="39" y="81.5811"/>
      <point x="143" y="-20"/>
      <point x="309" y="-20" type="curve" smooth="yes"/>
      <point x="470" y="-20"/>
      <point x="577" y="74.6099"/>
      <point x="577" y="224.99" type="curve" smooth="yes"/>
      <point x="577" y="374.374"/>
      <point x="471" y="465"/>
      <point x="310" y="465" type="curve" smooth="yes"/>
      <point x="142" y="465"/>
      <point x="39" y="367.402"/>
    </contour>
    <contour>
      <point x="266.01" y="540.236" type="curve" smooth="yes"/>
      <point x="266.01" y="568.132"/>
      <point x="279.135" y="581.517"/>
      <point x="369" y="591" type="curve" smooth="yes"/>
      <point x="536.336" y="608.659" type="line"/>
      <point x="536.336" y="730.234" type="line"/>
      <point x="311.391" y="706.399" type="line" smooth="yes"/>
      <point x="204.558" y="695.079"/>
      <point x="101.01" y="669.067"/>
      <point x="101.01" y="569.795" type="curve" smooth="yes"/>
      <point x="101.01" y="488.795"/>
      <point x="175.569" y="442"/>
      <point x="291.881" y="435" type="curve"/>
      <point x="440.814" y="439.75" type="line"/>
      <point x="372.653" y="467.206"/>
      <point x="266.01" y="488.236"/>
    </contour>
  </outline>
</glyph>
<glyph name="braceleft.case" format="2">
  <advance width="366"/>
  <outline>
    <contour>
      <point x="344" y="-228" type="line"/>
      <point x="292" y="-197.709"/>
      <point x="270" y="-142.014"/>
      <point x="270" y="-22.805" type="curve" smooth="yes"/>
      <point x="270" y="199" type="line" smooth="yes"/>
      <point x="270" y="263"/>
      <point x="251" y="321"/>
      <point x="154" y="349" type="curve"/>
      <point x="248" y="375"/>
      <point x="270" y="425"/>
      <point x="270" y="489" type="curve" smooth="yes"/>
      <point x="270" y="669.548" type="line" smooth="yes"/>
      <point x="270" y="792.649"/>
      <point x="292" y="854.199"/>
      <point x="344" y="886" type="curve"/>
      <point x="326" y="934" type="line"/>
      <point x="190" y="863.439"/>
      <point x="134" y="760.154"/>
      <point x="134" y="664.027" type="curve" smooth="yes"/>
      <point x="134" y="482" type="line" smooth="yes"/>
      <point x="134" y="432"/>
      <point x="96" y="370"/>
      <point x="34" y="359" type="curve"/>
      <point x="34" y="342" type="line"/>
      <point x="76" y="332"/>
      <point x="134" y="296"/>
      <point x="134" y="225" type="curve" smooth="yes"/>
      <point x="134" y="-15.205" type="line" smooth="yes"/>
      <point x="134" y="-114.229"/>
      <point x="190" y="-208.35"/>
      <point x="326" y="-276" type="curve"/>
    </contour>
  </outline>
</glyph>
<glyph name="braceright.case" format="2">
  <advance width="366"/>
  <outline>
    <contour>
      <point x="344" y="359" type="line"/>
      <point x="282" y="370"/>
      <point x="244" y="432"/>
      <point x="244" y="482" type="curve" smooth="yes"/>
      <point x="244" y="664.027" type="line" smooth="yes"/>
      <point x="244" y="760.154"/>
      <point x="188" y="863.439"/>
      <point x="52" y="934" type="curve"/>
      <point x="34" y="886" type="line"/>
      <point x="86" y="854.199"/>
      <point x="108" y="792.649"/>
      <point x="108" y="669.548" type="curve" smooth="yes"/>
      <point x="108" y="489" type="line" smooth="yes"/>
      <point x="108" y="425"/>
      <point x="130" y="375"/>
      <point x="224" y="349" type="curve"/>
      <point x="127" y="321"/>
      <point x="108" y="263"/>
      <point x="108" y="199" type="curve" smooth="yes"/>
      <point x="108" y="-22.8055" type="line" smooth="yes"/>
      <point x="108" y="-142.014"/>
      <point x="86" y="-197.709"/>
      <point x="34" y="-228" type="curve"/>
      <point x="52" y="-276" type="line"/>
      <point x="188" y="-208.35"/>
      <point x="244" y="-114.229"/>
      <point x="244" y="-15.2055" type="curve" smooth="yes"/>
      <point x="244" y="225" type="line" smooth="yes"/>
      <point x="244" y="296"/>
      <point x="302" y="332"/>
      <point x="344" y="342" type="curve"/>
    </contour>
  </outline>
</glyph>
